G04 #@! TF.GenerationSoftware,KiCad,Pcbnew,(7.0.0)*
G04 #@! TF.CreationDate,2024-09-08T09:31:03+01:00*
G04 #@! TF.ProjectId,wax_v1,7761785f-7631-42e6-9b69-6361645f7063,rev?*
G04 #@! TF.SameCoordinates,Original*
G04 #@! TF.FileFunction,Copper,L1,Top*
G04 #@! TF.FilePolarity,Positive*
%FSLAX46Y46*%
G04 Gerber Fmt 4.6, Leading zero omitted, Abs format (unit mm)*
G04 Created by KiCad (PCBNEW (7.0.0)) date 2024-09-08 09:31:03*
%MOMM*%
%LPD*%
G01*
G04 APERTURE LIST*
G04 #@! TA.AperFunction,ComponentPad*
%ADD10C,2.130000*%
G04 #@! TD*
G04 #@! TA.AperFunction,ComponentPad*
%ADD11R,1.930000X1.830000*%
G04 #@! TD*
G04 APERTURE END LIST*
D10*
X25000000Y-122350000D03*
X25000000Y-114050000D03*
X25000000Y-96380000D03*
X25000000Y-88080000D03*
X25000000Y-70400000D03*
X25000000Y-62100000D03*
X25000000Y-44420000D03*
X25000000Y-36120000D03*
D11*
X24999999Y-58999999D03*
D10*
X25000000Y-47600000D03*
X25000000Y-55900000D03*
D11*
X24999999Y-32999999D03*
D10*
X25000000Y-21600000D03*
X25000000Y-29900000D03*
D11*
X24999999Y-110959999D03*
D10*
X25000000Y-99560000D03*
X25000000Y-107860000D03*
D11*
X24999999Y-84979999D03*
D10*
X25000000Y-73580000D03*
X25000000Y-81880000D03*
G04 #@! TA.AperFunction,Conductor*
G36*
X23679302Y-20517021D02*
G01*
X23724790Y-20563411D01*
X23740577Y-20626434D01*
X23722328Y-20688790D01*
X23603364Y-20882921D01*
X23603360Y-20882927D01*
X23600816Y-20887080D01*
X23506517Y-21114738D01*
X23505382Y-21119462D01*
X23505379Y-21119474D01*
X23450129Y-21349611D01*
X23450127Y-21349617D01*
X23448993Y-21354345D01*
X23429659Y-21600000D01*
X23448993Y-21845655D01*
X23450128Y-21850384D01*
X23450129Y-21850388D01*
X23505379Y-22080525D01*
X23505381Y-22080533D01*
X23506517Y-22085262D01*
X23600816Y-22312920D01*
X23729567Y-22523023D01*
X23732731Y-22526728D01*
X23732735Y-22526733D01*
X23886434Y-22706691D01*
X23889601Y-22710399D01*
X23893308Y-22713565D01*
X24073266Y-22867264D01*
X24073269Y-22867266D01*
X24076977Y-22870433D01*
X24287080Y-22999184D01*
X24514738Y-23093483D01*
X24754345Y-23151007D01*
X25000000Y-23170341D01*
X25245655Y-23151007D01*
X25485262Y-23093483D01*
X25712920Y-22999184D01*
X25923023Y-22870433D01*
X26110399Y-22710399D01*
X26270433Y-22523023D01*
X26399184Y-22312920D01*
X26493483Y-22085262D01*
X26551007Y-21845655D01*
X26570341Y-21600000D01*
X26551007Y-21354345D01*
X26493483Y-21114738D01*
X26399184Y-20887080D01*
X26277672Y-20688790D01*
X26259423Y-20626434D01*
X26275210Y-20563411D01*
X26320698Y-20517021D01*
X26383399Y-20500000D01*
X29376000Y-20500000D01*
X29438000Y-20516613D01*
X29483387Y-20562000D01*
X29500000Y-20624000D01*
X29500000Y-123276000D01*
X29483387Y-123338000D01*
X29438000Y-123383387D01*
X29376000Y-123400000D01*
X26414039Y-123400000D01*
X26351338Y-123382979D01*
X26305850Y-123336589D01*
X26290063Y-123273566D01*
X26308312Y-123211210D01*
X26310802Y-123207145D01*
X26399184Y-123062920D01*
X26493483Y-122835262D01*
X26551007Y-122595655D01*
X26570341Y-122350000D01*
X26551007Y-122104345D01*
X26493483Y-121864738D01*
X26399184Y-121637080D01*
X26270433Y-121426977D01*
X26110399Y-121239601D01*
X26106691Y-121236434D01*
X25926733Y-121082735D01*
X25926728Y-121082731D01*
X25923023Y-121079567D01*
X25712920Y-120950816D01*
X25485262Y-120856517D01*
X25480533Y-120855381D01*
X25480525Y-120855379D01*
X25250388Y-120800129D01*
X25250384Y-120800128D01*
X25245655Y-120798993D01*
X25240802Y-120798611D01*
X25004854Y-120780041D01*
X25000000Y-120779659D01*
X24995146Y-120780041D01*
X24759197Y-120798611D01*
X24759195Y-120798611D01*
X24754345Y-120798993D01*
X24749617Y-120800127D01*
X24749611Y-120800129D01*
X24519474Y-120855379D01*
X24519462Y-120855382D01*
X24514738Y-120856517D01*
X24510241Y-120858379D01*
X24510237Y-120858381D01*
X24291584Y-120948950D01*
X24291579Y-120948952D01*
X24287080Y-120950816D01*
X24282927Y-120953360D01*
X24282921Y-120953364D01*
X24081134Y-121077019D01*
X24081128Y-121077022D01*
X24076977Y-121079567D01*
X24073277Y-121082726D01*
X24073266Y-121082735D01*
X23893308Y-121236434D01*
X23893301Y-121236440D01*
X23889601Y-121239601D01*
X23886440Y-121243301D01*
X23886434Y-121243308D01*
X23732735Y-121423266D01*
X23732726Y-121423277D01*
X23729567Y-121426977D01*
X23727022Y-121431128D01*
X23727019Y-121431134D01*
X23603364Y-121632921D01*
X23603360Y-121632927D01*
X23600816Y-121637080D01*
X23506517Y-121864738D01*
X23505382Y-121869462D01*
X23505379Y-121869474D01*
X23450129Y-122099611D01*
X23450127Y-122099617D01*
X23448993Y-122104345D01*
X23429659Y-122350000D01*
X23448993Y-122595655D01*
X23450128Y-122600384D01*
X23450129Y-122600388D01*
X23505379Y-122830525D01*
X23505381Y-122830533D01*
X23506517Y-122835262D01*
X23600816Y-123062920D01*
X23603363Y-123067077D01*
X23603364Y-123067078D01*
X23691688Y-123211210D01*
X23709937Y-123273566D01*
X23694150Y-123336589D01*
X23648662Y-123382979D01*
X23585961Y-123400000D01*
X20624000Y-123400000D01*
X20562000Y-123383387D01*
X20516613Y-123338000D01*
X20500000Y-123276000D01*
X20500000Y-117393226D01*
X23495308Y-117393226D01*
X23509507Y-117639475D01*
X23510623Y-117644430D01*
X23510625Y-117644439D01*
X23562615Y-117875134D01*
X23563734Y-117880099D01*
X23565644Y-117884803D01*
X23565646Y-117884809D01*
X23654616Y-118103917D01*
X23654619Y-118103923D01*
X23656532Y-118108634D01*
X23785411Y-118318945D01*
X23946908Y-118505382D01*
X24136687Y-118662939D01*
X24349650Y-118787385D01*
X24580079Y-118875377D01*
X24821785Y-118924553D01*
X25068278Y-118933592D01*
X25312936Y-118902250D01*
X25549191Y-118831370D01*
X25770697Y-118722856D01*
X25971505Y-118579621D01*
X26146223Y-118405512D01*
X26290158Y-118205205D01*
X26399445Y-117984079D01*
X26471149Y-117748074D01*
X26503344Y-117503526D01*
X26505141Y-117430000D01*
X26484930Y-117184171D01*
X26424841Y-116944945D01*
X26326486Y-116718744D01*
X26192508Y-116511645D01*
X26170069Y-116486985D01*
X26029924Y-116332968D01*
X26029920Y-116332965D01*
X26026504Y-116329210D01*
X25832932Y-116176336D01*
X25828486Y-116173881D01*
X25828482Y-116173879D01*
X25621446Y-116059590D01*
X25616992Y-116057131D01*
X25612195Y-116055432D01*
X25612190Y-116055430D01*
X25455364Y-115999894D01*
X25384482Y-115974794D01*
X25379478Y-115973902D01*
X25379468Y-115973900D01*
X25146656Y-115932431D01*
X25146651Y-115932430D01*
X25141646Y-115931539D01*
X25136571Y-115931476D01*
X25136561Y-115931476D01*
X24900097Y-115928587D01*
X24900094Y-115928587D01*
X24895007Y-115928525D01*
X24889978Y-115929294D01*
X24889971Y-115929295D01*
X24656221Y-115965064D01*
X24656212Y-115965065D01*
X24651187Y-115965835D01*
X24646355Y-115967414D01*
X24646348Y-115967416D01*
X24421569Y-116040885D01*
X24421561Y-116040888D01*
X24416734Y-116042466D01*
X24412228Y-116044811D01*
X24412220Y-116044815D01*
X24202461Y-116154009D01*
X24202455Y-116154012D01*
X24197946Y-116156360D01*
X24193882Y-116159410D01*
X24193876Y-116159415D01*
X24004767Y-116301401D01*
X24004758Y-116301408D01*
X24000697Y-116304458D01*
X23997187Y-116308130D01*
X23997179Y-116308138D01*
X23833799Y-116479107D01*
X23833794Y-116479112D01*
X23830286Y-116482784D01*
X23827421Y-116486982D01*
X23827420Y-116486985D01*
X23694155Y-116682343D01*
X23694147Y-116682355D01*
X23691288Y-116686548D01*
X23689148Y-116691156D01*
X23689144Y-116691165D01*
X23589580Y-116905657D01*
X23589576Y-116905667D01*
X23587436Y-116910278D01*
X23586077Y-116915175D01*
X23586075Y-116915183D01*
X23522878Y-117143064D01*
X23521519Y-117147965D01*
X23520979Y-117153010D01*
X23520978Y-117153020D01*
X23495848Y-117388166D01*
X23495847Y-117388175D01*
X23495308Y-117393226D01*
X20500000Y-117393226D01*
X20500000Y-114050000D01*
X23429659Y-114050000D01*
X23448993Y-114295655D01*
X23450128Y-114300384D01*
X23450129Y-114300388D01*
X23505379Y-114530525D01*
X23505381Y-114530533D01*
X23506517Y-114535262D01*
X23600816Y-114762920D01*
X23729567Y-114973023D01*
X23732731Y-114976728D01*
X23732735Y-114976733D01*
X23886434Y-115156691D01*
X23889601Y-115160399D01*
X23893308Y-115163565D01*
X24073266Y-115317264D01*
X24073269Y-115317266D01*
X24076977Y-115320433D01*
X24287080Y-115449184D01*
X24514738Y-115543483D01*
X24754345Y-115601007D01*
X25000000Y-115620341D01*
X25245655Y-115601007D01*
X25485262Y-115543483D01*
X25712920Y-115449184D01*
X25923023Y-115320433D01*
X26110399Y-115160399D01*
X26270433Y-114973023D01*
X26399184Y-114762920D01*
X26493483Y-114535262D01*
X26551007Y-114295655D01*
X26570341Y-114050000D01*
X26551007Y-113804345D01*
X26493483Y-113564738D01*
X26399184Y-113337080D01*
X26270433Y-113126977D01*
X26110399Y-112939601D01*
X26106691Y-112936434D01*
X25926733Y-112782735D01*
X25926728Y-112782731D01*
X25923023Y-112779567D01*
X25712920Y-112650816D01*
X25622977Y-112613560D01*
X25570113Y-112571886D01*
X25546813Y-112508729D01*
X25559946Y-112442705D01*
X25605641Y-112393273D01*
X25670431Y-112375000D01*
X26009518Y-112375000D01*
X26016114Y-112374646D01*
X26064667Y-112369426D01*
X26079641Y-112365888D01*
X26198777Y-112321452D01*
X26214189Y-112313037D01*
X26315092Y-112237501D01*
X26327501Y-112225092D01*
X26403037Y-112124189D01*
X26411452Y-112108777D01*
X26455888Y-111989641D01*
X26459426Y-111974667D01*
X26464646Y-111926114D01*
X26465000Y-111919518D01*
X26465000Y-111226326D01*
X26461549Y-111213450D01*
X26448674Y-111210000D01*
X23551326Y-111210000D01*
X23538450Y-111213450D01*
X23535000Y-111226326D01*
X23535000Y-111919518D01*
X23535353Y-111926114D01*
X23540573Y-111974667D01*
X23544111Y-111989641D01*
X23588547Y-112108777D01*
X23596962Y-112124189D01*
X23672498Y-112225092D01*
X23684907Y-112237501D01*
X23785810Y-112313037D01*
X23801222Y-112321452D01*
X23920358Y-112365888D01*
X23935332Y-112369426D01*
X23983885Y-112374646D01*
X23990482Y-112375000D01*
X24329569Y-112375000D01*
X24394359Y-112393273D01*
X24440054Y-112442705D01*
X24453187Y-112508729D01*
X24429887Y-112571886D01*
X24377022Y-112613561D01*
X24291584Y-112648950D01*
X24291579Y-112648952D01*
X24287080Y-112650816D01*
X24282927Y-112653360D01*
X24282921Y-112653364D01*
X24081134Y-112777019D01*
X24081128Y-112777022D01*
X24076977Y-112779567D01*
X24073277Y-112782726D01*
X24073266Y-112782735D01*
X23893308Y-112936434D01*
X23893301Y-112936440D01*
X23889601Y-112939601D01*
X23886440Y-112943301D01*
X23886434Y-112943308D01*
X23732735Y-113123266D01*
X23732726Y-113123277D01*
X23729567Y-113126977D01*
X23727022Y-113131128D01*
X23727019Y-113131134D01*
X23603364Y-113332921D01*
X23603360Y-113332927D01*
X23600816Y-113337080D01*
X23506517Y-113564738D01*
X23505382Y-113569462D01*
X23505379Y-113569474D01*
X23450129Y-113799611D01*
X23450127Y-113799617D01*
X23448993Y-113804345D01*
X23429659Y-114050000D01*
X20500000Y-114050000D01*
X20500000Y-107860000D01*
X23429659Y-107860000D01*
X23448993Y-108105655D01*
X23450128Y-108110384D01*
X23450129Y-108110388D01*
X23505379Y-108340525D01*
X23505381Y-108340533D01*
X23506517Y-108345262D01*
X23600816Y-108572920D01*
X23729567Y-108783023D01*
X23732731Y-108786728D01*
X23732735Y-108786733D01*
X23886434Y-108966691D01*
X23889601Y-108970399D01*
X23893308Y-108973565D01*
X24073266Y-109127264D01*
X24073269Y-109127266D01*
X24076977Y-109130433D01*
X24287080Y-109259184D01*
X24401164Y-109306439D01*
X24454029Y-109348115D01*
X24477329Y-109411271D01*
X24464196Y-109477295D01*
X24418501Y-109526727D01*
X24353711Y-109545000D01*
X23990482Y-109545000D01*
X23983885Y-109545353D01*
X23935332Y-109550573D01*
X23920358Y-109554111D01*
X23801222Y-109598547D01*
X23785810Y-109606962D01*
X23684907Y-109682498D01*
X23672498Y-109694907D01*
X23596962Y-109795810D01*
X23588547Y-109811222D01*
X23544111Y-109930358D01*
X23540573Y-109945332D01*
X23535353Y-109993885D01*
X23535000Y-110000482D01*
X23535000Y-110693674D01*
X23538450Y-110706549D01*
X23551326Y-110710000D01*
X26448674Y-110710000D01*
X26461549Y-110706549D01*
X26465000Y-110693674D01*
X26465000Y-110000482D01*
X26464646Y-109993885D01*
X26459426Y-109945332D01*
X26455888Y-109930358D01*
X26411452Y-109811222D01*
X26403037Y-109795810D01*
X26327501Y-109694907D01*
X26315092Y-109682498D01*
X26214189Y-109606962D01*
X26198777Y-109598547D01*
X26079641Y-109554111D01*
X26064667Y-109550573D01*
X26016114Y-109545353D01*
X26009518Y-109545000D01*
X25646289Y-109545000D01*
X25581499Y-109526727D01*
X25535804Y-109477295D01*
X25522671Y-109411271D01*
X25545971Y-109348115D01*
X25598836Y-109306439D01*
X25712920Y-109259184D01*
X25923023Y-109130433D01*
X26110399Y-108970399D01*
X26270433Y-108783023D01*
X26399184Y-108572920D01*
X26493483Y-108345262D01*
X26551007Y-108105655D01*
X26570341Y-107860000D01*
X26551007Y-107614345D01*
X26493483Y-107374738D01*
X26399184Y-107147080D01*
X26270433Y-106936977D01*
X26110399Y-106749601D01*
X26106691Y-106746434D01*
X25926733Y-106592735D01*
X25926728Y-106592731D01*
X25923023Y-106589567D01*
X25712920Y-106460816D01*
X25485262Y-106366517D01*
X25480533Y-106365381D01*
X25480525Y-106365379D01*
X25250388Y-106310129D01*
X25250384Y-106310128D01*
X25245655Y-106308993D01*
X25240802Y-106308611D01*
X25004854Y-106290041D01*
X25000000Y-106289659D01*
X24995146Y-106290041D01*
X24759197Y-106308611D01*
X24759195Y-106308611D01*
X24754345Y-106308993D01*
X24749617Y-106310127D01*
X24749611Y-106310129D01*
X24519474Y-106365379D01*
X24519462Y-106365382D01*
X24514738Y-106366517D01*
X24510241Y-106368379D01*
X24510237Y-106368381D01*
X24291584Y-106458950D01*
X24291579Y-106458952D01*
X24287080Y-106460816D01*
X24282927Y-106463360D01*
X24282921Y-106463364D01*
X24081134Y-106587019D01*
X24081128Y-106587022D01*
X24076977Y-106589567D01*
X24073277Y-106592726D01*
X24073266Y-106592735D01*
X23893308Y-106746434D01*
X23893301Y-106746440D01*
X23889601Y-106749601D01*
X23886440Y-106753301D01*
X23886434Y-106753308D01*
X23732735Y-106933266D01*
X23732726Y-106933277D01*
X23729567Y-106936977D01*
X23727022Y-106941128D01*
X23727019Y-106941134D01*
X23603364Y-107142921D01*
X23603360Y-107142927D01*
X23600816Y-107147080D01*
X23506517Y-107374738D01*
X23505382Y-107379462D01*
X23505379Y-107379474D01*
X23450129Y-107609611D01*
X23450127Y-107609617D01*
X23448993Y-107614345D01*
X23429659Y-107860000D01*
X20500000Y-107860000D01*
X20500000Y-104480000D01*
X23494859Y-104480000D01*
X23495129Y-104483295D01*
X23495130Y-104483298D01*
X23514652Y-104720754D01*
X23514653Y-104720763D01*
X23515070Y-104725829D01*
X23516308Y-104730761D01*
X23516310Y-104730768D01*
X23522894Y-104756979D01*
X23575159Y-104965055D01*
X23608314Y-105041308D01*
X23671485Y-105186591D01*
X23671488Y-105186596D01*
X23673514Y-105191256D01*
X23807492Y-105398355D01*
X23810912Y-105402114D01*
X23810914Y-105402116D01*
X23970075Y-105577031D01*
X23970078Y-105577034D01*
X23973496Y-105580790D01*
X24167068Y-105733664D01*
X24383008Y-105852869D01*
X24615518Y-105935206D01*
X24858354Y-105978461D01*
X25104993Y-105981475D01*
X25348813Y-105944165D01*
X25583266Y-105867534D01*
X25802054Y-105753640D01*
X25999303Y-105605542D01*
X26169714Y-105427216D01*
X26308712Y-105223452D01*
X26412564Y-104999722D01*
X26478481Y-104762035D01*
X26504692Y-104516774D01*
X26490493Y-104270525D01*
X26436266Y-104029901D01*
X26343468Y-103801366D01*
X26214589Y-103591055D01*
X26053092Y-103404618D01*
X25863313Y-103247061D01*
X25650350Y-103122615D01*
X25541015Y-103080864D01*
X25424678Y-103036439D01*
X25424672Y-103036437D01*
X25419921Y-103034623D01*
X25414941Y-103033609D01*
X25414935Y-103033608D01*
X25183200Y-102986461D01*
X25183197Y-102986460D01*
X25178215Y-102985447D01*
X25173136Y-102985260D01*
X25173130Y-102985260D01*
X24936800Y-102976594D01*
X24936797Y-102976594D01*
X24931722Y-102976408D01*
X24926691Y-102977052D01*
X24926679Y-102977053D01*
X24692106Y-103007103D01*
X24692093Y-103007105D01*
X24687064Y-103007750D01*
X24682206Y-103009207D01*
X24682194Y-103009210D01*
X24455674Y-103077170D01*
X24455669Y-103077171D01*
X24450809Y-103078630D01*
X24446252Y-103080862D01*
X24446248Y-103080864D01*
X24233873Y-103184905D01*
X24229303Y-103187144D01*
X24225164Y-103190095D01*
X24225156Y-103190101D01*
X24032638Y-103327423D01*
X24032631Y-103327428D01*
X24028495Y-103330379D01*
X24024899Y-103333962D01*
X24024890Y-103333970D01*
X23857386Y-103500890D01*
X23857377Y-103500900D01*
X23853777Y-103504488D01*
X23850807Y-103508620D01*
X23850802Y-103508627D01*
X23712813Y-103700659D01*
X23712807Y-103700667D01*
X23709842Y-103704795D01*
X23707587Y-103709355D01*
X23707586Y-103709359D01*
X23602812Y-103921353D01*
X23602809Y-103921359D01*
X23600555Y-103925921D01*
X23599077Y-103930784D01*
X23599074Y-103930793D01*
X23568963Y-104029901D01*
X23528851Y-104161926D01*
X23528187Y-104166963D01*
X23528186Y-104166972D01*
X23513885Y-104275605D01*
X23496656Y-104406474D01*
X23496575Y-104409766D01*
X23496575Y-104409773D01*
X23494939Y-104476691D01*
X23494939Y-104476707D01*
X23494859Y-104480000D01*
X20500000Y-104480000D01*
X20500000Y-99560000D01*
X23429659Y-99560000D01*
X23448993Y-99805655D01*
X23450128Y-99810384D01*
X23450129Y-99810388D01*
X23505379Y-100040525D01*
X23505381Y-100040533D01*
X23506517Y-100045262D01*
X23600816Y-100272920D01*
X23729567Y-100483023D01*
X23732731Y-100486728D01*
X23732735Y-100486733D01*
X23886434Y-100666691D01*
X23889601Y-100670399D01*
X23893308Y-100673565D01*
X24073266Y-100827264D01*
X24073269Y-100827266D01*
X24076977Y-100830433D01*
X24287080Y-100959184D01*
X24514738Y-101053483D01*
X24754345Y-101111007D01*
X25000000Y-101130341D01*
X25245655Y-101111007D01*
X25485262Y-101053483D01*
X25712920Y-100959184D01*
X25923023Y-100830433D01*
X26110399Y-100670399D01*
X26270433Y-100483023D01*
X26399184Y-100272920D01*
X26493483Y-100045262D01*
X26551007Y-99805655D01*
X26570341Y-99560000D01*
X26551007Y-99314345D01*
X26493483Y-99074738D01*
X26399184Y-98847080D01*
X26270433Y-98636977D01*
X26110399Y-98449601D01*
X26106691Y-98446434D01*
X25926733Y-98292735D01*
X25926728Y-98292731D01*
X25923023Y-98289567D01*
X25712920Y-98160816D01*
X25528823Y-98084560D01*
X25481987Y-98050532D01*
X25455703Y-97998947D01*
X25455703Y-97941053D01*
X25481987Y-97889468D01*
X25528824Y-97855439D01*
X25712920Y-97779184D01*
X25923023Y-97650433D01*
X26110399Y-97490399D01*
X26270433Y-97303023D01*
X26399184Y-97092920D01*
X26493483Y-96865262D01*
X26551007Y-96625655D01*
X26570341Y-96380000D01*
X26551007Y-96134345D01*
X26493483Y-95894738D01*
X26399184Y-95667080D01*
X26270433Y-95456977D01*
X26110399Y-95269601D01*
X26106691Y-95266434D01*
X25926733Y-95112735D01*
X25926728Y-95112731D01*
X25923023Y-95109567D01*
X25712920Y-94980816D01*
X25485262Y-94886517D01*
X25480533Y-94885381D01*
X25480525Y-94885379D01*
X25250388Y-94830129D01*
X25250384Y-94830128D01*
X25245655Y-94828993D01*
X25240802Y-94828611D01*
X25004854Y-94810041D01*
X25000000Y-94809659D01*
X24995146Y-94810041D01*
X24759197Y-94828611D01*
X24759195Y-94828611D01*
X24754345Y-94828993D01*
X24749617Y-94830127D01*
X24749611Y-94830129D01*
X24519474Y-94885379D01*
X24519462Y-94885382D01*
X24514738Y-94886517D01*
X24510241Y-94888379D01*
X24510237Y-94888381D01*
X24291584Y-94978950D01*
X24291579Y-94978952D01*
X24287080Y-94980816D01*
X24282927Y-94983360D01*
X24282921Y-94983364D01*
X24081134Y-95107019D01*
X24081128Y-95107022D01*
X24076977Y-95109567D01*
X24073277Y-95112726D01*
X24073266Y-95112735D01*
X23893308Y-95266434D01*
X23893301Y-95266440D01*
X23889601Y-95269601D01*
X23886440Y-95273301D01*
X23886434Y-95273308D01*
X23732735Y-95453266D01*
X23732726Y-95453277D01*
X23729567Y-95456977D01*
X23727022Y-95461128D01*
X23727019Y-95461134D01*
X23603364Y-95662921D01*
X23603360Y-95662927D01*
X23600816Y-95667080D01*
X23506517Y-95894738D01*
X23505382Y-95899462D01*
X23505379Y-95899474D01*
X23450129Y-96129611D01*
X23450127Y-96129617D01*
X23448993Y-96134345D01*
X23429659Y-96380000D01*
X23448993Y-96625655D01*
X23450128Y-96630384D01*
X23450129Y-96630388D01*
X23505379Y-96860525D01*
X23505381Y-96860533D01*
X23506517Y-96865262D01*
X23600816Y-97092920D01*
X23729567Y-97303023D01*
X23732731Y-97306728D01*
X23732735Y-97306733D01*
X23886434Y-97486691D01*
X23889601Y-97490399D01*
X23893308Y-97493565D01*
X24073266Y-97647264D01*
X24073269Y-97647266D01*
X24076977Y-97650433D01*
X24287080Y-97779184D01*
X24402804Y-97827118D01*
X24471175Y-97855439D01*
X24518012Y-97889469D01*
X24544296Y-97941053D01*
X24544296Y-97998947D01*
X24518012Y-98050531D01*
X24471175Y-98084561D01*
X24291584Y-98158950D01*
X24291579Y-98158952D01*
X24287080Y-98160816D01*
X24282927Y-98163360D01*
X24282921Y-98163364D01*
X24081134Y-98287019D01*
X24081128Y-98287022D01*
X24076977Y-98289567D01*
X24073277Y-98292726D01*
X24073266Y-98292735D01*
X23893308Y-98446434D01*
X23893301Y-98446440D01*
X23889601Y-98449601D01*
X23886440Y-98453301D01*
X23886434Y-98453308D01*
X23732735Y-98633266D01*
X23732726Y-98633277D01*
X23729567Y-98636977D01*
X23727022Y-98641128D01*
X23727019Y-98641134D01*
X23603364Y-98842921D01*
X23603360Y-98842927D01*
X23600816Y-98847080D01*
X23506517Y-99074738D01*
X23505382Y-99079462D01*
X23505379Y-99079474D01*
X23450129Y-99309611D01*
X23450127Y-99309617D01*
X23448993Y-99314345D01*
X23429659Y-99560000D01*
X20500000Y-99560000D01*
X20500000Y-91423226D01*
X23495308Y-91423226D01*
X23509507Y-91669475D01*
X23510623Y-91674430D01*
X23510625Y-91674439D01*
X23562615Y-91905134D01*
X23563734Y-91910099D01*
X23565644Y-91914803D01*
X23565646Y-91914809D01*
X23654616Y-92133917D01*
X23654619Y-92133923D01*
X23656532Y-92138634D01*
X23785411Y-92348945D01*
X23946908Y-92535382D01*
X24136687Y-92692939D01*
X24349650Y-92817385D01*
X24580079Y-92905377D01*
X24821785Y-92954553D01*
X25068278Y-92963592D01*
X25312936Y-92932250D01*
X25549191Y-92861370D01*
X25770697Y-92752856D01*
X25971505Y-92609621D01*
X26146223Y-92435512D01*
X26290158Y-92235205D01*
X26399445Y-92014079D01*
X26471149Y-91778074D01*
X26503344Y-91533526D01*
X26505141Y-91460000D01*
X26484930Y-91214171D01*
X26424841Y-90974945D01*
X26326486Y-90748744D01*
X26192508Y-90541645D01*
X26170069Y-90516985D01*
X26029924Y-90362968D01*
X26029920Y-90362965D01*
X26026504Y-90359210D01*
X25832932Y-90206336D01*
X25828486Y-90203881D01*
X25828482Y-90203879D01*
X25621446Y-90089590D01*
X25616992Y-90087131D01*
X25612195Y-90085432D01*
X25612190Y-90085430D01*
X25455364Y-90029894D01*
X25384482Y-90004794D01*
X25379478Y-90003902D01*
X25379468Y-90003900D01*
X25146656Y-89962431D01*
X25146651Y-89962430D01*
X25141646Y-89961539D01*
X25136571Y-89961476D01*
X25136561Y-89961476D01*
X24900097Y-89958587D01*
X24900094Y-89958587D01*
X24895007Y-89958525D01*
X24889978Y-89959294D01*
X24889971Y-89959295D01*
X24656221Y-89995064D01*
X24656212Y-89995065D01*
X24651187Y-89995835D01*
X24646355Y-89997414D01*
X24646348Y-89997416D01*
X24421569Y-90070885D01*
X24421561Y-90070888D01*
X24416734Y-90072466D01*
X24412228Y-90074811D01*
X24412220Y-90074815D01*
X24202461Y-90184009D01*
X24202455Y-90184012D01*
X24197946Y-90186360D01*
X24193882Y-90189410D01*
X24193876Y-90189415D01*
X24004767Y-90331401D01*
X24004758Y-90331408D01*
X24000697Y-90334458D01*
X23997187Y-90338130D01*
X23997179Y-90338138D01*
X23833799Y-90509107D01*
X23833794Y-90509112D01*
X23830286Y-90512784D01*
X23827421Y-90516982D01*
X23827420Y-90516985D01*
X23694155Y-90712343D01*
X23694147Y-90712355D01*
X23691288Y-90716548D01*
X23689148Y-90721156D01*
X23689144Y-90721165D01*
X23589580Y-90935657D01*
X23589576Y-90935667D01*
X23587436Y-90940278D01*
X23586077Y-90945175D01*
X23586075Y-90945183D01*
X23522878Y-91173064D01*
X23521519Y-91177965D01*
X23520979Y-91183010D01*
X23520978Y-91183020D01*
X23495848Y-91418166D01*
X23495847Y-91418175D01*
X23495308Y-91423226D01*
X20500000Y-91423226D01*
X20500000Y-88080000D01*
X23429659Y-88080000D01*
X23448993Y-88325655D01*
X23450128Y-88330384D01*
X23450129Y-88330388D01*
X23505379Y-88560525D01*
X23505381Y-88560533D01*
X23506517Y-88565262D01*
X23600816Y-88792920D01*
X23729567Y-89003023D01*
X23732731Y-89006728D01*
X23732735Y-89006733D01*
X23886434Y-89186691D01*
X23889601Y-89190399D01*
X23893308Y-89193565D01*
X24073266Y-89347264D01*
X24073269Y-89347266D01*
X24076977Y-89350433D01*
X24287080Y-89479184D01*
X24514738Y-89573483D01*
X24754345Y-89631007D01*
X25000000Y-89650341D01*
X25245655Y-89631007D01*
X25485262Y-89573483D01*
X25712920Y-89479184D01*
X25923023Y-89350433D01*
X26110399Y-89190399D01*
X26270433Y-89003023D01*
X26399184Y-88792920D01*
X26493483Y-88565262D01*
X26551007Y-88325655D01*
X26570341Y-88080000D01*
X26551007Y-87834345D01*
X26493483Y-87594738D01*
X26399184Y-87367080D01*
X26270433Y-87156977D01*
X26110399Y-86969601D01*
X26106691Y-86966434D01*
X25926733Y-86812735D01*
X25926728Y-86812731D01*
X25923023Y-86809567D01*
X25712920Y-86680816D01*
X25598835Y-86633560D01*
X25545971Y-86591885D01*
X25522671Y-86528729D01*
X25535804Y-86462705D01*
X25581499Y-86413273D01*
X25646289Y-86395000D01*
X26009518Y-86395000D01*
X26016114Y-86394646D01*
X26064667Y-86389426D01*
X26079641Y-86385888D01*
X26198777Y-86341452D01*
X26214189Y-86333037D01*
X26315092Y-86257501D01*
X26327501Y-86245092D01*
X26403037Y-86144189D01*
X26411452Y-86128777D01*
X26455888Y-86009641D01*
X26459426Y-85994667D01*
X26464646Y-85946114D01*
X26465000Y-85939518D01*
X26465000Y-85246326D01*
X26461549Y-85233450D01*
X26448674Y-85230000D01*
X23551326Y-85230000D01*
X23538450Y-85233450D01*
X23535000Y-85246326D01*
X23535000Y-85939518D01*
X23535353Y-85946114D01*
X23540573Y-85994667D01*
X23544111Y-86009641D01*
X23588547Y-86128777D01*
X23596962Y-86144189D01*
X23672498Y-86245092D01*
X23684907Y-86257501D01*
X23785810Y-86333037D01*
X23801222Y-86341452D01*
X23920358Y-86385888D01*
X23935332Y-86389426D01*
X23983885Y-86394646D01*
X23990482Y-86395000D01*
X24353711Y-86395000D01*
X24418501Y-86413273D01*
X24464196Y-86462705D01*
X24477329Y-86528729D01*
X24454029Y-86591885D01*
X24401164Y-86633561D01*
X24291584Y-86678950D01*
X24291579Y-86678952D01*
X24287080Y-86680816D01*
X24282927Y-86683360D01*
X24282921Y-86683364D01*
X24081134Y-86807019D01*
X24081128Y-86807022D01*
X24076977Y-86809567D01*
X24073277Y-86812726D01*
X24073266Y-86812735D01*
X23893308Y-86966434D01*
X23893301Y-86966440D01*
X23889601Y-86969601D01*
X23886440Y-86973301D01*
X23886434Y-86973308D01*
X23732735Y-87153266D01*
X23732726Y-87153277D01*
X23729567Y-87156977D01*
X23727022Y-87161128D01*
X23727019Y-87161134D01*
X23603364Y-87362921D01*
X23603360Y-87362927D01*
X23600816Y-87367080D01*
X23506517Y-87594738D01*
X23505382Y-87599462D01*
X23505379Y-87599474D01*
X23450129Y-87829611D01*
X23450127Y-87829617D01*
X23448993Y-87834345D01*
X23429659Y-88080000D01*
X20500000Y-88080000D01*
X20500000Y-81880000D01*
X23429659Y-81880000D01*
X23448993Y-82125655D01*
X23450128Y-82130384D01*
X23450129Y-82130388D01*
X23505379Y-82360525D01*
X23505381Y-82360533D01*
X23506517Y-82365262D01*
X23600816Y-82592920D01*
X23729567Y-82803023D01*
X23732731Y-82806728D01*
X23732735Y-82806733D01*
X23886434Y-82986691D01*
X23889601Y-82990399D01*
X23893308Y-82993565D01*
X24073266Y-83147264D01*
X24073269Y-83147266D01*
X24076977Y-83150433D01*
X24287080Y-83279184D01*
X24401164Y-83326439D01*
X24454029Y-83368115D01*
X24477329Y-83431271D01*
X24464196Y-83497295D01*
X24418501Y-83546727D01*
X24353711Y-83565000D01*
X23990482Y-83565000D01*
X23983885Y-83565353D01*
X23935332Y-83570573D01*
X23920358Y-83574111D01*
X23801222Y-83618547D01*
X23785810Y-83626962D01*
X23684907Y-83702498D01*
X23672498Y-83714907D01*
X23596962Y-83815810D01*
X23588547Y-83831222D01*
X23544111Y-83950358D01*
X23540573Y-83965332D01*
X23535353Y-84013885D01*
X23535000Y-84020482D01*
X23535000Y-84713674D01*
X23538450Y-84726549D01*
X23551326Y-84730000D01*
X26448674Y-84730000D01*
X26461549Y-84726549D01*
X26465000Y-84713674D01*
X26465000Y-84020482D01*
X26464646Y-84013885D01*
X26459426Y-83965332D01*
X26455888Y-83950358D01*
X26411452Y-83831222D01*
X26403037Y-83815810D01*
X26327501Y-83714907D01*
X26315092Y-83702498D01*
X26214189Y-83626962D01*
X26198777Y-83618547D01*
X26079641Y-83574111D01*
X26064667Y-83570573D01*
X26016114Y-83565353D01*
X26009518Y-83565000D01*
X25646289Y-83565000D01*
X25581499Y-83546727D01*
X25535804Y-83497295D01*
X25522671Y-83431271D01*
X25545971Y-83368115D01*
X25598836Y-83326439D01*
X25712920Y-83279184D01*
X25923023Y-83150433D01*
X26110399Y-82990399D01*
X26270433Y-82803023D01*
X26399184Y-82592920D01*
X26493483Y-82365262D01*
X26551007Y-82125655D01*
X26570341Y-81880000D01*
X26551007Y-81634345D01*
X26493483Y-81394738D01*
X26399184Y-81167080D01*
X26270433Y-80956977D01*
X26110399Y-80769601D01*
X26106691Y-80766434D01*
X25926733Y-80612735D01*
X25926728Y-80612731D01*
X25923023Y-80609567D01*
X25712920Y-80480816D01*
X25485262Y-80386517D01*
X25480533Y-80385381D01*
X25480525Y-80385379D01*
X25250388Y-80330129D01*
X25250384Y-80330128D01*
X25245655Y-80328993D01*
X25240802Y-80328611D01*
X25004854Y-80310041D01*
X25000000Y-80309659D01*
X24995146Y-80310041D01*
X24759197Y-80328611D01*
X24759195Y-80328611D01*
X24754345Y-80328993D01*
X24749617Y-80330127D01*
X24749611Y-80330129D01*
X24519474Y-80385379D01*
X24519462Y-80385382D01*
X24514738Y-80386517D01*
X24510241Y-80388379D01*
X24510237Y-80388381D01*
X24291584Y-80478950D01*
X24291579Y-80478952D01*
X24287080Y-80480816D01*
X24282927Y-80483360D01*
X24282921Y-80483364D01*
X24081134Y-80607019D01*
X24081128Y-80607022D01*
X24076977Y-80609567D01*
X24073277Y-80612726D01*
X24073266Y-80612735D01*
X23893308Y-80766434D01*
X23893301Y-80766440D01*
X23889601Y-80769601D01*
X23886440Y-80773301D01*
X23886434Y-80773308D01*
X23732735Y-80953266D01*
X23732726Y-80953277D01*
X23729567Y-80956977D01*
X23727022Y-80961128D01*
X23727019Y-80961134D01*
X23603364Y-81162921D01*
X23603360Y-81162927D01*
X23600816Y-81167080D01*
X23506517Y-81394738D01*
X23505382Y-81399462D01*
X23505379Y-81399474D01*
X23450129Y-81629611D01*
X23450127Y-81629617D01*
X23448993Y-81634345D01*
X23429659Y-81880000D01*
X20500000Y-81880000D01*
X20500000Y-78500000D01*
X23494859Y-78500000D01*
X23495129Y-78503295D01*
X23495130Y-78503298D01*
X23514652Y-78740754D01*
X23514653Y-78740763D01*
X23515070Y-78745829D01*
X23516308Y-78750761D01*
X23516310Y-78750768D01*
X23522894Y-78776979D01*
X23575159Y-78985055D01*
X23608314Y-79061308D01*
X23671485Y-79206591D01*
X23671488Y-79206596D01*
X23673514Y-79211256D01*
X23807492Y-79418355D01*
X23810912Y-79422114D01*
X23810914Y-79422116D01*
X23970075Y-79597031D01*
X23970078Y-79597034D01*
X23973496Y-79600790D01*
X24167068Y-79753664D01*
X24383008Y-79872869D01*
X24615518Y-79955206D01*
X24858354Y-79998461D01*
X25104993Y-80001475D01*
X25348813Y-79964165D01*
X25583266Y-79887534D01*
X25802054Y-79773640D01*
X25999303Y-79625542D01*
X26169714Y-79447216D01*
X26308712Y-79243452D01*
X26412564Y-79019722D01*
X26478481Y-78782035D01*
X26504692Y-78536774D01*
X26490493Y-78290525D01*
X26436266Y-78049901D01*
X26343468Y-77821366D01*
X26214589Y-77611055D01*
X26053092Y-77424618D01*
X25863313Y-77267061D01*
X25650350Y-77142615D01*
X25541015Y-77100864D01*
X25424678Y-77056439D01*
X25424672Y-77056437D01*
X25419921Y-77054623D01*
X25414941Y-77053609D01*
X25414935Y-77053608D01*
X25183200Y-77006461D01*
X25183197Y-77006460D01*
X25178215Y-77005447D01*
X25173136Y-77005260D01*
X25173130Y-77005260D01*
X24936800Y-76996594D01*
X24936797Y-76996594D01*
X24931722Y-76996408D01*
X24926691Y-76997052D01*
X24926679Y-76997053D01*
X24692106Y-77027103D01*
X24692093Y-77027105D01*
X24687064Y-77027750D01*
X24682206Y-77029207D01*
X24682194Y-77029210D01*
X24455674Y-77097170D01*
X24455669Y-77097171D01*
X24450809Y-77098630D01*
X24446252Y-77100862D01*
X24446248Y-77100864D01*
X24233873Y-77204905D01*
X24229303Y-77207144D01*
X24225164Y-77210095D01*
X24225156Y-77210101D01*
X24032638Y-77347423D01*
X24032631Y-77347428D01*
X24028495Y-77350379D01*
X24024899Y-77353962D01*
X24024890Y-77353970D01*
X23857386Y-77520890D01*
X23857377Y-77520900D01*
X23853777Y-77524488D01*
X23850807Y-77528620D01*
X23850802Y-77528627D01*
X23712813Y-77720659D01*
X23712807Y-77720667D01*
X23709842Y-77724795D01*
X23707587Y-77729355D01*
X23707586Y-77729359D01*
X23602812Y-77941353D01*
X23602809Y-77941359D01*
X23600555Y-77945921D01*
X23599077Y-77950784D01*
X23599074Y-77950793D01*
X23568963Y-78049901D01*
X23528851Y-78181926D01*
X23528187Y-78186963D01*
X23528186Y-78186972D01*
X23513885Y-78295605D01*
X23496656Y-78426474D01*
X23496575Y-78429766D01*
X23496575Y-78429773D01*
X23494939Y-78496691D01*
X23494939Y-78496707D01*
X23494859Y-78500000D01*
X20500000Y-78500000D01*
X20500000Y-73580000D01*
X23429659Y-73580000D01*
X23448993Y-73825655D01*
X23450128Y-73830384D01*
X23450129Y-73830388D01*
X23505379Y-74060525D01*
X23505381Y-74060533D01*
X23506517Y-74065262D01*
X23600816Y-74292920D01*
X23729567Y-74503023D01*
X23732731Y-74506728D01*
X23732735Y-74506733D01*
X23886434Y-74686691D01*
X23889601Y-74690399D01*
X23893308Y-74693565D01*
X24073266Y-74847264D01*
X24073269Y-74847266D01*
X24076977Y-74850433D01*
X24287080Y-74979184D01*
X24514738Y-75073483D01*
X24754345Y-75131007D01*
X25000000Y-75150341D01*
X25245655Y-75131007D01*
X25485262Y-75073483D01*
X25712920Y-74979184D01*
X25923023Y-74850433D01*
X26110399Y-74690399D01*
X26270433Y-74503023D01*
X26399184Y-74292920D01*
X26493483Y-74065262D01*
X26551007Y-73825655D01*
X26570341Y-73580000D01*
X26551007Y-73334345D01*
X26493483Y-73094738D01*
X26399184Y-72867080D01*
X26270433Y-72656977D01*
X26110399Y-72469601D01*
X26106691Y-72466434D01*
X25926733Y-72312735D01*
X25926728Y-72312731D01*
X25923023Y-72309567D01*
X25712920Y-72180816D01*
X25528823Y-72104560D01*
X25481987Y-72070532D01*
X25455703Y-72018947D01*
X25455703Y-71961053D01*
X25481987Y-71909468D01*
X25528824Y-71875439D01*
X25712920Y-71799184D01*
X25923023Y-71670433D01*
X26110399Y-71510399D01*
X26270433Y-71323023D01*
X26399184Y-71112920D01*
X26493483Y-70885262D01*
X26551007Y-70645655D01*
X26570341Y-70400000D01*
X26551007Y-70154345D01*
X26493483Y-69914738D01*
X26399184Y-69687080D01*
X26270433Y-69476977D01*
X26110399Y-69289601D01*
X26106691Y-69286434D01*
X25926733Y-69132735D01*
X25926728Y-69132731D01*
X25923023Y-69129567D01*
X25712920Y-69000816D01*
X25485262Y-68906517D01*
X25480533Y-68905381D01*
X25480525Y-68905379D01*
X25250388Y-68850129D01*
X25250384Y-68850128D01*
X25245655Y-68848993D01*
X25240802Y-68848611D01*
X25004854Y-68830041D01*
X25000000Y-68829659D01*
X24995146Y-68830041D01*
X24759197Y-68848611D01*
X24759195Y-68848611D01*
X24754345Y-68848993D01*
X24749617Y-68850127D01*
X24749611Y-68850129D01*
X24519474Y-68905379D01*
X24519462Y-68905382D01*
X24514738Y-68906517D01*
X24510241Y-68908379D01*
X24510237Y-68908381D01*
X24291584Y-68998950D01*
X24291579Y-68998952D01*
X24287080Y-69000816D01*
X24282927Y-69003360D01*
X24282921Y-69003364D01*
X24081134Y-69127019D01*
X24081128Y-69127022D01*
X24076977Y-69129567D01*
X24073277Y-69132726D01*
X24073266Y-69132735D01*
X23893308Y-69286434D01*
X23893301Y-69286440D01*
X23889601Y-69289601D01*
X23886440Y-69293301D01*
X23886434Y-69293308D01*
X23732735Y-69473266D01*
X23732726Y-69473277D01*
X23729567Y-69476977D01*
X23727022Y-69481128D01*
X23727019Y-69481134D01*
X23603364Y-69682921D01*
X23603360Y-69682927D01*
X23600816Y-69687080D01*
X23506517Y-69914738D01*
X23505382Y-69919462D01*
X23505379Y-69919474D01*
X23450129Y-70149611D01*
X23450127Y-70149617D01*
X23448993Y-70154345D01*
X23429659Y-70400000D01*
X23448993Y-70645655D01*
X23450128Y-70650384D01*
X23450129Y-70650388D01*
X23505379Y-70880525D01*
X23505381Y-70880533D01*
X23506517Y-70885262D01*
X23600816Y-71112920D01*
X23729567Y-71323023D01*
X23732731Y-71326728D01*
X23732735Y-71326733D01*
X23886434Y-71506691D01*
X23889601Y-71510399D01*
X23893308Y-71513565D01*
X24073266Y-71667264D01*
X24073269Y-71667266D01*
X24076977Y-71670433D01*
X24287080Y-71799184D01*
X24402804Y-71847118D01*
X24471175Y-71875439D01*
X24518012Y-71909469D01*
X24544296Y-71961053D01*
X24544296Y-72018947D01*
X24518012Y-72070531D01*
X24471175Y-72104561D01*
X24291584Y-72178950D01*
X24291579Y-72178952D01*
X24287080Y-72180816D01*
X24282927Y-72183360D01*
X24282921Y-72183364D01*
X24081134Y-72307019D01*
X24081128Y-72307022D01*
X24076977Y-72309567D01*
X24073277Y-72312726D01*
X24073266Y-72312735D01*
X23893308Y-72466434D01*
X23893301Y-72466440D01*
X23889601Y-72469601D01*
X23886440Y-72473301D01*
X23886434Y-72473308D01*
X23732735Y-72653266D01*
X23732726Y-72653277D01*
X23729567Y-72656977D01*
X23727022Y-72661128D01*
X23727019Y-72661134D01*
X23603364Y-72862921D01*
X23603360Y-72862927D01*
X23600816Y-72867080D01*
X23506517Y-73094738D01*
X23505382Y-73099462D01*
X23505379Y-73099474D01*
X23450129Y-73329611D01*
X23450127Y-73329617D01*
X23448993Y-73334345D01*
X23429659Y-73580000D01*
X20500000Y-73580000D01*
X20500000Y-65443226D01*
X23495308Y-65443226D01*
X23509507Y-65689475D01*
X23510623Y-65694430D01*
X23510625Y-65694439D01*
X23562615Y-65925134D01*
X23563734Y-65930099D01*
X23565644Y-65934803D01*
X23565646Y-65934809D01*
X23654616Y-66153917D01*
X23654619Y-66153923D01*
X23656532Y-66158634D01*
X23785411Y-66368945D01*
X23946908Y-66555382D01*
X24136687Y-66712939D01*
X24349650Y-66837385D01*
X24580079Y-66925377D01*
X24821785Y-66974553D01*
X25068278Y-66983592D01*
X25312936Y-66952250D01*
X25549191Y-66881370D01*
X25770697Y-66772856D01*
X25971505Y-66629621D01*
X26146223Y-66455512D01*
X26290158Y-66255205D01*
X26399445Y-66034079D01*
X26471149Y-65798074D01*
X26503344Y-65553526D01*
X26505141Y-65480000D01*
X26484930Y-65234171D01*
X26424841Y-64994945D01*
X26326486Y-64768744D01*
X26192508Y-64561645D01*
X26170069Y-64536985D01*
X26029924Y-64382968D01*
X26029920Y-64382965D01*
X26026504Y-64379210D01*
X25832932Y-64226336D01*
X25828486Y-64223881D01*
X25828482Y-64223879D01*
X25621446Y-64109590D01*
X25616992Y-64107131D01*
X25612195Y-64105432D01*
X25612190Y-64105430D01*
X25455364Y-64049894D01*
X25384482Y-64024794D01*
X25379478Y-64023902D01*
X25379468Y-64023900D01*
X25146656Y-63982431D01*
X25146651Y-63982430D01*
X25141646Y-63981539D01*
X25136571Y-63981476D01*
X25136561Y-63981476D01*
X24900097Y-63978587D01*
X24900094Y-63978587D01*
X24895007Y-63978525D01*
X24889978Y-63979294D01*
X24889971Y-63979295D01*
X24656221Y-64015064D01*
X24656212Y-64015065D01*
X24651187Y-64015835D01*
X24646355Y-64017414D01*
X24646348Y-64017416D01*
X24421569Y-64090885D01*
X24421561Y-64090888D01*
X24416734Y-64092466D01*
X24412228Y-64094811D01*
X24412220Y-64094815D01*
X24202461Y-64204009D01*
X24202455Y-64204012D01*
X24197946Y-64206360D01*
X24193882Y-64209410D01*
X24193876Y-64209415D01*
X24004767Y-64351401D01*
X24004758Y-64351408D01*
X24000697Y-64354458D01*
X23997187Y-64358130D01*
X23997179Y-64358138D01*
X23833799Y-64529107D01*
X23833794Y-64529112D01*
X23830286Y-64532784D01*
X23827421Y-64536982D01*
X23827420Y-64536985D01*
X23694155Y-64732343D01*
X23694147Y-64732355D01*
X23691288Y-64736548D01*
X23689148Y-64741156D01*
X23689144Y-64741165D01*
X23589580Y-64955657D01*
X23589576Y-64955667D01*
X23587436Y-64960278D01*
X23586077Y-64965175D01*
X23586075Y-64965183D01*
X23522878Y-65193064D01*
X23521519Y-65197965D01*
X23520979Y-65203010D01*
X23520978Y-65203020D01*
X23495848Y-65438166D01*
X23495847Y-65438175D01*
X23495308Y-65443226D01*
X20500000Y-65443226D01*
X20500000Y-62100000D01*
X23429659Y-62100000D01*
X23448993Y-62345655D01*
X23450128Y-62350384D01*
X23450129Y-62350388D01*
X23505379Y-62580525D01*
X23505381Y-62580533D01*
X23506517Y-62585262D01*
X23600816Y-62812920D01*
X23729567Y-63023023D01*
X23732731Y-63026728D01*
X23732735Y-63026733D01*
X23886434Y-63206691D01*
X23889601Y-63210399D01*
X23893308Y-63213565D01*
X24073266Y-63367264D01*
X24073269Y-63367266D01*
X24076977Y-63370433D01*
X24287080Y-63499184D01*
X24514738Y-63593483D01*
X24754345Y-63651007D01*
X25000000Y-63670341D01*
X25245655Y-63651007D01*
X25485262Y-63593483D01*
X25712920Y-63499184D01*
X25923023Y-63370433D01*
X26110399Y-63210399D01*
X26270433Y-63023023D01*
X26399184Y-62812920D01*
X26493483Y-62585262D01*
X26551007Y-62345655D01*
X26570341Y-62100000D01*
X26551007Y-61854345D01*
X26493483Y-61614738D01*
X26399184Y-61387080D01*
X26270433Y-61176977D01*
X26110399Y-60989601D01*
X26106691Y-60986434D01*
X25926733Y-60832735D01*
X25926728Y-60832731D01*
X25923023Y-60829567D01*
X25712920Y-60700816D01*
X25598835Y-60653560D01*
X25545971Y-60611885D01*
X25522671Y-60548729D01*
X25535804Y-60482705D01*
X25581499Y-60433273D01*
X25646289Y-60415000D01*
X26009518Y-60415000D01*
X26016114Y-60414646D01*
X26064667Y-60409426D01*
X26079641Y-60405888D01*
X26198777Y-60361452D01*
X26214189Y-60353037D01*
X26315092Y-60277501D01*
X26327501Y-60265092D01*
X26403037Y-60164189D01*
X26411452Y-60148777D01*
X26455888Y-60029641D01*
X26459426Y-60014667D01*
X26464646Y-59966114D01*
X26465000Y-59959518D01*
X26465000Y-59266326D01*
X26461549Y-59253450D01*
X26448674Y-59250000D01*
X23551326Y-59250000D01*
X23538450Y-59253450D01*
X23535000Y-59266326D01*
X23535000Y-59959518D01*
X23535353Y-59966114D01*
X23540573Y-60014667D01*
X23544111Y-60029641D01*
X23588547Y-60148777D01*
X23596962Y-60164189D01*
X23672498Y-60265092D01*
X23684907Y-60277501D01*
X23785810Y-60353037D01*
X23801222Y-60361452D01*
X23920358Y-60405888D01*
X23935332Y-60409426D01*
X23983885Y-60414646D01*
X23990482Y-60415000D01*
X24353711Y-60415000D01*
X24418501Y-60433273D01*
X24464196Y-60482705D01*
X24477329Y-60548729D01*
X24454029Y-60611885D01*
X24401164Y-60653561D01*
X24291584Y-60698950D01*
X24291579Y-60698952D01*
X24287080Y-60700816D01*
X24282927Y-60703360D01*
X24282921Y-60703364D01*
X24081134Y-60827019D01*
X24081128Y-60827022D01*
X24076977Y-60829567D01*
X24073277Y-60832726D01*
X24073266Y-60832735D01*
X23893308Y-60986434D01*
X23893301Y-60986440D01*
X23889601Y-60989601D01*
X23886440Y-60993301D01*
X23886434Y-60993308D01*
X23732735Y-61173266D01*
X23732726Y-61173277D01*
X23729567Y-61176977D01*
X23727022Y-61181128D01*
X23727019Y-61181134D01*
X23603364Y-61382921D01*
X23603360Y-61382927D01*
X23600816Y-61387080D01*
X23506517Y-61614738D01*
X23505382Y-61619462D01*
X23505379Y-61619474D01*
X23450129Y-61849611D01*
X23450127Y-61849617D01*
X23448993Y-61854345D01*
X23429659Y-62100000D01*
X20500000Y-62100000D01*
X20500000Y-55900000D01*
X23429659Y-55900000D01*
X23448993Y-56145655D01*
X23450128Y-56150384D01*
X23450129Y-56150388D01*
X23505379Y-56380525D01*
X23505381Y-56380533D01*
X23506517Y-56385262D01*
X23600816Y-56612920D01*
X23729567Y-56823023D01*
X23732731Y-56826728D01*
X23732735Y-56826733D01*
X23886434Y-57006691D01*
X23889601Y-57010399D01*
X23893308Y-57013565D01*
X24073266Y-57167264D01*
X24073269Y-57167266D01*
X24076977Y-57170433D01*
X24287080Y-57299184D01*
X24401164Y-57346439D01*
X24454029Y-57388115D01*
X24477329Y-57451271D01*
X24464196Y-57517295D01*
X24418501Y-57566727D01*
X24353711Y-57585000D01*
X23990482Y-57585000D01*
X23983885Y-57585353D01*
X23935332Y-57590573D01*
X23920358Y-57594111D01*
X23801222Y-57638547D01*
X23785810Y-57646962D01*
X23684907Y-57722498D01*
X23672498Y-57734907D01*
X23596962Y-57835810D01*
X23588547Y-57851222D01*
X23544111Y-57970358D01*
X23540573Y-57985332D01*
X23535353Y-58033885D01*
X23535000Y-58040482D01*
X23535000Y-58733674D01*
X23538450Y-58746549D01*
X23551326Y-58750000D01*
X26448674Y-58750000D01*
X26461549Y-58746549D01*
X26465000Y-58733674D01*
X26465000Y-58040482D01*
X26464646Y-58033885D01*
X26459426Y-57985332D01*
X26455888Y-57970358D01*
X26411452Y-57851222D01*
X26403037Y-57835810D01*
X26327501Y-57734907D01*
X26315092Y-57722498D01*
X26214189Y-57646962D01*
X26198777Y-57638547D01*
X26079641Y-57594111D01*
X26064667Y-57590573D01*
X26016114Y-57585353D01*
X26009518Y-57585000D01*
X25646289Y-57585000D01*
X25581499Y-57566727D01*
X25535804Y-57517295D01*
X25522671Y-57451271D01*
X25545971Y-57388115D01*
X25598836Y-57346439D01*
X25712920Y-57299184D01*
X25923023Y-57170433D01*
X26110399Y-57010399D01*
X26270433Y-56823023D01*
X26399184Y-56612920D01*
X26493483Y-56385262D01*
X26551007Y-56145655D01*
X26570341Y-55900000D01*
X26551007Y-55654345D01*
X26493483Y-55414738D01*
X26399184Y-55187080D01*
X26270433Y-54976977D01*
X26110399Y-54789601D01*
X26106691Y-54786434D01*
X25926733Y-54632735D01*
X25926728Y-54632731D01*
X25923023Y-54629567D01*
X25712920Y-54500816D01*
X25485262Y-54406517D01*
X25480533Y-54405381D01*
X25480525Y-54405379D01*
X25250388Y-54350129D01*
X25250384Y-54350128D01*
X25245655Y-54348993D01*
X25240802Y-54348611D01*
X25004854Y-54330041D01*
X25000000Y-54329659D01*
X24995146Y-54330041D01*
X24759197Y-54348611D01*
X24759195Y-54348611D01*
X24754345Y-54348993D01*
X24749617Y-54350127D01*
X24749611Y-54350129D01*
X24519474Y-54405379D01*
X24519462Y-54405382D01*
X24514738Y-54406517D01*
X24510241Y-54408379D01*
X24510237Y-54408381D01*
X24291584Y-54498950D01*
X24291579Y-54498952D01*
X24287080Y-54500816D01*
X24282927Y-54503360D01*
X24282921Y-54503364D01*
X24081134Y-54627019D01*
X24081128Y-54627022D01*
X24076977Y-54629567D01*
X24073277Y-54632726D01*
X24073266Y-54632735D01*
X23893308Y-54786434D01*
X23893301Y-54786440D01*
X23889601Y-54789601D01*
X23886440Y-54793301D01*
X23886434Y-54793308D01*
X23732735Y-54973266D01*
X23732726Y-54973277D01*
X23729567Y-54976977D01*
X23727022Y-54981128D01*
X23727019Y-54981134D01*
X23603364Y-55182921D01*
X23603360Y-55182927D01*
X23600816Y-55187080D01*
X23506517Y-55414738D01*
X23505382Y-55419462D01*
X23505379Y-55419474D01*
X23450129Y-55649611D01*
X23450127Y-55649617D01*
X23448993Y-55654345D01*
X23429659Y-55900000D01*
X20500000Y-55900000D01*
X20500000Y-52520000D01*
X23494859Y-52520000D01*
X23495129Y-52523295D01*
X23495130Y-52523298D01*
X23514652Y-52760754D01*
X23514653Y-52760763D01*
X23515070Y-52765829D01*
X23516308Y-52770761D01*
X23516310Y-52770768D01*
X23522894Y-52796979D01*
X23575159Y-53005055D01*
X23608314Y-53081308D01*
X23671485Y-53226591D01*
X23671488Y-53226596D01*
X23673514Y-53231256D01*
X23807492Y-53438355D01*
X23810912Y-53442114D01*
X23810914Y-53442116D01*
X23970075Y-53617031D01*
X23970078Y-53617034D01*
X23973496Y-53620790D01*
X24167068Y-53773664D01*
X24383008Y-53892869D01*
X24615518Y-53975206D01*
X24858354Y-54018461D01*
X25104993Y-54021475D01*
X25348813Y-53984165D01*
X25583266Y-53907534D01*
X25802054Y-53793640D01*
X25999303Y-53645542D01*
X26169714Y-53467216D01*
X26308712Y-53263452D01*
X26412564Y-53039722D01*
X26478481Y-52802035D01*
X26504692Y-52556774D01*
X26490493Y-52310525D01*
X26436266Y-52069901D01*
X26343468Y-51841366D01*
X26214589Y-51631055D01*
X26053092Y-51444618D01*
X25863313Y-51287061D01*
X25650350Y-51162615D01*
X25541015Y-51120864D01*
X25424678Y-51076439D01*
X25424672Y-51076437D01*
X25419921Y-51074623D01*
X25414941Y-51073609D01*
X25414935Y-51073608D01*
X25183200Y-51026461D01*
X25183197Y-51026460D01*
X25178215Y-51025447D01*
X25173136Y-51025260D01*
X25173130Y-51025260D01*
X24936800Y-51016594D01*
X24936797Y-51016594D01*
X24931722Y-51016408D01*
X24926691Y-51017052D01*
X24926679Y-51017053D01*
X24692106Y-51047103D01*
X24692093Y-51047105D01*
X24687064Y-51047750D01*
X24682206Y-51049207D01*
X24682194Y-51049210D01*
X24455674Y-51117170D01*
X24455669Y-51117171D01*
X24450809Y-51118630D01*
X24446252Y-51120862D01*
X24446248Y-51120864D01*
X24233873Y-51224905D01*
X24229303Y-51227144D01*
X24225164Y-51230095D01*
X24225156Y-51230101D01*
X24032638Y-51367423D01*
X24032631Y-51367428D01*
X24028495Y-51370379D01*
X24024899Y-51373962D01*
X24024890Y-51373970D01*
X23857386Y-51540890D01*
X23857377Y-51540900D01*
X23853777Y-51544488D01*
X23850807Y-51548620D01*
X23850802Y-51548627D01*
X23712813Y-51740659D01*
X23712807Y-51740667D01*
X23709842Y-51744795D01*
X23707587Y-51749355D01*
X23707586Y-51749359D01*
X23602812Y-51961353D01*
X23602809Y-51961359D01*
X23600555Y-51965921D01*
X23599077Y-51970784D01*
X23599074Y-51970793D01*
X23568963Y-52069901D01*
X23528851Y-52201926D01*
X23528187Y-52206963D01*
X23528186Y-52206972D01*
X23513885Y-52315605D01*
X23496656Y-52446474D01*
X23496575Y-52449766D01*
X23496575Y-52449773D01*
X23494939Y-52516691D01*
X23494939Y-52516707D01*
X23494859Y-52520000D01*
X20500000Y-52520000D01*
X20500000Y-47600000D01*
X23429659Y-47600000D01*
X23448993Y-47845655D01*
X23450128Y-47850384D01*
X23450129Y-47850388D01*
X23505379Y-48080525D01*
X23505381Y-48080533D01*
X23506517Y-48085262D01*
X23600816Y-48312920D01*
X23729567Y-48523023D01*
X23732731Y-48526728D01*
X23732735Y-48526733D01*
X23886434Y-48706691D01*
X23889601Y-48710399D01*
X23893308Y-48713565D01*
X24073266Y-48867264D01*
X24073269Y-48867266D01*
X24076977Y-48870433D01*
X24287080Y-48999184D01*
X24514738Y-49093483D01*
X24754345Y-49151007D01*
X25000000Y-49170341D01*
X25245655Y-49151007D01*
X25485262Y-49093483D01*
X25712920Y-48999184D01*
X25923023Y-48870433D01*
X26110399Y-48710399D01*
X26270433Y-48523023D01*
X26399184Y-48312920D01*
X26493483Y-48085262D01*
X26551007Y-47845655D01*
X26570341Y-47600000D01*
X26551007Y-47354345D01*
X26493483Y-47114738D01*
X26399184Y-46887080D01*
X26270433Y-46676977D01*
X26110399Y-46489601D01*
X26106691Y-46486434D01*
X25926733Y-46332735D01*
X25926728Y-46332731D01*
X25923023Y-46329567D01*
X25712920Y-46200816D01*
X25528823Y-46124560D01*
X25481987Y-46090532D01*
X25455703Y-46038947D01*
X25455703Y-45981053D01*
X25481987Y-45929468D01*
X25528824Y-45895439D01*
X25712920Y-45819184D01*
X25923023Y-45690433D01*
X26110399Y-45530399D01*
X26270433Y-45343023D01*
X26399184Y-45132920D01*
X26493483Y-44905262D01*
X26551007Y-44665655D01*
X26570341Y-44420000D01*
X26551007Y-44174345D01*
X26493483Y-43934738D01*
X26399184Y-43707080D01*
X26270433Y-43496977D01*
X26110399Y-43309601D01*
X26106691Y-43306434D01*
X25926733Y-43152735D01*
X25926728Y-43152731D01*
X25923023Y-43149567D01*
X25712920Y-43020816D01*
X25485262Y-42926517D01*
X25480533Y-42925381D01*
X25480525Y-42925379D01*
X25250388Y-42870129D01*
X25250384Y-42870128D01*
X25245655Y-42868993D01*
X25240802Y-42868611D01*
X25004854Y-42850041D01*
X25000000Y-42849659D01*
X24995146Y-42850041D01*
X24759197Y-42868611D01*
X24759195Y-42868611D01*
X24754345Y-42868993D01*
X24749617Y-42870127D01*
X24749611Y-42870129D01*
X24519474Y-42925379D01*
X24519462Y-42925382D01*
X24514738Y-42926517D01*
X24510241Y-42928379D01*
X24510237Y-42928381D01*
X24291584Y-43018950D01*
X24291579Y-43018952D01*
X24287080Y-43020816D01*
X24282927Y-43023360D01*
X24282921Y-43023364D01*
X24081134Y-43147019D01*
X24081128Y-43147022D01*
X24076977Y-43149567D01*
X24073277Y-43152726D01*
X24073266Y-43152735D01*
X23893308Y-43306434D01*
X23893301Y-43306440D01*
X23889601Y-43309601D01*
X23886440Y-43313301D01*
X23886434Y-43313308D01*
X23732735Y-43493266D01*
X23732726Y-43493277D01*
X23729567Y-43496977D01*
X23727022Y-43501128D01*
X23727019Y-43501134D01*
X23603364Y-43702921D01*
X23603360Y-43702927D01*
X23600816Y-43707080D01*
X23506517Y-43934738D01*
X23505382Y-43939462D01*
X23505379Y-43939474D01*
X23450129Y-44169611D01*
X23450127Y-44169617D01*
X23448993Y-44174345D01*
X23429659Y-44420000D01*
X23448993Y-44665655D01*
X23450128Y-44670384D01*
X23450129Y-44670388D01*
X23505379Y-44900525D01*
X23505381Y-44900533D01*
X23506517Y-44905262D01*
X23600816Y-45132920D01*
X23729567Y-45343023D01*
X23732731Y-45346728D01*
X23732735Y-45346733D01*
X23886434Y-45526691D01*
X23889601Y-45530399D01*
X23893308Y-45533565D01*
X24073266Y-45687264D01*
X24073269Y-45687266D01*
X24076977Y-45690433D01*
X24287080Y-45819184D01*
X24402804Y-45867118D01*
X24471175Y-45895439D01*
X24518012Y-45929469D01*
X24544296Y-45981053D01*
X24544296Y-46038947D01*
X24518012Y-46090531D01*
X24471175Y-46124561D01*
X24291584Y-46198950D01*
X24291579Y-46198952D01*
X24287080Y-46200816D01*
X24282927Y-46203360D01*
X24282921Y-46203364D01*
X24081134Y-46327019D01*
X24081128Y-46327022D01*
X24076977Y-46329567D01*
X24073277Y-46332726D01*
X24073266Y-46332735D01*
X23893308Y-46486434D01*
X23893301Y-46486440D01*
X23889601Y-46489601D01*
X23886440Y-46493301D01*
X23886434Y-46493308D01*
X23732735Y-46673266D01*
X23732726Y-46673277D01*
X23729567Y-46676977D01*
X23727022Y-46681128D01*
X23727019Y-46681134D01*
X23603364Y-46882921D01*
X23603360Y-46882927D01*
X23600816Y-46887080D01*
X23506517Y-47114738D01*
X23505382Y-47119462D01*
X23505379Y-47119474D01*
X23450129Y-47349611D01*
X23450127Y-47349617D01*
X23448993Y-47354345D01*
X23429659Y-47600000D01*
X20500000Y-47600000D01*
X20500000Y-39463226D01*
X23495308Y-39463226D01*
X23509507Y-39709475D01*
X23510623Y-39714430D01*
X23510625Y-39714439D01*
X23562615Y-39945134D01*
X23563734Y-39950099D01*
X23565644Y-39954803D01*
X23565646Y-39954809D01*
X23654616Y-40173917D01*
X23654619Y-40173923D01*
X23656532Y-40178634D01*
X23785411Y-40388945D01*
X23946908Y-40575382D01*
X24136687Y-40732939D01*
X24349650Y-40857385D01*
X24580079Y-40945377D01*
X24821785Y-40994553D01*
X25068278Y-41003592D01*
X25312936Y-40972250D01*
X25549191Y-40901370D01*
X25770697Y-40792856D01*
X25971505Y-40649621D01*
X26146223Y-40475512D01*
X26290158Y-40275205D01*
X26399445Y-40054079D01*
X26471149Y-39818074D01*
X26503344Y-39573526D01*
X26505141Y-39500000D01*
X26484930Y-39254171D01*
X26424841Y-39014945D01*
X26326486Y-38788744D01*
X26192508Y-38581645D01*
X26170069Y-38556985D01*
X26029924Y-38402968D01*
X26029920Y-38402965D01*
X26026504Y-38399210D01*
X25832932Y-38246336D01*
X25828486Y-38243881D01*
X25828482Y-38243879D01*
X25621446Y-38129590D01*
X25616992Y-38127131D01*
X25612195Y-38125432D01*
X25612190Y-38125430D01*
X25455364Y-38069894D01*
X25384482Y-38044794D01*
X25379478Y-38043902D01*
X25379468Y-38043900D01*
X25146656Y-38002431D01*
X25146651Y-38002430D01*
X25141646Y-38001539D01*
X25136571Y-38001476D01*
X25136561Y-38001476D01*
X24900097Y-37998587D01*
X24900094Y-37998587D01*
X24895007Y-37998525D01*
X24889978Y-37999294D01*
X24889971Y-37999295D01*
X24656221Y-38035064D01*
X24656212Y-38035065D01*
X24651187Y-38035835D01*
X24646355Y-38037414D01*
X24646348Y-38037416D01*
X24421569Y-38110885D01*
X24421561Y-38110888D01*
X24416734Y-38112466D01*
X24412228Y-38114811D01*
X24412220Y-38114815D01*
X24202461Y-38224009D01*
X24202455Y-38224012D01*
X24197946Y-38226360D01*
X24193882Y-38229410D01*
X24193876Y-38229415D01*
X24004767Y-38371401D01*
X24004758Y-38371408D01*
X24000697Y-38374458D01*
X23997187Y-38378130D01*
X23997179Y-38378138D01*
X23833799Y-38549107D01*
X23833794Y-38549112D01*
X23830286Y-38552784D01*
X23827421Y-38556982D01*
X23827420Y-38556985D01*
X23694155Y-38752343D01*
X23694147Y-38752355D01*
X23691288Y-38756548D01*
X23689148Y-38761156D01*
X23689144Y-38761165D01*
X23589580Y-38975657D01*
X23589576Y-38975667D01*
X23587436Y-38980278D01*
X23586077Y-38985175D01*
X23586075Y-38985183D01*
X23522878Y-39213064D01*
X23521519Y-39217965D01*
X23520979Y-39223010D01*
X23520978Y-39223020D01*
X23495848Y-39458166D01*
X23495847Y-39458175D01*
X23495308Y-39463226D01*
X20500000Y-39463226D01*
X20500000Y-36120000D01*
X23429659Y-36120000D01*
X23448993Y-36365655D01*
X23450128Y-36370384D01*
X23450129Y-36370388D01*
X23505379Y-36600525D01*
X23505381Y-36600533D01*
X23506517Y-36605262D01*
X23600816Y-36832920D01*
X23729567Y-37043023D01*
X23732731Y-37046728D01*
X23732735Y-37046733D01*
X23886434Y-37226691D01*
X23889601Y-37230399D01*
X23893308Y-37233565D01*
X24073266Y-37387264D01*
X24073269Y-37387266D01*
X24076977Y-37390433D01*
X24287080Y-37519184D01*
X24514738Y-37613483D01*
X24754345Y-37671007D01*
X25000000Y-37690341D01*
X25245655Y-37671007D01*
X25485262Y-37613483D01*
X25712920Y-37519184D01*
X25923023Y-37390433D01*
X26110399Y-37230399D01*
X26270433Y-37043023D01*
X26399184Y-36832920D01*
X26493483Y-36605262D01*
X26551007Y-36365655D01*
X26570341Y-36120000D01*
X26551007Y-35874345D01*
X26493483Y-35634738D01*
X26399184Y-35407080D01*
X26270433Y-35196977D01*
X26110399Y-35009601D01*
X26106691Y-35006434D01*
X25926733Y-34852735D01*
X25926728Y-34852731D01*
X25923023Y-34849567D01*
X25712920Y-34720816D01*
X25550551Y-34653560D01*
X25497687Y-34611885D01*
X25474387Y-34548729D01*
X25487520Y-34482705D01*
X25533215Y-34433273D01*
X25598005Y-34415000D01*
X26009518Y-34415000D01*
X26016114Y-34414646D01*
X26064667Y-34409426D01*
X26079641Y-34405888D01*
X26198777Y-34361452D01*
X26214189Y-34353037D01*
X26315092Y-34277501D01*
X26327501Y-34265092D01*
X26403037Y-34164189D01*
X26411452Y-34148777D01*
X26455888Y-34029641D01*
X26459426Y-34014667D01*
X26464646Y-33966114D01*
X26465000Y-33959518D01*
X26465000Y-33266326D01*
X26461549Y-33253450D01*
X26448674Y-33250000D01*
X23551326Y-33250000D01*
X23538450Y-33253450D01*
X23535000Y-33266326D01*
X23535000Y-33959518D01*
X23535353Y-33966114D01*
X23540573Y-34014667D01*
X23544111Y-34029641D01*
X23588547Y-34148777D01*
X23596962Y-34164189D01*
X23672498Y-34265092D01*
X23684907Y-34277501D01*
X23785810Y-34353037D01*
X23801222Y-34361452D01*
X23920358Y-34405888D01*
X23935332Y-34409426D01*
X23983885Y-34414646D01*
X23990482Y-34415000D01*
X24401995Y-34415000D01*
X24466785Y-34433273D01*
X24512480Y-34482705D01*
X24525613Y-34548729D01*
X24502313Y-34611885D01*
X24449448Y-34653561D01*
X24291584Y-34718950D01*
X24291579Y-34718952D01*
X24287080Y-34720816D01*
X24282927Y-34723360D01*
X24282921Y-34723364D01*
X24081134Y-34847019D01*
X24081128Y-34847022D01*
X24076977Y-34849567D01*
X24073277Y-34852726D01*
X24073266Y-34852735D01*
X23893308Y-35006434D01*
X23893301Y-35006440D01*
X23889601Y-35009601D01*
X23886440Y-35013301D01*
X23886434Y-35013308D01*
X23732735Y-35193266D01*
X23732726Y-35193277D01*
X23729567Y-35196977D01*
X23727022Y-35201128D01*
X23727019Y-35201134D01*
X23603364Y-35402921D01*
X23603360Y-35402927D01*
X23600816Y-35407080D01*
X23506517Y-35634738D01*
X23505382Y-35639462D01*
X23505379Y-35639474D01*
X23450129Y-35869611D01*
X23450127Y-35869617D01*
X23448993Y-35874345D01*
X23429659Y-36120000D01*
X20500000Y-36120000D01*
X20500000Y-29900000D01*
X23429659Y-29900000D01*
X23448993Y-30145655D01*
X23450128Y-30150384D01*
X23450129Y-30150388D01*
X23505379Y-30380525D01*
X23505381Y-30380533D01*
X23506517Y-30385262D01*
X23600816Y-30612920D01*
X23729567Y-30823023D01*
X23732731Y-30826728D01*
X23732735Y-30826733D01*
X23886434Y-31006691D01*
X23889601Y-31010399D01*
X23893308Y-31013565D01*
X24073266Y-31167264D01*
X24073269Y-31167266D01*
X24076977Y-31170433D01*
X24287080Y-31299184D01*
X24401164Y-31346439D01*
X24454029Y-31388115D01*
X24477329Y-31451271D01*
X24464196Y-31517295D01*
X24418501Y-31566727D01*
X24353711Y-31585000D01*
X23990482Y-31585000D01*
X23983885Y-31585353D01*
X23935332Y-31590573D01*
X23920358Y-31594111D01*
X23801222Y-31638547D01*
X23785810Y-31646962D01*
X23684907Y-31722498D01*
X23672498Y-31734907D01*
X23596962Y-31835810D01*
X23588547Y-31851222D01*
X23544111Y-31970358D01*
X23540573Y-31985332D01*
X23535353Y-32033885D01*
X23535000Y-32040482D01*
X23535000Y-32733674D01*
X23538450Y-32746549D01*
X23551326Y-32750000D01*
X26448674Y-32750000D01*
X26461549Y-32746549D01*
X26465000Y-32733674D01*
X26465000Y-32040482D01*
X26464646Y-32033885D01*
X26459426Y-31985332D01*
X26455888Y-31970358D01*
X26411452Y-31851222D01*
X26403037Y-31835810D01*
X26327501Y-31734907D01*
X26315092Y-31722498D01*
X26214189Y-31646962D01*
X26198777Y-31638547D01*
X26079641Y-31594111D01*
X26064667Y-31590573D01*
X26016114Y-31585353D01*
X26009518Y-31585000D01*
X25646289Y-31585000D01*
X25581499Y-31566727D01*
X25535804Y-31517295D01*
X25522671Y-31451271D01*
X25545971Y-31388115D01*
X25598836Y-31346439D01*
X25712920Y-31299184D01*
X25923023Y-31170433D01*
X26110399Y-31010399D01*
X26270433Y-30823023D01*
X26399184Y-30612920D01*
X26493483Y-30385262D01*
X26551007Y-30145655D01*
X26570341Y-29900000D01*
X26551007Y-29654345D01*
X26493483Y-29414738D01*
X26399184Y-29187080D01*
X26270433Y-28976977D01*
X26110399Y-28789601D01*
X26106691Y-28786434D01*
X25926733Y-28632735D01*
X25926728Y-28632731D01*
X25923023Y-28629567D01*
X25712920Y-28500816D01*
X25485262Y-28406517D01*
X25480533Y-28405381D01*
X25480525Y-28405379D01*
X25250388Y-28350129D01*
X25250384Y-28350128D01*
X25245655Y-28348993D01*
X25240802Y-28348611D01*
X25004854Y-28330041D01*
X25000000Y-28329659D01*
X24995146Y-28330041D01*
X24759197Y-28348611D01*
X24759195Y-28348611D01*
X24754345Y-28348993D01*
X24749617Y-28350127D01*
X24749611Y-28350129D01*
X24519474Y-28405379D01*
X24519462Y-28405382D01*
X24514738Y-28406517D01*
X24510241Y-28408379D01*
X24510237Y-28408381D01*
X24291584Y-28498950D01*
X24291579Y-28498952D01*
X24287080Y-28500816D01*
X24282927Y-28503360D01*
X24282921Y-28503364D01*
X24081134Y-28627019D01*
X24081128Y-28627022D01*
X24076977Y-28629567D01*
X24073277Y-28632726D01*
X24073266Y-28632735D01*
X23893308Y-28786434D01*
X23893301Y-28786440D01*
X23889601Y-28789601D01*
X23886440Y-28793301D01*
X23886434Y-28793308D01*
X23732735Y-28973266D01*
X23732726Y-28973277D01*
X23729567Y-28976977D01*
X23727022Y-28981128D01*
X23727019Y-28981134D01*
X23603364Y-29182921D01*
X23603360Y-29182927D01*
X23600816Y-29187080D01*
X23506517Y-29414738D01*
X23505382Y-29419462D01*
X23505379Y-29419474D01*
X23450129Y-29649611D01*
X23450127Y-29649617D01*
X23448993Y-29654345D01*
X23429659Y-29900000D01*
X20500000Y-29900000D01*
X20500000Y-26520000D01*
X23494859Y-26520000D01*
X23495129Y-26523295D01*
X23495130Y-26523298D01*
X23514652Y-26760754D01*
X23514653Y-26760763D01*
X23515070Y-26765829D01*
X23516308Y-26770761D01*
X23516310Y-26770768D01*
X23522894Y-26796979D01*
X23575159Y-27005055D01*
X23608314Y-27081308D01*
X23671485Y-27226591D01*
X23671488Y-27226596D01*
X23673514Y-27231256D01*
X23807492Y-27438355D01*
X23810912Y-27442114D01*
X23810914Y-27442116D01*
X23970075Y-27617031D01*
X23970078Y-27617034D01*
X23973496Y-27620790D01*
X24167068Y-27773664D01*
X24383008Y-27892869D01*
X24615518Y-27975206D01*
X24858354Y-28018461D01*
X25104993Y-28021475D01*
X25348813Y-27984165D01*
X25583266Y-27907534D01*
X25802054Y-27793640D01*
X25999303Y-27645542D01*
X26169714Y-27467216D01*
X26308712Y-27263452D01*
X26412564Y-27039722D01*
X26478481Y-26802035D01*
X26504692Y-26556774D01*
X26490493Y-26310525D01*
X26436266Y-26069901D01*
X26343468Y-25841366D01*
X26214589Y-25631055D01*
X26053092Y-25444618D01*
X25863313Y-25287061D01*
X25650350Y-25162615D01*
X25541015Y-25120864D01*
X25424678Y-25076439D01*
X25424672Y-25076437D01*
X25419921Y-25074623D01*
X25414941Y-25073609D01*
X25414935Y-25073608D01*
X25183200Y-25026461D01*
X25183197Y-25026460D01*
X25178215Y-25025447D01*
X25173136Y-25025260D01*
X25173130Y-25025260D01*
X24936800Y-25016594D01*
X24936797Y-25016594D01*
X24931722Y-25016408D01*
X24926691Y-25017052D01*
X24926679Y-25017053D01*
X24692106Y-25047103D01*
X24692093Y-25047105D01*
X24687064Y-25047750D01*
X24682206Y-25049207D01*
X24682194Y-25049210D01*
X24455674Y-25117170D01*
X24455669Y-25117171D01*
X24450809Y-25118630D01*
X24446252Y-25120862D01*
X24446248Y-25120864D01*
X24233873Y-25224905D01*
X24229303Y-25227144D01*
X24225164Y-25230095D01*
X24225156Y-25230101D01*
X24032638Y-25367423D01*
X24032631Y-25367428D01*
X24028495Y-25370379D01*
X24024899Y-25373962D01*
X24024890Y-25373970D01*
X23857386Y-25540890D01*
X23857377Y-25540900D01*
X23853777Y-25544488D01*
X23850807Y-25548620D01*
X23850802Y-25548627D01*
X23712813Y-25740659D01*
X23712807Y-25740667D01*
X23709842Y-25744795D01*
X23707587Y-25749355D01*
X23707586Y-25749359D01*
X23602812Y-25961353D01*
X23602809Y-25961359D01*
X23600555Y-25965921D01*
X23599077Y-25970784D01*
X23599074Y-25970793D01*
X23568963Y-26069901D01*
X23528851Y-26201926D01*
X23528187Y-26206963D01*
X23528186Y-26206972D01*
X23513885Y-26315605D01*
X23496656Y-26446474D01*
X23496575Y-26449766D01*
X23496575Y-26449773D01*
X23494939Y-26516691D01*
X23494939Y-26516707D01*
X23494859Y-26520000D01*
X20500000Y-26520000D01*
X20500000Y-20624000D01*
X20516613Y-20562000D01*
X20562000Y-20516613D01*
X20624000Y-20500000D01*
X23616601Y-20500000D01*
X23679302Y-20517021D01*
G37*
G04 #@! TD.AperFunction*
M02*
