%TF.GenerationSoftware,KiCad,Pcbnew,(7.0.0)*%
%TF.CreationDate,2024-09-08T09:31:17+01:00*%
%TF.ProjectId,wax_v1,7761785f-7631-42e6-9b69-6361645f7063,rev?*%
%TF.SameCoordinates,Original*%
%TF.FileFunction,Drillmap*%
%TF.FilePolarity,Positive*%
%FSLAX45Y45*%
G04 Gerber Fmt 4.5, Leading zero omitted, Abs format (unit mm)*
G04 Created by KiCad (PCBNEW (7.0.0)) date 2024-09-08 09:31:17*
%MOMM*%
%LPD*%
G01*
G04 APERTURE LIST*
%ADD10C,0.100000*%
%ADD11C,0.200000*%
G04 APERTURE END LIST*
D10*
X2000000Y-2000000D02*
X3000000Y-2000000D01*
X3000000Y-2000000D02*
X3000000Y-12400000D01*
X3000000Y-12400000D02*
X2000000Y-12400000D01*
X2000000Y-12400000D02*
X2000000Y-2000000D01*
D11*
X2242619Y-12698476D02*
X2242619Y-12498476D01*
X2242619Y-12498476D02*
X2290238Y-12498476D01*
X2290238Y-12498476D02*
X2318810Y-12508000D01*
X2318810Y-12508000D02*
X2337857Y-12527048D01*
X2337857Y-12527048D02*
X2347381Y-12546095D01*
X2347381Y-12546095D02*
X2356905Y-12584190D01*
X2356905Y-12584190D02*
X2356905Y-12612762D01*
X2356905Y-12612762D02*
X2347381Y-12650857D01*
X2347381Y-12650857D02*
X2337857Y-12669905D01*
X2337857Y-12669905D02*
X2318810Y-12688952D01*
X2318810Y-12688952D02*
X2290238Y-12698476D01*
X2290238Y-12698476D02*
X2242619Y-12698476D01*
X2442619Y-12698476D02*
X2442619Y-12565143D01*
X2442619Y-12603238D02*
X2452143Y-12584190D01*
X2452143Y-12584190D02*
X2461667Y-12574667D01*
X2461667Y-12574667D02*
X2480714Y-12565143D01*
X2480714Y-12565143D02*
X2499762Y-12565143D01*
X2566429Y-12698476D02*
X2566429Y-12565143D01*
X2566429Y-12498476D02*
X2556905Y-12508000D01*
X2556905Y-12508000D02*
X2566429Y-12517524D01*
X2566429Y-12517524D02*
X2575952Y-12508000D01*
X2575952Y-12508000D02*
X2566429Y-12498476D01*
X2566429Y-12498476D02*
X2566429Y-12517524D01*
X2690238Y-12698476D02*
X2671190Y-12688952D01*
X2671190Y-12688952D02*
X2661667Y-12669905D01*
X2661667Y-12669905D02*
X2661667Y-12498476D01*
X2795000Y-12698476D02*
X2775952Y-12688952D01*
X2775952Y-12688952D02*
X2766429Y-12669905D01*
X2766429Y-12669905D02*
X2766429Y-12498476D01*
X2991190Y-12698476D02*
X2991190Y-12498476D01*
X2991190Y-12498476D02*
X3057857Y-12641333D01*
X3057857Y-12641333D02*
X3124524Y-12498476D01*
X3124524Y-12498476D02*
X3124524Y-12698476D01*
X3305476Y-12698476D02*
X3305476Y-12593714D01*
X3305476Y-12593714D02*
X3295952Y-12574667D01*
X3295952Y-12574667D02*
X3276905Y-12565143D01*
X3276905Y-12565143D02*
X3238809Y-12565143D01*
X3238809Y-12565143D02*
X3219762Y-12574667D01*
X3305476Y-12688952D02*
X3286428Y-12698476D01*
X3286428Y-12698476D02*
X3238809Y-12698476D01*
X3238809Y-12698476D02*
X3219762Y-12688952D01*
X3219762Y-12688952D02*
X3210238Y-12669905D01*
X3210238Y-12669905D02*
X3210238Y-12650857D01*
X3210238Y-12650857D02*
X3219762Y-12631809D01*
X3219762Y-12631809D02*
X3238809Y-12622286D01*
X3238809Y-12622286D02*
X3286428Y-12622286D01*
X3286428Y-12622286D02*
X3305476Y-12612762D01*
X3400714Y-12565143D02*
X3400714Y-12765143D01*
X3400714Y-12574667D02*
X3419762Y-12565143D01*
X3419762Y-12565143D02*
X3457857Y-12565143D01*
X3457857Y-12565143D02*
X3476905Y-12574667D01*
X3476905Y-12574667D02*
X3486428Y-12584190D01*
X3486428Y-12584190D02*
X3495952Y-12603238D01*
X3495952Y-12603238D02*
X3495952Y-12660381D01*
X3495952Y-12660381D02*
X3486428Y-12679428D01*
X3486428Y-12679428D02*
X3476905Y-12688952D01*
X3476905Y-12688952D02*
X3457857Y-12698476D01*
X3457857Y-12698476D02*
X3419762Y-12698476D01*
X3419762Y-12698476D02*
X3400714Y-12688952D01*
X3581667Y-12679428D02*
X3591190Y-12688952D01*
X3591190Y-12688952D02*
X3581667Y-12698476D01*
X3581667Y-12698476D02*
X3572143Y-12688952D01*
X3572143Y-12688952D02*
X3581667Y-12679428D01*
X3581667Y-12679428D02*
X3581667Y-12698476D01*
X3581667Y-12574667D02*
X3591190Y-12584190D01*
X3591190Y-12584190D02*
X3581667Y-12593714D01*
X3581667Y-12593714D02*
X3572143Y-12584190D01*
X3572143Y-12584190D02*
X3581667Y-12574667D01*
X3581667Y-12574667D02*
X3581667Y-12593714D01*
M02*
