M48
; DRILL file {KiCad (7.0.0)} date Sun Sep  8 09:31:16 2024
; FORMAT={-:-/ absolute / metric / decimal}
; #@! TF.CreationDate,2024-09-08T09:31:16+01:00
; #@! TF.GenerationSoftware,Kicad,Pcbnew,(7.0.0)
; #@! TF.FileFunction,Plated,1,2,PTH
FMAT,2
METRIC
; #@! TA.AperFunction,Plated,PTH,ComponentDrill
T1C1.220
; #@! TA.AperFunction,Plated,PTH,ComponentDrill
T2C1.420
; #@! TA.AperFunction,Plated,PTH,ComponentDrill
T3C1.430
%
G90
G05
T1
X25.0Y-33.0
X25.0Y-59.0
X25.0Y-84.98
X25.0Y-110.96
T2
X25.0Y-29.9
X25.0Y-36.12
X25.0Y-55.9
X25.0Y-62.1
X25.0Y-81.88
X25.0Y-88.08
X25.0Y-107.86
X25.0Y-114.05
T3
X25.0Y-21.6
X25.0Y-44.42
X25.0Y-47.6
X25.0Y-70.4
X25.0Y-73.58
X25.0Y-96.38
X25.0Y-99.56
X25.0Y-122.35
T0
M30
