G04 #@! TF.GenerationSoftware,KiCad,Pcbnew,(7.0.0)*
G04 #@! TF.CreationDate,2024-09-08T09:31:03+01:00*
G04 #@! TF.ProjectId,wax_v1,7761785f-7631-42e6-9b69-6361645f7063,rev?*
G04 #@! TF.SameCoordinates,Original*
G04 #@! TF.FileFunction,Legend,Bot*
G04 #@! TF.FilePolarity,Positive*
%FSLAX46Y46*%
G04 Gerber Fmt 4.6, Leading zero omitted, Abs format (unit mm)*
G04 Created by KiCad (PCBNEW (7.0.0)) date 2024-09-08 09:31:03*
%MOMM*%
%LPD*%
G01*
G04 APERTURE LIST*
%ADD10C,0.150000*%
%ADD11C,2.130000*%
%ADD12R,1.930000X1.830000*%
G04 APERTURE END LIST*
D10*
X22217619Y-122176190D02*
X21503333Y-122176190D01*
X21503333Y-122176190D02*
X21360476Y-122223809D01*
X21360476Y-122223809D02*
X21265238Y-122319047D01*
X21265238Y-122319047D02*
X21217619Y-122461904D01*
X21217619Y-122461904D02*
X21217619Y-122557142D01*
X21217619Y-121223809D02*
X21217619Y-121699999D01*
X21217619Y-121699999D02*
X22217619Y-121699999D01*
X21312857Y-120319047D02*
X21265238Y-120366666D01*
X21265238Y-120366666D02*
X21217619Y-120509523D01*
X21217619Y-120509523D02*
X21217619Y-120604761D01*
X21217619Y-120604761D02*
X21265238Y-120747618D01*
X21265238Y-120747618D02*
X21360476Y-120842856D01*
X21360476Y-120842856D02*
X21455714Y-120890475D01*
X21455714Y-120890475D02*
X21646190Y-120938094D01*
X21646190Y-120938094D02*
X21789047Y-120938094D01*
X21789047Y-120938094D02*
X21979523Y-120890475D01*
X21979523Y-120890475D02*
X22074761Y-120842856D01*
X22074761Y-120842856D02*
X22170000Y-120747618D01*
X22170000Y-120747618D02*
X22217619Y-120604761D01*
X22217619Y-120604761D02*
X22217619Y-120509523D01*
X22217619Y-120509523D02*
X22170000Y-120366666D01*
X22170000Y-120366666D02*
X22122380Y-120319047D01*
X22217619Y-119604761D02*
X21503333Y-119604761D01*
X21503333Y-119604761D02*
X21360476Y-119652380D01*
X21360476Y-119652380D02*
X21265238Y-119747618D01*
X21265238Y-119747618D02*
X21217619Y-119890475D01*
X21217619Y-119890475D02*
X21217619Y-119985713D01*
X21217619Y-118652380D02*
X21217619Y-119128570D01*
X21217619Y-119128570D02*
X22217619Y-119128570D01*
X21312857Y-117747618D02*
X21265238Y-117795237D01*
X21265238Y-117795237D02*
X21217619Y-117938094D01*
X21217619Y-117938094D02*
X21217619Y-118033332D01*
X21217619Y-118033332D02*
X21265238Y-118176189D01*
X21265238Y-118176189D02*
X21360476Y-118271427D01*
X21360476Y-118271427D02*
X21455714Y-118319046D01*
X21455714Y-118319046D02*
X21646190Y-118366665D01*
X21646190Y-118366665D02*
X21789047Y-118366665D01*
X21789047Y-118366665D02*
X21979523Y-118319046D01*
X21979523Y-118319046D02*
X22074761Y-118271427D01*
X22074761Y-118271427D02*
X22170000Y-118176189D01*
X22170000Y-118176189D02*
X22217619Y-118033332D01*
X22217619Y-118033332D02*
X22217619Y-117938094D01*
X22217619Y-117938094D02*
X22170000Y-117795237D01*
X22170000Y-117795237D02*
X22122380Y-117747618D01*
X22217619Y-117033332D02*
X21503333Y-117033332D01*
X21503333Y-117033332D02*
X21360476Y-117080951D01*
X21360476Y-117080951D02*
X21265238Y-117176189D01*
X21265238Y-117176189D02*
X21217619Y-117319046D01*
X21217619Y-117319046D02*
X21217619Y-117414284D01*
X21217619Y-116080951D02*
X21217619Y-116557141D01*
X21217619Y-116557141D02*
X22217619Y-116557141D01*
X21312857Y-115176189D02*
X21265238Y-115223808D01*
X21265238Y-115223808D02*
X21217619Y-115366665D01*
X21217619Y-115366665D02*
X21217619Y-115461903D01*
X21217619Y-115461903D02*
X21265238Y-115604760D01*
X21265238Y-115604760D02*
X21360476Y-115699998D01*
X21360476Y-115699998D02*
X21455714Y-115747617D01*
X21455714Y-115747617D02*
X21646190Y-115795236D01*
X21646190Y-115795236D02*
X21789047Y-115795236D01*
X21789047Y-115795236D02*
X21979523Y-115747617D01*
X21979523Y-115747617D02*
X22074761Y-115699998D01*
X22074761Y-115699998D02*
X22170000Y-115604760D01*
X22170000Y-115604760D02*
X22217619Y-115461903D01*
X22217619Y-115461903D02*
X22217619Y-115366665D01*
X22217619Y-115366665D02*
X22170000Y-115223808D01*
X22170000Y-115223808D02*
X22122380Y-115176189D01*
X22217619Y-114461903D02*
X21503333Y-114461903D01*
X21503333Y-114461903D02*
X21360476Y-114509522D01*
X21360476Y-114509522D02*
X21265238Y-114604760D01*
X21265238Y-114604760D02*
X21217619Y-114747617D01*
X21217619Y-114747617D02*
X21217619Y-114842855D01*
X21217619Y-113509522D02*
X21217619Y-113985712D01*
X21217619Y-113985712D02*
X22217619Y-113985712D01*
X21312857Y-112604760D02*
X21265238Y-112652379D01*
X21265238Y-112652379D02*
X21217619Y-112795236D01*
X21217619Y-112795236D02*
X21217619Y-112890474D01*
X21217619Y-112890474D02*
X21265238Y-113033331D01*
X21265238Y-113033331D02*
X21360476Y-113128569D01*
X21360476Y-113128569D02*
X21455714Y-113176188D01*
X21455714Y-113176188D02*
X21646190Y-113223807D01*
X21646190Y-113223807D02*
X21789047Y-113223807D01*
X21789047Y-113223807D02*
X21979523Y-113176188D01*
X21979523Y-113176188D02*
X22074761Y-113128569D01*
X22074761Y-113128569D02*
X22170000Y-113033331D01*
X22170000Y-113033331D02*
X22217619Y-112890474D01*
X22217619Y-112890474D02*
X22217619Y-112795236D01*
X22217619Y-112795236D02*
X22170000Y-112652379D01*
X22170000Y-112652379D02*
X22122380Y-112604760D01*
X21884285Y-92657142D02*
X21217619Y-92466666D01*
X21217619Y-92466666D02*
X21693809Y-92276190D01*
X21693809Y-92276190D02*
X21217619Y-92085714D01*
X21217619Y-92085714D02*
X21884285Y-91895238D01*
X21217619Y-91085714D02*
X21741428Y-91085714D01*
X21741428Y-91085714D02*
X21836666Y-91133333D01*
X21836666Y-91133333D02*
X21884285Y-91228571D01*
X21884285Y-91228571D02*
X21884285Y-91419047D01*
X21884285Y-91419047D02*
X21836666Y-91514285D01*
X21265238Y-91085714D02*
X21217619Y-91180952D01*
X21217619Y-91180952D02*
X21217619Y-91419047D01*
X21217619Y-91419047D02*
X21265238Y-91514285D01*
X21265238Y-91514285D02*
X21360476Y-91561904D01*
X21360476Y-91561904D02*
X21455714Y-91561904D01*
X21455714Y-91561904D02*
X21550952Y-91514285D01*
X21550952Y-91514285D02*
X21598571Y-91419047D01*
X21598571Y-91419047D02*
X21598571Y-91180952D01*
X21598571Y-91180952D02*
X21646190Y-91085714D01*
X21217619Y-90704761D02*
X21884285Y-90180952D01*
X21884285Y-90704761D02*
X21217619Y-90180952D01*
X21122380Y-90038095D02*
X21122380Y-89276190D01*
X21884285Y-89133332D02*
X21217619Y-88895237D01*
X21217619Y-88895237D02*
X21884285Y-88657142D01*
X21217619Y-87752380D02*
X21217619Y-88323808D01*
X21217619Y-88038094D02*
X22217619Y-88038094D01*
X22217619Y-88038094D02*
X22074761Y-88133332D01*
X22074761Y-88133332D02*
X21979523Y-88228570D01*
X21979523Y-88228570D02*
X21931904Y-88323808D01*
X21312857Y-106990476D02*
X21265238Y-107038095D01*
X21265238Y-107038095D02*
X21217619Y-107180952D01*
X21217619Y-107180952D02*
X21217619Y-107276190D01*
X21217619Y-107276190D02*
X21265238Y-107419047D01*
X21265238Y-107419047D02*
X21360476Y-107514285D01*
X21360476Y-107514285D02*
X21455714Y-107561904D01*
X21455714Y-107561904D02*
X21646190Y-107609523D01*
X21646190Y-107609523D02*
X21789047Y-107609523D01*
X21789047Y-107609523D02*
X21979523Y-107561904D01*
X21979523Y-107561904D02*
X22074761Y-107514285D01*
X22074761Y-107514285D02*
X22170000Y-107419047D01*
X22170000Y-107419047D02*
X22217619Y-107276190D01*
X22217619Y-107276190D02*
X22217619Y-107180952D01*
X22217619Y-107180952D02*
X22170000Y-107038095D01*
X22170000Y-107038095D02*
X22122380Y-106990476D01*
X21217619Y-106133333D02*
X21741428Y-106133333D01*
X21741428Y-106133333D02*
X21836666Y-106180952D01*
X21836666Y-106180952D02*
X21884285Y-106276190D01*
X21884285Y-106276190D02*
X21884285Y-106466666D01*
X21884285Y-106466666D02*
X21836666Y-106561904D01*
X21265238Y-106133333D02*
X21217619Y-106228571D01*
X21217619Y-106228571D02*
X21217619Y-106466666D01*
X21217619Y-106466666D02*
X21265238Y-106561904D01*
X21265238Y-106561904D02*
X21360476Y-106609523D01*
X21360476Y-106609523D02*
X21455714Y-106609523D01*
X21455714Y-106609523D02*
X21550952Y-106561904D01*
X21550952Y-106561904D02*
X21598571Y-106466666D01*
X21598571Y-106466666D02*
X21598571Y-106228571D01*
X21598571Y-106228571D02*
X21646190Y-106133333D01*
X21217619Y-105657142D02*
X21884285Y-105657142D01*
X22217619Y-105657142D02*
X22170000Y-105704761D01*
X22170000Y-105704761D02*
X22122380Y-105657142D01*
X22122380Y-105657142D02*
X22170000Y-105609523D01*
X22170000Y-105609523D02*
X22217619Y-105657142D01*
X22217619Y-105657142D02*
X22122380Y-105657142D01*
X21217619Y-105180952D02*
X21884285Y-105180952D01*
X21693809Y-105180952D02*
X21789047Y-105133333D01*
X21789047Y-105133333D02*
X21836666Y-105085714D01*
X21836666Y-105085714D02*
X21884285Y-104990476D01*
X21884285Y-104990476D02*
X21884285Y-104895238D01*
X21884285Y-104561904D02*
X21217619Y-104561904D01*
X21789047Y-104561904D02*
X21836666Y-104514285D01*
X21836666Y-104514285D02*
X21884285Y-104419047D01*
X21884285Y-104419047D02*
X21884285Y-104276190D01*
X21884285Y-104276190D02*
X21836666Y-104180952D01*
X21836666Y-104180952D02*
X21741428Y-104133333D01*
X21741428Y-104133333D02*
X21217619Y-104133333D01*
X21265238Y-103704761D02*
X21217619Y-103561904D01*
X21217619Y-103561904D02*
X21217619Y-103323809D01*
X21217619Y-103323809D02*
X21265238Y-103228571D01*
X21265238Y-103228571D02*
X21312857Y-103180952D01*
X21312857Y-103180952D02*
X21408095Y-103133333D01*
X21408095Y-103133333D02*
X21503333Y-103133333D01*
X21503333Y-103133333D02*
X21598571Y-103180952D01*
X21598571Y-103180952D02*
X21646190Y-103228571D01*
X21646190Y-103228571D02*
X21693809Y-103323809D01*
X21693809Y-103323809D02*
X21741428Y-103514285D01*
X21741428Y-103514285D02*
X21789047Y-103609523D01*
X21789047Y-103609523D02*
X21836666Y-103657142D01*
X21836666Y-103657142D02*
X21931904Y-103704761D01*
X21931904Y-103704761D02*
X22027142Y-103704761D01*
X22027142Y-103704761D02*
X22122380Y-103657142D01*
X22122380Y-103657142D02*
X22170000Y-103609523D01*
X22170000Y-103609523D02*
X22217619Y-103514285D01*
X22217619Y-103514285D02*
X22217619Y-103276190D01*
X22217619Y-103276190D02*
X22170000Y-103133333D01*
X21884285Y-102799999D02*
X21217619Y-102561904D01*
X21884285Y-102323809D02*
X21217619Y-102561904D01*
X21217619Y-102561904D02*
X20979523Y-102657142D01*
X20979523Y-102657142D02*
X20931904Y-102704761D01*
X20931904Y-102704761D02*
X20884285Y-102799999D01*
X21884285Y-101942856D02*
X21217619Y-101942856D01*
X21789047Y-101942856D02*
X21836666Y-101895237D01*
X21836666Y-101895237D02*
X21884285Y-101799999D01*
X21884285Y-101799999D02*
X21884285Y-101657142D01*
X21884285Y-101657142D02*
X21836666Y-101561904D01*
X21836666Y-101561904D02*
X21741428Y-101514285D01*
X21741428Y-101514285D02*
X21217619Y-101514285D01*
X21884285Y-101180951D02*
X21884285Y-100799999D01*
X22217619Y-101038094D02*
X21360476Y-101038094D01*
X21360476Y-101038094D02*
X21265238Y-100990475D01*
X21265238Y-100990475D02*
X21217619Y-100895237D01*
X21217619Y-100895237D02*
X21217619Y-100799999D01*
X21217619Y-100466665D02*
X22217619Y-100466665D01*
X21217619Y-100038094D02*
X21741428Y-100038094D01*
X21741428Y-100038094D02*
X21836666Y-100085713D01*
X21836666Y-100085713D02*
X21884285Y-100180951D01*
X21884285Y-100180951D02*
X21884285Y-100323808D01*
X21884285Y-100323808D02*
X21836666Y-100419046D01*
X21836666Y-100419046D02*
X21789047Y-100466665D01*
X21265238Y-99180951D02*
X21217619Y-99276189D01*
X21217619Y-99276189D02*
X21217619Y-99466665D01*
X21217619Y-99466665D02*
X21265238Y-99561903D01*
X21265238Y-99561903D02*
X21360476Y-99609522D01*
X21360476Y-99609522D02*
X21741428Y-99609522D01*
X21741428Y-99609522D02*
X21836666Y-99561903D01*
X21836666Y-99561903D02*
X21884285Y-99466665D01*
X21884285Y-99466665D02*
X21884285Y-99276189D01*
X21884285Y-99276189D02*
X21836666Y-99180951D01*
X21836666Y-99180951D02*
X21741428Y-99133332D01*
X21741428Y-99133332D02*
X21646190Y-99133332D01*
X21646190Y-99133332D02*
X21550952Y-99609522D01*
X21265238Y-98752379D02*
X21217619Y-98657141D01*
X21217619Y-98657141D02*
X21217619Y-98466665D01*
X21217619Y-98466665D02*
X21265238Y-98371427D01*
X21265238Y-98371427D02*
X21360476Y-98323808D01*
X21360476Y-98323808D02*
X21408095Y-98323808D01*
X21408095Y-98323808D02*
X21503333Y-98371427D01*
X21503333Y-98371427D02*
X21550952Y-98466665D01*
X21550952Y-98466665D02*
X21550952Y-98609522D01*
X21550952Y-98609522D02*
X21598571Y-98704760D01*
X21598571Y-98704760D02*
X21693809Y-98752379D01*
X21693809Y-98752379D02*
X21741428Y-98752379D01*
X21741428Y-98752379D02*
X21836666Y-98704760D01*
X21836666Y-98704760D02*
X21884285Y-98609522D01*
X21884285Y-98609522D02*
X21884285Y-98466665D01*
X21884285Y-98466665D02*
X21836666Y-98371427D01*
X21217619Y-97895236D02*
X21884285Y-97895236D01*
X22217619Y-97895236D02*
X22170000Y-97942855D01*
X22170000Y-97942855D02*
X22122380Y-97895236D01*
X22122380Y-97895236D02*
X22170000Y-97847617D01*
X22170000Y-97847617D02*
X22217619Y-97895236D01*
X22217619Y-97895236D02*
X22122380Y-97895236D01*
X21265238Y-97466665D02*
X21217619Y-97371427D01*
X21217619Y-97371427D02*
X21217619Y-97180951D01*
X21217619Y-97180951D02*
X21265238Y-97085713D01*
X21265238Y-97085713D02*
X21360476Y-97038094D01*
X21360476Y-97038094D02*
X21408095Y-97038094D01*
X21408095Y-97038094D02*
X21503333Y-97085713D01*
X21503333Y-97085713D02*
X21550952Y-97180951D01*
X21550952Y-97180951D02*
X21550952Y-97323808D01*
X21550952Y-97323808D02*
X21598571Y-97419046D01*
X21598571Y-97419046D02*
X21693809Y-97466665D01*
X21693809Y-97466665D02*
X21741428Y-97466665D01*
X21741428Y-97466665D02*
X21836666Y-97419046D01*
X21836666Y-97419046D02*
X21884285Y-97323808D01*
X21884285Y-97323808D02*
X21884285Y-97180951D01*
X21884285Y-97180951D02*
X21836666Y-97085713D01*
%LPC*%
D11*
X25000000Y-122350000D03*
X25000000Y-114050000D03*
X25000000Y-96380000D03*
X25000000Y-88080000D03*
X25000000Y-70400000D03*
X25000000Y-62100000D03*
X25000000Y-44420000D03*
X25000000Y-36120000D03*
D12*
X24999999Y-58999999D03*
D11*
X25000000Y-47600000D03*
X25000000Y-55900000D03*
D12*
X24999999Y-32999999D03*
D11*
X25000000Y-21600000D03*
X25000000Y-29900000D03*
D12*
X24999999Y-110959999D03*
D11*
X25000000Y-99560000D03*
X25000000Y-107860000D03*
D12*
X24999999Y-84979999D03*
D11*
X25000000Y-73580000D03*
X25000000Y-81880000D03*
M02*
