G04 #@! TF.GenerationSoftware,KiCad,Pcbnew,(7.0.0)*
G04 #@! TF.CreationDate,2024-09-08T09:31:03+01:00*
G04 #@! TF.ProjectId,wax_v1,7761785f-7631-42e6-9b69-6361645f7063,rev?*
G04 #@! TF.SameCoordinates,Original*
G04 #@! TF.FileFunction,Legend,Top*
G04 #@! TF.FilePolarity,Positive*
%FSLAX46Y46*%
G04 Gerber Fmt 4.6, Leading zero omitted, Abs format (unit mm)*
G04 Created by KiCad (PCBNEW (7.0.0)) date 2024-09-08 09:31:03*
%MOMM*%
%LPD*%
G01*
G04 APERTURE LIST*
%ADD10C,0.150000*%
%ADD11C,0.120000*%
%ADD12C,2.130000*%
%ADD13R,1.930000X1.830000*%
G04 APERTURE END LIST*
D10*
X20866666Y-111367380D02*
X20866666Y-112081666D01*
X20866666Y-112081666D02*
X20819047Y-112224523D01*
X20819047Y-112224523D02*
X20723809Y-112319761D01*
X20723809Y-112319761D02*
X20580952Y-112367380D01*
X20580952Y-112367380D02*
X20485714Y-112367380D01*
X21485714Y-111795952D02*
X21390476Y-111748333D01*
X21390476Y-111748333D02*
X21342857Y-111700714D01*
X21342857Y-111700714D02*
X21295238Y-111605476D01*
X21295238Y-111605476D02*
X21295238Y-111557857D01*
X21295238Y-111557857D02*
X21342857Y-111462619D01*
X21342857Y-111462619D02*
X21390476Y-111415000D01*
X21390476Y-111415000D02*
X21485714Y-111367380D01*
X21485714Y-111367380D02*
X21676190Y-111367380D01*
X21676190Y-111367380D02*
X21771428Y-111415000D01*
X21771428Y-111415000D02*
X21819047Y-111462619D01*
X21819047Y-111462619D02*
X21866666Y-111557857D01*
X21866666Y-111557857D02*
X21866666Y-111605476D01*
X21866666Y-111605476D02*
X21819047Y-111700714D01*
X21819047Y-111700714D02*
X21771428Y-111748333D01*
X21771428Y-111748333D02*
X21676190Y-111795952D01*
X21676190Y-111795952D02*
X21485714Y-111795952D01*
X21485714Y-111795952D02*
X21390476Y-111843571D01*
X21390476Y-111843571D02*
X21342857Y-111891190D01*
X21342857Y-111891190D02*
X21295238Y-111986428D01*
X21295238Y-111986428D02*
X21295238Y-112176904D01*
X21295238Y-112176904D02*
X21342857Y-112272142D01*
X21342857Y-112272142D02*
X21390476Y-112319761D01*
X21390476Y-112319761D02*
X21485714Y-112367380D01*
X21485714Y-112367380D02*
X21676190Y-112367380D01*
X21676190Y-112367380D02*
X21771428Y-112319761D01*
X21771428Y-112319761D02*
X21819047Y-112272142D01*
X21819047Y-112272142D02*
X21866666Y-112176904D01*
X21866666Y-112176904D02*
X21866666Y-111986428D01*
X21866666Y-111986428D02*
X21819047Y-111891190D01*
X21819047Y-111891190D02*
X21771428Y-111843571D01*
X21771428Y-111843571D02*
X21676190Y-111795952D01*
X20866666Y-85427380D02*
X20866666Y-86141666D01*
X20866666Y-86141666D02*
X20819047Y-86284523D01*
X20819047Y-86284523D02*
X20723809Y-86379761D01*
X20723809Y-86379761D02*
X20580952Y-86427380D01*
X20580952Y-86427380D02*
X20485714Y-86427380D01*
X21771428Y-85427380D02*
X21580952Y-85427380D01*
X21580952Y-85427380D02*
X21485714Y-85475000D01*
X21485714Y-85475000D02*
X21438095Y-85522619D01*
X21438095Y-85522619D02*
X21342857Y-85665476D01*
X21342857Y-85665476D02*
X21295238Y-85855952D01*
X21295238Y-85855952D02*
X21295238Y-86236904D01*
X21295238Y-86236904D02*
X21342857Y-86332142D01*
X21342857Y-86332142D02*
X21390476Y-86379761D01*
X21390476Y-86379761D02*
X21485714Y-86427380D01*
X21485714Y-86427380D02*
X21676190Y-86427380D01*
X21676190Y-86427380D02*
X21771428Y-86379761D01*
X21771428Y-86379761D02*
X21819047Y-86332142D01*
X21819047Y-86332142D02*
X21866666Y-86236904D01*
X21866666Y-86236904D02*
X21866666Y-85998809D01*
X21866666Y-85998809D02*
X21819047Y-85903571D01*
X21819047Y-85903571D02*
X21771428Y-85855952D01*
X21771428Y-85855952D02*
X21676190Y-85808333D01*
X21676190Y-85808333D02*
X21485714Y-85808333D01*
X21485714Y-85808333D02*
X21390476Y-85855952D01*
X21390476Y-85855952D02*
X21342857Y-85903571D01*
X21342857Y-85903571D02*
X21295238Y-85998809D01*
X20966666Y-59447380D02*
X20966666Y-60161666D01*
X20966666Y-60161666D02*
X20919047Y-60304523D01*
X20919047Y-60304523D02*
X20823809Y-60399761D01*
X20823809Y-60399761D02*
X20680952Y-60447380D01*
X20680952Y-60447380D02*
X20585714Y-60447380D01*
X21871428Y-59780714D02*
X21871428Y-60447380D01*
X21633333Y-59399761D02*
X21395238Y-60114047D01*
X21395238Y-60114047D02*
X22014285Y-60114047D01*
X20866666Y-33467380D02*
X20866666Y-34181666D01*
X20866666Y-34181666D02*
X20819047Y-34324523D01*
X20819047Y-34324523D02*
X20723809Y-34419761D01*
X20723809Y-34419761D02*
X20580952Y-34467380D01*
X20580952Y-34467380D02*
X20485714Y-34467380D01*
X21295238Y-33562619D02*
X21342857Y-33515000D01*
X21342857Y-33515000D02*
X21438095Y-33467380D01*
X21438095Y-33467380D02*
X21676190Y-33467380D01*
X21676190Y-33467380D02*
X21771428Y-33515000D01*
X21771428Y-33515000D02*
X21819047Y-33562619D01*
X21819047Y-33562619D02*
X21866666Y-33657857D01*
X21866666Y-33657857D02*
X21866666Y-33753095D01*
X21866666Y-33753095D02*
X21819047Y-33895952D01*
X21819047Y-33895952D02*
X21247619Y-34467380D01*
X21247619Y-34467380D02*
X21866666Y-34467380D01*
X28466666Y-57367380D02*
X28466666Y-58081666D01*
X28466666Y-58081666D02*
X28419047Y-58224523D01*
X28419047Y-58224523D02*
X28323809Y-58319761D01*
X28323809Y-58319761D02*
X28180952Y-58367380D01*
X28180952Y-58367380D02*
X28085714Y-58367380D01*
X28847619Y-57367380D02*
X29466666Y-57367380D01*
X29466666Y-57367380D02*
X29133333Y-57748333D01*
X29133333Y-57748333D02*
X29276190Y-57748333D01*
X29276190Y-57748333D02*
X29371428Y-57795952D01*
X29371428Y-57795952D02*
X29419047Y-57843571D01*
X29419047Y-57843571D02*
X29466666Y-57938809D01*
X29466666Y-57938809D02*
X29466666Y-58176904D01*
X29466666Y-58176904D02*
X29419047Y-58272142D01*
X29419047Y-58272142D02*
X29371428Y-58319761D01*
X29371428Y-58319761D02*
X29276190Y-58367380D01*
X29276190Y-58367380D02*
X28990476Y-58367380D01*
X28990476Y-58367380D02*
X28895238Y-58319761D01*
X28895238Y-58319761D02*
X28847619Y-58272142D01*
X28566666Y-31287380D02*
X28566666Y-32001666D01*
X28566666Y-32001666D02*
X28519047Y-32144523D01*
X28519047Y-32144523D02*
X28423809Y-32239761D01*
X28423809Y-32239761D02*
X28280952Y-32287380D01*
X28280952Y-32287380D02*
X28185714Y-32287380D01*
X29566666Y-32287380D02*
X28995238Y-32287380D01*
X29280952Y-32287380D02*
X29280952Y-31287380D01*
X29280952Y-31287380D02*
X29185714Y-31430238D01*
X29185714Y-31430238D02*
X29090476Y-31525476D01*
X29090476Y-31525476D02*
X28995238Y-31573095D01*
X28466666Y-109247380D02*
X28466666Y-109961666D01*
X28466666Y-109961666D02*
X28419047Y-110104523D01*
X28419047Y-110104523D02*
X28323809Y-110199761D01*
X28323809Y-110199761D02*
X28180952Y-110247380D01*
X28180952Y-110247380D02*
X28085714Y-110247380D01*
X28847619Y-109247380D02*
X29514285Y-109247380D01*
X29514285Y-109247380D02*
X29085714Y-110247380D01*
X28466666Y-83267380D02*
X28466666Y-83981666D01*
X28466666Y-83981666D02*
X28419047Y-84124523D01*
X28419047Y-84124523D02*
X28323809Y-84219761D01*
X28323809Y-84219761D02*
X28180952Y-84267380D01*
X28180952Y-84267380D02*
X28085714Y-84267380D01*
X29419047Y-83267380D02*
X28942857Y-83267380D01*
X28942857Y-83267380D02*
X28895238Y-83743571D01*
X28895238Y-83743571D02*
X28942857Y-83695952D01*
X28942857Y-83695952D02*
X29038095Y-83648333D01*
X29038095Y-83648333D02*
X29276190Y-83648333D01*
X29276190Y-83648333D02*
X29371428Y-83695952D01*
X29371428Y-83695952D02*
X29419047Y-83743571D01*
X29419047Y-83743571D02*
X29466666Y-83838809D01*
X29466666Y-83838809D02*
X29466666Y-84076904D01*
X29466666Y-84076904D02*
X29419047Y-84172142D01*
X29419047Y-84172142D02*
X29371428Y-84219761D01*
X29371428Y-84219761D02*
X29276190Y-84267380D01*
X29276190Y-84267380D02*
X29038095Y-84267380D01*
X29038095Y-84267380D02*
X28942857Y-84219761D01*
X28942857Y-84219761D02*
X28895238Y-84172142D01*
D11*
X20500000Y-112930000D02*
X20500000Y-123430000D01*
X24200000Y-123430000D02*
X20500000Y-123430000D01*
X24280000Y-112930000D02*
X20500000Y-112930000D01*
X29500000Y-112930000D02*
X25720000Y-112930000D01*
X29500000Y-112930000D02*
X29500000Y-123430000D01*
X29500000Y-123430000D02*
X25800000Y-123430000D01*
X26800000Y-117430000D02*
G75*
G03*
X26800000Y-117430000I-1800000J0D01*
G01*
X20500000Y-86960000D02*
X20500000Y-97460000D01*
X24200000Y-97460000D02*
X20500000Y-97460000D01*
X24280000Y-86960000D02*
X20500000Y-86960000D01*
X29500000Y-86960000D02*
X25720000Y-86960000D01*
X29500000Y-86960000D02*
X29500000Y-97460000D01*
X29500000Y-97460000D02*
X25800000Y-97460000D01*
X26800000Y-91460000D02*
G75*
G03*
X26800000Y-91460000I-1800000J0D01*
G01*
X20500000Y-60980000D02*
X20500000Y-71480000D01*
X24200000Y-71480000D02*
X20500000Y-71480000D01*
X24280000Y-60980000D02*
X20500000Y-60980000D01*
X29500000Y-60980000D02*
X25720000Y-60980000D01*
X29500000Y-60980000D02*
X29500000Y-71480000D01*
X29500000Y-71480000D02*
X25800000Y-71480000D01*
X26800000Y-65480000D02*
G75*
G03*
X26800000Y-65480000I-1800000J0D01*
G01*
X20500000Y-35000000D02*
X20500000Y-45500000D01*
X24200000Y-45500000D02*
X20500000Y-45500000D01*
X24280000Y-35000000D02*
X20500000Y-35000000D01*
X29500000Y-35000000D02*
X25720000Y-35000000D01*
X29500000Y-35000000D02*
X29500000Y-45500000D01*
X29500000Y-45500000D02*
X25800000Y-45500000D01*
X26800000Y-39500000D02*
G75*
G03*
X26800000Y-39500000I-1800000J0D01*
G01*
X29500000Y-57020000D02*
X29500000Y-46520000D01*
X26230000Y-60170000D02*
X26230000Y-59370000D01*
X26230000Y-60170000D02*
X25370000Y-60170000D01*
X25800000Y-46520000D02*
X29500000Y-46520000D01*
X25720000Y-57020000D02*
X29500000Y-57020000D01*
X20500000Y-57020000D02*
X24280000Y-57020000D01*
X20500000Y-57020000D02*
X20500000Y-46520000D01*
X20500000Y-46520000D02*
X24200000Y-46520000D01*
X26800000Y-52520000D02*
G75*
G03*
X26800000Y-52520000I-1800000J0D01*
G01*
X29500000Y-31020000D02*
X29500000Y-20520000D01*
X26230000Y-34170000D02*
X26230000Y-33370000D01*
X26230000Y-34170000D02*
X25370000Y-34170000D01*
X25800000Y-20520000D02*
X29500000Y-20520000D01*
X25720000Y-31020000D02*
X29500000Y-31020000D01*
X20500000Y-31020000D02*
X24280000Y-31020000D01*
X20500000Y-31020000D02*
X20500000Y-20520000D01*
X20500000Y-20520000D02*
X24200000Y-20520000D01*
X26800000Y-26520000D02*
G75*
G03*
X26800000Y-26520000I-1800000J0D01*
G01*
X29500000Y-108980000D02*
X29500000Y-98480000D01*
X26230000Y-112130000D02*
X26230000Y-111330000D01*
X26230000Y-112130000D02*
X25370000Y-112130000D01*
X25800000Y-98480000D02*
X29500000Y-98480000D01*
X25720000Y-108980000D02*
X29500000Y-108980000D01*
X20500000Y-108980000D02*
X24280000Y-108980000D01*
X20500000Y-108980000D02*
X20500000Y-98480000D01*
X20500000Y-98480000D02*
X24200000Y-98480000D01*
X26800000Y-104480000D02*
G75*
G03*
X26800000Y-104480000I-1800000J0D01*
G01*
X29500000Y-83000000D02*
X29500000Y-72500000D01*
X26230000Y-86150000D02*
X26230000Y-85350000D01*
X26230000Y-86150000D02*
X25370000Y-86150000D01*
X25800000Y-72500000D02*
X29500000Y-72500000D01*
X25720000Y-83000000D02*
X29500000Y-83000000D01*
X20500000Y-83000000D02*
X24280000Y-83000000D01*
X20500000Y-83000000D02*
X20500000Y-72500000D01*
X20500000Y-72500000D02*
X24200000Y-72500000D01*
X26800000Y-78500000D02*
G75*
G03*
X26800000Y-78500000I-1800000J0D01*
G01*
%LPC*%
D12*
X25000000Y-122350000D03*
X25000000Y-114050000D03*
X25000000Y-96380000D03*
X25000000Y-88080000D03*
X25000000Y-70400000D03*
X25000000Y-62100000D03*
X25000000Y-44420000D03*
X25000000Y-36120000D03*
D13*
X24999999Y-58999999D03*
D12*
X25000000Y-47600000D03*
X25000000Y-55900000D03*
D13*
X24999999Y-32999999D03*
D12*
X25000000Y-21600000D03*
X25000000Y-29900000D03*
D13*
X24999999Y-110959999D03*
D12*
X25000000Y-99560000D03*
X25000000Y-107860000D03*
D13*
X24999999Y-84979999D03*
D12*
X25000000Y-73580000D03*
X25000000Y-81880000D03*
M02*
