G04 #@! TF.GenerationSoftware,KiCad,Pcbnew,(7.0.0)*
G04 #@! TF.CreationDate,2024-09-08T08:40:15+01:00*
G04 #@! TF.ProjectId,wax_v1_FP,7761785f-7631-45f4-9650-2e6b69636164,rev?*
G04 #@! TF.SameCoordinates,Original*
G04 #@! TF.FileFunction,Copper,L1,Top*
G04 #@! TF.FilePolarity,Positive*
%FSLAX46Y46*%
G04 Gerber Fmt 4.6, Leading zero omitted, Abs format (unit mm)*
G04 Created by KiCad (PCBNEW (7.0.0)) date 2024-09-08 08:40:15*
%MOMM*%
%LPD*%
G01*
G04 APERTURE LIST*
G04 APERTURE END LIST*
G36*
X25280000Y-141180000D02*
G01*
X25480000Y-141180000D01*
X26285000Y-141178000D01*
X26688000Y-141175000D01*
X26932000Y-141170000D01*
X27017000Y-141161000D01*
X27010000Y-141158000D01*
X26490000Y-140971000D01*
X26169000Y-140759000D01*
X25875000Y-140474000D01*
X25682000Y-140173000D01*
X25560000Y-139801000D01*
X25509000Y-139520000D01*
X25499000Y-139462000D01*
X25491000Y-139476000D01*
X25487000Y-139582000D01*
X25484000Y-139801000D01*
X25482000Y-140154000D01*
X25482000Y-140265000D01*
X25480000Y-141180000D01*
X25280000Y-141180000D01*
X25280000Y-138960000D01*
X25280000Y-136740000D01*
X25480000Y-136740000D01*
X25482000Y-137905000D01*
X25483000Y-138355000D01*
X25485000Y-138664000D01*
X25488000Y-138852000D01*
X25493000Y-138938000D01*
X25500000Y-138941000D01*
X25511000Y-138881000D01*
X25511000Y-138880000D01*
X25542000Y-138707000D01*
X26140000Y-138707000D01*
X26155000Y-139196000D01*
X26272000Y-139665000D01*
X26340000Y-139821000D01*
X26455000Y-140005000D01*
X26607000Y-140206000D01*
X26705000Y-140313000D01*
X26969000Y-140490000D01*
X27316000Y-140596000D01*
X27771000Y-140637000D01*
X28026000Y-140636000D01*
X28271000Y-140626000D01*
X28449000Y-140603000D01*
X28640000Y-140561000D01*
X28929000Y-140474000D01*
X29099000Y-140398000D01*
X29271000Y-140314000D01*
X29320000Y-140316000D01*
X29260000Y-140413000D01*
X29221000Y-140465000D01*
X29011000Y-140675000D01*
X28732000Y-140872000D01*
X28632000Y-140926000D01*
X28432000Y-141003000D01*
X28158000Y-141085000D01*
X27896000Y-141146000D01*
X27827000Y-141158000D01*
X27843000Y-141166000D01*
X28015000Y-141172000D01*
X28338000Y-141176000D01*
X28615000Y-141178000D01*
X29520000Y-141180000D01*
X29520000Y-138985000D01*
X29519000Y-136790000D01*
X29463000Y-136890000D01*
X29370000Y-137051000D01*
X29351000Y-137085000D01*
X29195000Y-137265000D01*
X28996000Y-137399000D01*
X28791000Y-137451000D01*
X28536000Y-137470000D01*
X28398000Y-137461000D01*
X28023000Y-137356000D01*
X27983000Y-137339000D01*
X27879000Y-137295000D01*
X27784000Y-137373000D01*
X27650000Y-137476000D01*
X27615000Y-137500000D01*
X27540000Y-137550000D01*
X27538000Y-138190000D01*
X27536000Y-138690000D01*
X27530000Y-139054000D01*
X27521000Y-139307000D01*
X27505000Y-139471000D01*
X27481000Y-139571000D01*
X27447000Y-139630000D01*
X27425000Y-139653000D01*
X27332000Y-139717000D01*
X27178000Y-139808000D01*
X27030000Y-139888000D01*
X26957000Y-139920000D01*
X26881000Y-139951000D01*
X26760000Y-140010000D01*
X26621000Y-140078000D01*
X26570000Y-140100000D01*
X26579000Y-140058000D01*
X26705000Y-139940000D01*
X26836000Y-139810000D01*
X26883000Y-139743000D01*
X26899000Y-139687000D01*
X26909000Y-139583000D01*
X26917000Y-139398000D01*
X26922000Y-139100000D01*
X26924000Y-138894000D01*
X26927000Y-138499000D01*
X26925000Y-138246000D01*
X26917000Y-138121000D01*
X26910000Y-138100000D01*
X26823000Y-138072000D01*
X26809000Y-138070000D01*
X26730000Y-138072000D01*
X26610000Y-138119000D01*
X26510000Y-138167000D01*
X26352000Y-138240000D01*
X26275000Y-138266000D01*
X26274000Y-138266000D01*
X26270000Y-138213000D01*
X26267000Y-138195000D01*
X26252000Y-138220000D01*
X26175000Y-138447000D01*
X26140000Y-138707000D01*
X25542000Y-138707000D01*
X25554000Y-138642000D01*
X25588000Y-138498000D01*
X25719000Y-138130000D01*
X26280000Y-138130000D01*
X26314000Y-138133000D01*
X26438000Y-138065000D01*
X26494000Y-138031000D01*
X27400000Y-137378000D01*
X27830000Y-136992000D01*
X28090000Y-136742000D01*
X27840000Y-136742000D01*
X27679000Y-136747000D01*
X27625000Y-136756000D01*
X27627000Y-136757000D01*
X27617000Y-136786000D01*
X27492000Y-136854000D01*
X27459000Y-136870000D01*
X27069000Y-137109000D01*
X26723000Y-137414000D01*
X26562000Y-137610000D01*
X26479000Y-137744000D01*
X26382000Y-137917000D01*
X26305000Y-138067000D01*
X26280000Y-138130000D01*
X25719000Y-138130000D01*
X25769000Y-137987000D01*
X26033000Y-137567000D01*
X26230000Y-137349000D01*
X26633000Y-137026000D01*
X27068000Y-136819000D01*
X27252000Y-136772000D01*
X27308000Y-136760000D01*
X27303000Y-136752000D01*
X27217000Y-136747000D01*
X27027000Y-136744000D01*
X26713000Y-136742000D01*
X26445000Y-136742000D01*
X26252000Y-136741000D01*
X28090000Y-136741000D01*
X28150000Y-136792000D01*
X28368000Y-136920000D01*
X28505000Y-136969000D01*
X28744000Y-136997000D01*
X28988000Y-136978000D01*
X29010000Y-136973000D01*
X29255000Y-136870000D01*
X29374000Y-136800000D01*
X29468000Y-136740000D01*
X28779000Y-136741000D01*
X28090000Y-136741000D01*
X26252000Y-136741000D01*
X25480000Y-136740000D01*
X25280000Y-136740000D01*
X25280000Y-136540000D01*
X27500000Y-136540000D01*
X29720000Y-136540000D01*
X29720000Y-138960000D01*
X29720000Y-141380000D01*
X27500000Y-141380000D01*
X25280000Y-141380000D01*
X25280000Y-141180000D01*
G37*
G36*
X27728000Y-123433000D02*
G01*
X27750000Y-123441000D01*
X27840000Y-123488000D01*
X28049000Y-123603000D01*
X28355000Y-123775000D01*
X28740000Y-123993000D01*
X29182000Y-124243000D01*
X29662000Y-124516000D01*
X30159000Y-124800000D01*
X30652000Y-125082000D01*
X31123000Y-125351000D01*
X31549000Y-125597000D01*
X31912000Y-125806000D01*
X32191000Y-125969000D01*
X32365000Y-126072000D01*
X32410000Y-126100000D01*
X32630000Y-126312000D01*
X32743000Y-126490000D01*
X32772000Y-126551000D01*
X32795000Y-126608000D01*
X32812000Y-126678000D01*
X32822000Y-126776000D01*
X32825000Y-126918000D01*
X32821000Y-127121000D01*
X32809000Y-127400000D01*
X32788000Y-127772000D01*
X32759000Y-128252000D01*
X32720000Y-128857000D01*
X32672000Y-129602000D01*
X32662000Y-129763000D01*
X32619000Y-130429000D01*
X32578000Y-131046000D01*
X32542000Y-131596000D01*
X32510000Y-132060000D01*
X32485000Y-132419000D01*
X32467000Y-132655000D01*
X32458000Y-132749000D01*
X32327000Y-133071000D01*
X32093000Y-133334000D01*
X32065000Y-133355000D01*
X31961000Y-133420000D01*
X31746000Y-133551000D01*
X31445000Y-133733000D01*
X31083000Y-133950000D01*
X30686000Y-134187000D01*
X30281000Y-134429000D01*
X29892000Y-134660000D01*
X29545000Y-134865000D01*
X29267000Y-135029000D01*
X29083000Y-135135000D01*
X29025000Y-135168000D01*
X28689000Y-135271000D01*
X28437000Y-135260000D01*
X28335000Y-135231000D01*
X28103000Y-135159000D01*
X27761000Y-135051000D01*
X27331000Y-134914000D01*
X26833000Y-134755000D01*
X26289000Y-134580000D01*
X25721000Y-134396000D01*
X25148000Y-134211000D01*
X24593000Y-134030000D01*
X24077000Y-133862000D01*
X23621000Y-133712000D01*
X23245000Y-133588000D01*
X22972000Y-133496000D01*
X22822000Y-133443000D01*
X22803000Y-133436000D01*
X22581000Y-133279000D01*
X22396000Y-133065000D01*
X22375000Y-133028000D01*
X22304000Y-132854000D01*
X22291000Y-132808000D01*
X22277000Y-132709000D01*
X22250000Y-132471000D01*
X22212000Y-132116000D01*
X22164000Y-131664000D01*
X22110000Y-131135000D01*
X22049000Y-130550000D01*
X21986000Y-129930000D01*
X21922000Y-129296000D01*
X21859000Y-128668000D01*
X21799000Y-128067000D01*
X21745000Y-127514000D01*
X21697000Y-127029000D01*
X21660000Y-126634000D01*
X21633000Y-126348000D01*
X21621000Y-126192000D01*
X21620000Y-126174000D01*
X21685000Y-125847000D01*
X21856000Y-125542000D01*
X21862000Y-125534000D01*
X22083000Y-125355000D01*
X22330000Y-125234000D01*
X22502000Y-125168000D01*
X22789000Y-125058000D01*
X23168000Y-124914000D01*
X23617000Y-124743000D01*
X24114000Y-124555000D01*
X24638000Y-124357000D01*
X25165000Y-124158000D01*
X25675000Y-123967000D01*
X26143000Y-123791000D01*
X26549000Y-123638000D01*
X26871000Y-123519000D01*
X27085000Y-123439000D01*
X27169000Y-123409000D01*
X27442000Y-123384000D01*
X27728000Y-123433000D01*
G37*
G36*
X27824000Y-110102000D02*
G01*
X27905000Y-110117000D01*
X27986000Y-110140000D01*
X28161000Y-110215000D01*
X28214000Y-110246000D01*
X28310000Y-110320000D01*
X28510000Y-110478000D01*
X28797000Y-110707000D01*
X29153000Y-110992000D01*
X29559000Y-111319000D01*
X29999000Y-111673000D01*
X30454000Y-112041000D01*
X30907000Y-112408000D01*
X31339000Y-112759000D01*
X31734000Y-113080000D01*
X32073000Y-113356000D01*
X32338000Y-113574000D01*
X32513000Y-113719000D01*
X32577000Y-113775000D01*
X32752000Y-114048000D01*
X32837000Y-114359000D01*
X32840000Y-114417000D01*
X32833000Y-114522000D01*
X32814000Y-114764000D01*
X32785000Y-115124000D01*
X32747000Y-115579000D01*
X32702000Y-116109000D01*
X32652000Y-116693000D01*
X32599000Y-117310000D01*
X32545000Y-117938000D01*
X32491000Y-118556000D01*
X32440000Y-119143000D01*
X32393000Y-119679000D01*
X32352000Y-120141000D01*
X32318000Y-120509000D01*
X32295000Y-120762000D01*
X32282000Y-120877000D01*
X32282000Y-120880000D01*
X32146000Y-121241000D01*
X31890000Y-121518000D01*
X31607000Y-121660000D01*
X31497000Y-121680000D01*
X31251000Y-121719000D01*
X30892000Y-121772000D01*
X30442000Y-121836000D01*
X29924000Y-121910000D01*
X29360000Y-121988000D01*
X28774000Y-122069000D01*
X28188000Y-122149000D01*
X27624000Y-122226000D01*
X27105000Y-122295000D01*
X26654000Y-122354000D01*
X26294000Y-122399000D01*
X26046000Y-122429000D01*
X25936000Y-122439000D01*
X25741000Y-122415000D01*
X25688000Y-122402000D01*
X25380000Y-122248000D01*
X25283000Y-122165000D01*
X25218000Y-122088000D01*
X25069000Y-121901000D01*
X24847000Y-121620000D01*
X24565000Y-121263000D01*
X24237000Y-120846000D01*
X23876000Y-120385000D01*
X23493000Y-119896000D01*
X23104000Y-119397000D01*
X22719000Y-118904000D01*
X22352000Y-118433000D01*
X22016000Y-118001000D01*
X21724000Y-117624000D01*
X21489000Y-117320000D01*
X21324000Y-117103000D01*
X21241000Y-116992000D01*
X21240000Y-116990000D01*
X21151000Y-116830000D01*
X21135000Y-116792000D01*
X21091000Y-116576000D01*
X21086000Y-116326000D01*
X21098000Y-116242000D01*
X21133000Y-116146000D01*
X21221000Y-115924000D01*
X21353000Y-115599000D01*
X21521000Y-115191000D01*
X21714000Y-114724000D01*
X21924000Y-114218000D01*
X22141000Y-113695000D01*
X22357000Y-113178000D01*
X22563000Y-112688000D01*
X22749000Y-112246000D01*
X22906000Y-111875000D01*
X23026000Y-111597000D01*
X23099000Y-111433000D01*
X23115000Y-111401000D01*
X23345000Y-111136000D01*
X23611000Y-110975000D01*
X23709000Y-110950000D01*
X23941000Y-110895000D01*
X24284000Y-110817000D01*
X24717000Y-110720000D01*
X25218000Y-110609000D01*
X25616000Y-110522000D01*
X26244000Y-110384000D01*
X26735000Y-110278000D01*
X27109000Y-110199000D01*
X27386000Y-110146000D01*
X27584000Y-110114000D01*
X27724000Y-110100000D01*
X27824000Y-110102000D01*
G37*
G36*
X26949000Y-97623000D02*
G01*
X27542000Y-97625000D01*
X30210000Y-97630000D01*
X30345000Y-97676000D01*
X30645000Y-97839000D01*
X30810000Y-98000000D01*
X30865000Y-98088000D01*
X30986000Y-98295000D01*
X31161000Y-98597000D01*
X31378000Y-98975000D01*
X31624000Y-99405000D01*
X31888000Y-99868000D01*
X32158000Y-100341000D01*
X32420000Y-100803000D01*
X32663000Y-101233000D01*
X32874000Y-101608000D01*
X33041000Y-101907000D01*
X33153000Y-102110000D01*
X33188000Y-102175000D01*
X33292000Y-102523000D01*
X33295000Y-102662000D01*
X33271000Y-102772000D01*
X33206000Y-103013000D01*
X33109000Y-103363000D01*
X32985000Y-103799000D01*
X32841000Y-104298000D01*
X32683000Y-104839000D01*
X32519000Y-105400000D01*
X32354000Y-105957000D01*
X32196000Y-106488000D01*
X32050000Y-106972000D01*
X31924000Y-107386000D01*
X31824000Y-107707000D01*
X31757000Y-107914000D01*
X31733000Y-107978000D01*
X31503000Y-108273000D01*
X31172000Y-108467000D01*
X31167000Y-108469000D01*
X31083000Y-108483000D01*
X30880000Y-108509000D01*
X30553000Y-108545000D01*
X30095000Y-108594000D01*
X29500000Y-108656000D01*
X28762000Y-108731000D01*
X27874000Y-108820000D01*
X27370000Y-108870000D01*
X26616000Y-108945000D01*
X25910000Y-109015000D01*
X25269000Y-109079000D01*
X24708000Y-109134000D01*
X24243000Y-109181000D01*
X23891000Y-109216000D01*
X23668000Y-109238000D01*
X23590000Y-109246000D01*
X23442000Y-109244000D01*
X23390000Y-109239000D01*
X23055000Y-109132000D01*
X22779000Y-108925000D01*
X22768000Y-108913000D01*
X22632000Y-108701000D01*
X22563000Y-108530000D01*
X22546000Y-108439000D01*
X22508000Y-108212000D01*
X22450000Y-107868000D01*
X22377000Y-107428000D01*
X22292000Y-106914000D01*
X22199000Y-106346000D01*
X22100000Y-105744000D01*
X21999000Y-105130000D01*
X21900000Y-104525000D01*
X21806000Y-103948000D01*
X21720000Y-103422000D01*
X21646000Y-102966000D01*
X21587000Y-102602000D01*
X21547000Y-102350000D01*
X21529000Y-102231000D01*
X21529000Y-102230000D01*
X21544000Y-101984000D01*
X21608000Y-101772000D01*
X21667000Y-101675000D01*
X21804000Y-101467000D01*
X22003000Y-101171000D01*
X22251000Y-100806000D01*
X22534000Y-100394000D01*
X22835000Y-99955000D01*
X23143000Y-99511000D01*
X23441000Y-99081000D01*
X23715000Y-98688000D01*
X23951000Y-98353000D01*
X24135000Y-98095000D01*
X24252000Y-97936000D01*
X24285000Y-97896000D01*
X24444000Y-97775000D01*
X24505000Y-97742000D01*
X24571000Y-97709000D01*
X24631000Y-97683000D01*
X24703000Y-97662000D01*
X24803000Y-97647000D01*
X24949000Y-97636000D01*
X25157000Y-97628000D01*
X25444000Y-97624000D01*
X25827000Y-97622000D01*
X26323000Y-97622000D01*
X26949000Y-97623000D01*
G37*
G36*
X27710000Y-84117000D02*
G01*
X27722000Y-84121000D01*
X27821000Y-84169000D01*
X28038000Y-84284000D01*
X28352000Y-84454000D01*
X28744000Y-84667000D01*
X29191000Y-84913000D01*
X29672000Y-85179000D01*
X30168000Y-85453000D01*
X30657000Y-85725000D01*
X31118000Y-85982000D01*
X31529000Y-86214000D01*
X31872000Y-86407000D01*
X32123000Y-86552000D01*
X32262000Y-86636000D01*
X32280000Y-86648000D01*
X32528000Y-86934000D01*
X32650000Y-87275000D01*
X32653000Y-87374000D01*
X32652000Y-87612000D01*
X32650000Y-87967000D01*
X32646000Y-88418000D01*
X32640000Y-88943000D01*
X32633000Y-89522000D01*
X32625000Y-90131000D01*
X32616000Y-90751000D01*
X32607000Y-91360000D01*
X32598000Y-91935000D01*
X32589000Y-92457000D01*
X32580000Y-92903000D01*
X32573000Y-93252000D01*
X32566000Y-93483000D01*
X32562000Y-93565000D01*
X32538000Y-93753000D01*
X32489000Y-93895000D01*
X32472000Y-93932000D01*
X32312000Y-94169000D01*
X32104000Y-94354000D01*
X32060000Y-94380000D01*
X31953000Y-94428000D01*
X31722000Y-94527000D01*
X31388000Y-94667000D01*
X30973000Y-94842000D01*
X30497000Y-95040000D01*
X29982000Y-95255000D01*
X29450000Y-95476000D01*
X28921000Y-95695000D01*
X28417000Y-95903000D01*
X27960000Y-96091000D01*
X27570000Y-96251000D01*
X27269000Y-96374000D01*
X27079000Y-96450000D01*
X27021000Y-96471000D01*
X26786000Y-96497000D01*
X26544000Y-96477000D01*
X26517000Y-96471000D01*
X26363000Y-96410000D01*
X26317000Y-96387000D01*
X26232000Y-96329000D01*
X26038000Y-96191000D01*
X25755000Y-95986000D01*
X25402000Y-95731000D01*
X25001000Y-95439000D01*
X24570000Y-95124000D01*
X24130000Y-94802000D01*
X23700000Y-94487000D01*
X23300000Y-94194000D01*
X22951000Y-93936000D01*
X22672000Y-93729000D01*
X22483000Y-93587000D01*
X22411000Y-93532000D01*
X22190000Y-93251000D01*
X22085000Y-92897000D01*
X22080000Y-92803000D01*
X22090000Y-92697000D01*
X22118000Y-92456000D01*
X22161000Y-92101000D01*
X22217000Y-91653000D01*
X22282000Y-91137000D01*
X22353000Y-90573000D01*
X22428000Y-89984000D01*
X22505000Y-89392000D01*
X22579000Y-88820000D01*
X22648000Y-88290000D01*
X22710000Y-87824000D01*
X22761000Y-87445000D01*
X22798000Y-87174000D01*
X22820000Y-87035000D01*
X22821000Y-87029000D01*
X22970000Y-86689000D01*
X23095000Y-86544000D01*
X23151000Y-86495000D01*
X23237000Y-86431000D01*
X23369000Y-86343000D01*
X23563000Y-86219000D01*
X23837000Y-86051000D01*
X24205000Y-85827000D01*
X24685000Y-85537000D01*
X25020000Y-85335000D01*
X25508000Y-85041000D01*
X25956000Y-84773000D01*
X26344000Y-84541000D01*
X26653000Y-84358000D01*
X26862000Y-84236000D01*
X26948000Y-84187000D01*
X27327000Y-84073000D01*
X27710000Y-84117000D01*
G37*
G36*
X27896000Y-71259000D02*
G01*
X27937000Y-71269000D01*
X28033000Y-71310000D01*
X28254000Y-71414000D01*
X28583000Y-71571000D01*
X29001000Y-71773000D01*
X29491000Y-72011000D01*
X30034000Y-72276000D01*
X30354000Y-72434000D01*
X30999000Y-72751000D01*
X31515000Y-73006000D01*
X31917000Y-73206000D01*
X32221000Y-73358000D01*
X32441000Y-73472000D01*
X32593000Y-73554000D01*
X32693000Y-73611000D01*
X32754000Y-73653000D01*
X32780000Y-73675000D01*
X33012000Y-73975000D01*
X33062000Y-74101000D01*
X33082000Y-74212000D01*
X33121000Y-74464000D01*
X33176000Y-74842000D01*
X33245000Y-75327000D01*
X33324000Y-75903000D01*
X33413000Y-76553000D01*
X33421000Y-76616000D01*
X33518000Y-77336000D01*
X33595000Y-77915000D01*
X33654000Y-78370000D01*
X33696000Y-78719000D01*
X33722000Y-78978000D01*
X33733000Y-79164000D01*
X33731000Y-79296000D01*
X33718000Y-79390000D01*
X33694000Y-79463000D01*
X33660000Y-79533000D01*
X33644000Y-79566000D01*
X33456000Y-79833000D01*
X33373000Y-79904000D01*
X33181000Y-80061000D01*
X32899000Y-80290000D01*
X32545000Y-80578000D01*
X32134000Y-80909000D01*
X31685000Y-81271000D01*
X31214000Y-81650000D01*
X30740000Y-82031000D01*
X30280000Y-82400000D01*
X29849000Y-82745000D01*
X29467000Y-83050000D01*
X29151000Y-83302000D01*
X28916000Y-83488000D01*
X28782000Y-83592000D01*
X28761000Y-83607000D01*
X28607000Y-83691000D01*
X28565000Y-83707000D01*
X28450000Y-83738000D01*
X28283000Y-83766000D01*
X28270000Y-83768000D01*
X28164000Y-83765000D01*
X28110000Y-83759000D01*
X27932000Y-83720000D01*
X27890000Y-83705000D01*
X27787000Y-83656000D01*
X27564000Y-83544000D01*
X27243000Y-83379000D01*
X26843000Y-83172000D01*
X26386000Y-82934000D01*
X25892000Y-82677000D01*
X25381000Y-82409000D01*
X24875000Y-82144000D01*
X24393000Y-81890000D01*
X23957000Y-81660000D01*
X23586000Y-81463000D01*
X23302000Y-81311000D01*
X23125000Y-81214000D01*
X23076000Y-81184000D01*
X22874000Y-80963000D01*
X22781000Y-80789000D01*
X22753000Y-80686000D01*
X22695000Y-80450000D01*
X22610000Y-80103000D01*
X22506000Y-79668000D01*
X22387000Y-79169000D01*
X22258000Y-78626000D01*
X22125000Y-78064000D01*
X21994000Y-77505000D01*
X21869000Y-76971000D01*
X21756000Y-76485000D01*
X21660000Y-76070000D01*
X21587000Y-75749000D01*
X21542000Y-75543000D01*
X21530000Y-75480000D01*
X21560000Y-75175000D01*
X21695000Y-74868000D01*
X21794000Y-74738000D01*
X21936000Y-74615000D01*
X22037000Y-74543000D01*
X22161000Y-74466000D01*
X22396000Y-74320000D01*
X22725000Y-74116000D01*
X23129000Y-73867000D01*
X23588000Y-73583000D01*
X24086000Y-73276000D01*
X24602000Y-72958000D01*
X25120000Y-72640000D01*
X25619000Y-72333000D01*
X26081000Y-72048000D01*
X26488000Y-71798000D01*
X26822000Y-71594000D01*
X27063000Y-71446000D01*
X27194000Y-71367000D01*
X27210000Y-71358000D01*
X27544000Y-71252000D01*
X27896000Y-71259000D01*
G37*
G36*
X25725000Y-58233000D02*
G01*
X25827000Y-58259000D01*
X26058000Y-58322000D01*
X26394000Y-58414000D01*
X26811000Y-58530000D01*
X27283000Y-58662000D01*
X27786000Y-58803000D01*
X28296000Y-58947000D01*
X28788000Y-59086000D01*
X29237000Y-59213000D01*
X29619000Y-59323000D01*
X29910000Y-59407000D01*
X30085000Y-59459000D01*
X30119000Y-59470000D01*
X30268000Y-59541000D01*
X30306000Y-59564000D01*
X30381000Y-59634000D01*
X30547000Y-59803000D01*
X30787000Y-60052000D01*
X31083000Y-60361000D01*
X31418000Y-60713000D01*
X31773000Y-61088000D01*
X32132000Y-61469000D01*
X32475000Y-61835000D01*
X32787000Y-62169000D01*
X33048000Y-62451000D01*
X33242000Y-62664000D01*
X33351000Y-62788000D01*
X33362000Y-62801000D01*
X33515000Y-63082000D01*
X33559000Y-63410000D01*
X33515000Y-63711000D01*
X33459000Y-63842000D01*
X33411000Y-63930000D01*
X33295000Y-64138000D01*
X33121000Y-64447000D01*
X32900000Y-64840000D01*
X32643000Y-65297000D01*
X32360000Y-65799000D01*
X32062000Y-66328000D01*
X31759000Y-66865000D01*
X31462000Y-67391000D01*
X31182000Y-67888000D01*
X30928000Y-68336000D01*
X30713000Y-68717000D01*
X30546000Y-69012000D01*
X30437000Y-69202000D01*
X30406000Y-69257000D01*
X30247000Y-69494000D01*
X30085000Y-69647000D01*
X30031000Y-69684000D01*
X29699000Y-69820000D01*
X29483000Y-69838000D01*
X29362000Y-69829000D01*
X29103000Y-69803000D01*
X28728000Y-69764000D01*
X28258000Y-69713000D01*
X27713000Y-69652000D01*
X27115000Y-69585000D01*
X26896000Y-69560000D01*
X26219000Y-69482000D01*
X25626000Y-69412000D01*
X25131000Y-69352000D01*
X24749000Y-69304000D01*
X24496000Y-69270000D01*
X24387000Y-69252000D01*
X24386000Y-69252000D01*
X24096000Y-69094000D01*
X23869000Y-68861000D01*
X23835000Y-68804000D01*
X23793000Y-68708000D01*
X23700000Y-68485000D01*
X23564000Y-68157000D01*
X23395000Y-67743000D01*
X23200000Y-67267000D01*
X22989000Y-66749000D01*
X22770000Y-66209000D01*
X22552000Y-65671000D01*
X22343000Y-65154000D01*
X22152000Y-64680000D01*
X21987000Y-64270000D01*
X21858000Y-63946000D01*
X21772000Y-63728000D01*
X21739000Y-63640000D01*
X21716000Y-63400000D01*
X21747000Y-63138000D01*
X21758000Y-63100000D01*
X21838000Y-62919000D01*
X21884000Y-62840000D01*
X22012000Y-62650000D01*
X22206000Y-62367000D01*
X22453000Y-62008000D01*
X22740000Y-61594000D01*
X23054000Y-61143000D01*
X23380000Y-60674000D01*
X23707000Y-60207000D01*
X24020000Y-59760000D01*
X24305000Y-59354000D01*
X24551000Y-59006000D01*
X24743000Y-58736000D01*
X24868000Y-58564000D01*
X24910000Y-58508000D01*
X25189000Y-58320000D01*
X25520000Y-58228000D01*
X25725000Y-58233000D01*
G37*
G36*
X29715000Y-45037000D02*
G01*
X29788000Y-45049000D01*
X29855000Y-45068000D01*
X29887000Y-45079000D01*
X30144000Y-45207000D01*
X30312000Y-45344000D01*
X30383000Y-45429000D01*
X30537000Y-45620000D01*
X30758000Y-45897000D01*
X31030000Y-46240000D01*
X31338000Y-46629000D01*
X31667000Y-47045000D01*
X32001000Y-47468000D01*
X32324000Y-47878000D01*
X32621000Y-48256000D01*
X32877000Y-48583000D01*
X33076000Y-48837000D01*
X33202000Y-49001000D01*
X33239000Y-49052000D01*
X33365000Y-49386000D01*
X33380000Y-49555000D01*
X33375000Y-49614000D01*
X33358000Y-49721000D01*
X33326000Y-49887000D01*
X33277000Y-50127000D01*
X33207000Y-50453000D01*
X33114000Y-50881000D01*
X32994000Y-51422000D01*
X32844000Y-52090000D01*
X32663000Y-52900000D01*
X32641000Y-52997000D01*
X32483000Y-53701000D01*
X32335000Y-54358000D01*
X32201000Y-54950000D01*
X32085000Y-55461000D01*
X31990000Y-55875000D01*
X31921000Y-56174000D01*
X31880000Y-56343000D01*
X31872000Y-56374000D01*
X31683000Y-56684000D01*
X31387000Y-56906000D01*
X31026000Y-57013000D01*
X30900000Y-57017000D01*
X30802000Y-57011000D01*
X30563000Y-56993000D01*
X30202000Y-56965000D01*
X29737000Y-56928000D01*
X29188000Y-56885000D01*
X28573000Y-56836000D01*
X27980000Y-56788000D01*
X27240000Y-56728000D01*
X26582000Y-56674000D01*
X26021000Y-56626000D01*
X25571000Y-56587000D01*
X25245000Y-56556000D01*
X25057000Y-56536000D01*
X25020000Y-56530000D01*
X24657000Y-56367000D01*
X24390000Y-56076000D01*
X24367000Y-56037000D01*
X24291000Y-55896000D01*
X24157000Y-55641000D01*
X23976000Y-55294000D01*
X23758000Y-54873000D01*
X23513000Y-54400000D01*
X23253000Y-53895000D01*
X22987000Y-53378000D01*
X22726000Y-52870000D01*
X22480000Y-52391000D01*
X22261000Y-51962000D01*
X22078000Y-51602000D01*
X21942000Y-51332000D01*
X21863000Y-51173000D01*
X21848000Y-51140000D01*
X21810000Y-50900000D01*
X21825000Y-50632000D01*
X21854000Y-50520000D01*
X21895000Y-50428000D01*
X21994000Y-50215000D01*
X22140000Y-49904000D01*
X22321000Y-49519000D01*
X22526000Y-49084000D01*
X22745000Y-48620000D01*
X22966000Y-48153000D01*
X23179000Y-47705000D01*
X23372000Y-47300000D01*
X23533000Y-46962000D01*
X23653000Y-46713000D01*
X23691000Y-46633000D01*
X23914000Y-46316000D01*
X24202000Y-46113000D01*
X24234000Y-46100000D01*
X24338000Y-46075000D01*
X24579000Y-46022000D01*
X24938000Y-45946000D01*
X25395000Y-45850000D01*
X25930000Y-45740000D01*
X26525000Y-45619000D01*
X26889000Y-45546000D01*
X27616000Y-45399000D01*
X28202000Y-45282000D01*
X28666000Y-45190000D01*
X29022000Y-45123000D01*
X29289000Y-45076000D01*
X29482000Y-45048000D01*
X29618000Y-45036000D01*
X29715000Y-45037000D01*
G37*
G36*
X27505000Y-33023000D02*
G01*
X27635000Y-33041000D01*
X27819000Y-33079000D01*
X28074000Y-33140000D01*
X28419000Y-33230000D01*
X28871000Y-33351000D01*
X29449000Y-33507000D01*
X29890000Y-33628000D01*
X30460000Y-33783000D01*
X30983000Y-33926000D01*
X31438000Y-34052000D01*
X31805000Y-34153000D01*
X32061000Y-34225000D01*
X32188000Y-34262000D01*
X32194000Y-34264000D01*
X32477000Y-34431000D01*
X32703000Y-34687000D01*
X32736000Y-34746000D01*
X32819000Y-34996000D01*
X32840000Y-35172000D01*
X32835000Y-35277000D01*
X32820000Y-35519000D01*
X32796000Y-35875000D01*
X32766000Y-36323000D01*
X32731000Y-36838000D01*
X32701000Y-37274000D01*
X32561000Y-39274000D01*
X32489000Y-39512000D01*
X32405000Y-39788000D01*
X32292000Y-40156000D01*
X32157000Y-40592000D01*
X32009000Y-41070000D01*
X31855000Y-41567000D01*
X31702000Y-42056000D01*
X31559000Y-42515000D01*
X31433000Y-42917000D01*
X31332000Y-43239000D01*
X31264000Y-43455000D01*
X31236000Y-43540000D01*
X31027000Y-43876000D01*
X30722000Y-44094000D01*
X30342000Y-44177000D01*
X30297000Y-44178000D01*
X30185000Y-44167000D01*
X29934000Y-44137000D01*
X29563000Y-44091000D01*
X29094000Y-44030000D01*
X28545000Y-43959000D01*
X27936000Y-43878000D01*
X27500000Y-43820000D01*
X26862000Y-43735000D01*
X26272000Y-43655000D01*
X25748000Y-43584000D01*
X25311000Y-43525000D01*
X24979000Y-43480000D01*
X24773000Y-43451000D01*
X24715000Y-43443000D01*
X24355000Y-43305000D01*
X24180000Y-43162000D01*
X24135000Y-43112000D01*
X24083000Y-43043000D01*
X24012000Y-42936000D01*
X23914000Y-42775000D01*
X23777000Y-42545000D01*
X23593000Y-42227000D01*
X23351000Y-41807000D01*
X23042000Y-41267000D01*
X22981000Y-41160000D01*
X22695000Y-40660000D01*
X22435000Y-40202000D01*
X22212000Y-39805000D01*
X22035000Y-39489000D01*
X21916000Y-39274000D01*
X21866000Y-39178000D01*
X21818000Y-38997000D01*
X21809000Y-38928000D01*
X21811000Y-38812000D01*
X21825000Y-38565000D01*
X21848000Y-38216000D01*
X21877000Y-37791000D01*
X21911000Y-37320000D01*
X21948000Y-36829000D01*
X21985000Y-36346000D01*
X22021000Y-35900000D01*
X22053000Y-35519000D01*
X22079000Y-35229000D01*
X22097000Y-35060000D01*
X22102000Y-35031000D01*
X22253000Y-34723000D01*
X22500000Y-34473000D01*
X22624000Y-34400000D01*
X22722000Y-34367000D01*
X22949000Y-34298000D01*
X23283000Y-34198000D01*
X23700000Y-34075000D01*
X24178000Y-33935000D01*
X24691000Y-33785000D01*
X25217000Y-33632000D01*
X25732000Y-33483000D01*
X26212000Y-33344000D01*
X26635000Y-33224000D01*
X26976000Y-33127000D01*
X27212000Y-33062000D01*
X27260000Y-33050000D01*
X27335000Y-33031000D01*
X27411000Y-33021000D01*
X27505000Y-33023000D01*
G37*
G36*
X24824000Y-29386000D02*
G01*
X25090000Y-29386000D01*
X25094000Y-29629000D01*
X25224000Y-29833000D01*
X25332000Y-29894000D01*
X25475000Y-29872000D01*
X25655000Y-29789000D01*
X25815000Y-29701000D01*
X25895000Y-29645000D01*
X25909000Y-29580000D01*
X25917000Y-29413000D01*
X25920000Y-29118000D01*
X25920000Y-29038000D01*
X25920000Y-28464000D01*
X25861000Y-28414000D01*
X25803000Y-28365000D01*
X25606000Y-28411000D01*
X25441000Y-28443000D01*
X25365000Y-28447000D01*
X25320000Y-28450000D01*
X25360000Y-28517000D01*
X25451000Y-28655000D01*
X25542000Y-28796000D01*
X25576000Y-28861000D01*
X25515000Y-28914000D01*
X25405000Y-28998000D01*
X25192000Y-29191000D01*
X25090000Y-29386000D01*
X24824000Y-29386000D01*
X24941000Y-29203000D01*
X24961000Y-29181000D01*
X25086000Y-29078000D01*
X25230000Y-28978000D01*
X25367000Y-28883000D01*
X25420000Y-28833000D01*
X25399000Y-28782000D01*
X25321000Y-28664000D01*
X25169000Y-28450000D01*
X25015000Y-28223000D01*
X24965000Y-28113000D01*
X24968000Y-28106000D01*
X25026000Y-28142000D01*
X25088000Y-28195000D01*
X25279000Y-28307000D01*
X25517000Y-28311000D01*
X25658000Y-28279000D01*
X25843000Y-28217000D01*
X25959000Y-28139000D01*
X25967000Y-28131000D01*
X26025000Y-28078000D01*
X26069000Y-28119000D01*
X26217000Y-28157000D01*
X26416000Y-28049000D01*
X26474000Y-27997000D01*
X26590000Y-27904000D01*
X26614000Y-27919000D01*
X26549000Y-28022000D01*
X26445000Y-28145000D01*
X26339000Y-28264000D01*
X26273000Y-28363000D01*
X26238000Y-28483000D01*
X26223000Y-28665000D01*
X26221000Y-28950000D01*
X26221000Y-29100000D01*
X26222000Y-29445000D01*
X26229000Y-29659000D01*
X26247000Y-29774000D01*
X26280000Y-29820000D01*
X26335000Y-29827000D01*
X26339000Y-29827000D01*
X26506000Y-29741000D01*
X26555000Y-29680000D01*
X26600000Y-29637000D01*
X26589000Y-29695000D01*
X26543000Y-29782000D01*
X26357000Y-29970000D01*
X26139000Y-30036000D01*
X26089000Y-30031000D01*
X25951000Y-29949000D01*
X25920000Y-29861000D01*
X25904000Y-29800000D01*
X25903000Y-29800000D01*
X25830000Y-29834000D01*
X25675000Y-29916000D01*
X25668000Y-29920000D01*
X25450000Y-30039000D01*
X25260000Y-30039000D01*
X25027000Y-30016000D01*
X24887000Y-29930000D01*
X24840000Y-29867000D01*
X24784000Y-29757000D01*
X24826000Y-29732000D01*
X24845000Y-29733000D01*
X24910000Y-29740000D01*
X24850000Y-29712000D01*
X24784000Y-29700000D01*
X24783000Y-29702000D01*
X24708000Y-29714000D01*
X24534000Y-29720000D01*
X24513000Y-29720000D01*
X24228000Y-29734000D01*
X24133000Y-29750000D01*
X23885000Y-29837000D01*
X23647000Y-29952000D01*
X23640000Y-29956000D01*
X23524000Y-30014000D01*
X23432000Y-29997000D01*
X23304000Y-29906000D01*
X23175000Y-29812000D01*
X23121000Y-29780000D01*
X23044000Y-29811000D01*
X22879000Y-29885000D01*
X22846000Y-29901000D01*
X22635000Y-29992000D01*
X22544000Y-30010000D01*
X22445000Y-29960000D01*
X22383000Y-29920000D01*
X22217000Y-29822000D01*
X22099000Y-29761000D01*
X21939000Y-29695000D01*
X21779000Y-29670000D01*
X21737000Y-29667000D01*
X21582000Y-29662000D01*
X21503000Y-29681000D01*
X21474000Y-29698000D01*
X21360000Y-29858000D01*
X21340000Y-30007000D01*
X21411000Y-30236000D01*
X21602000Y-30452000D01*
X21617000Y-30464000D01*
X21711000Y-30545000D01*
X21724000Y-30568000D01*
X21648000Y-30551000D01*
X21597000Y-30532000D01*
X21328000Y-30360000D01*
X21188000Y-30139000D01*
X21132000Y-29839000D01*
X21209000Y-29590000D01*
X21395000Y-29414000D01*
X21666000Y-29331000D01*
X21997000Y-29362000D01*
X22064000Y-29382000D01*
X22173000Y-29416000D01*
X22190000Y-29420000D01*
X22196000Y-29349000D01*
X22198000Y-29172000D01*
X22196000Y-28942000D01*
X22191000Y-28712000D01*
X22185000Y-28538000D01*
X22178000Y-28471000D01*
X22103000Y-28473000D01*
X22078000Y-28478000D01*
X21917000Y-28589000D01*
X21854000Y-28737000D01*
X21824000Y-28850000D01*
X21822000Y-28707000D01*
X21865000Y-28463000D01*
X22010000Y-28306000D01*
X22124000Y-28253000D01*
X22125000Y-28253000D01*
X22168000Y-28231000D01*
X22179000Y-28151000D01*
X22180000Y-28075000D01*
X22162000Y-27846000D01*
X22100000Y-27712000D01*
X22082000Y-27693000D01*
X22000000Y-27638000D01*
X21891000Y-27624000D01*
X21758000Y-27629000D01*
X21669000Y-27670000D01*
X21528000Y-27832000D01*
X21513000Y-28042000D01*
X21593000Y-28200000D01*
X21635000Y-28269000D01*
X21634000Y-28273000D01*
X21566000Y-28250000D01*
X21473000Y-28153000D01*
X21448000Y-28113000D01*
X21399000Y-27980000D01*
X21393000Y-27871000D01*
X21458000Y-27602000D01*
X21661000Y-27412000D01*
X21715000Y-27385000D01*
X21827000Y-27346000D01*
X21970000Y-27342000D01*
X21999000Y-27344000D01*
X22155000Y-27360000D01*
X22265000Y-27407000D01*
X22288000Y-27420000D01*
X22421000Y-27528000D01*
X22455000Y-27568000D01*
X22510000Y-27647000D01*
X22520000Y-28637000D01*
X22530000Y-29628000D01*
X22610000Y-29682000D01*
X22743000Y-29754000D01*
X22762000Y-29761000D01*
X22838000Y-29771000D01*
X22946000Y-29729000D01*
X22972000Y-29717000D01*
X23110000Y-29649000D01*
X23115000Y-28645000D01*
X23120000Y-27641000D01*
X23057000Y-27608000D01*
X22913000Y-27587000D01*
X22897000Y-27589000D01*
X22806000Y-27590000D01*
X22800000Y-27586000D01*
X22862000Y-27543000D01*
X23006000Y-27466000D01*
X23166000Y-27389000D01*
X23278000Y-27343000D01*
X23292000Y-27340000D01*
X23387000Y-27375000D01*
X23394000Y-27379000D01*
X23443000Y-27416000D01*
X23477000Y-27476000D01*
X23499000Y-27583000D01*
X23512000Y-27763000D01*
X23518000Y-28042000D01*
X23520000Y-28447000D01*
X23520000Y-28630000D01*
X23520000Y-29633000D01*
X23565000Y-29674000D01*
X23670000Y-29746000D01*
X23729000Y-29763000D01*
X23818000Y-29735000D01*
X23900000Y-29699000D01*
X24070000Y-29622000D01*
X24075000Y-28660000D01*
X24080000Y-27697000D01*
X24023000Y-27640000D01*
X23888000Y-27570000D01*
X23770000Y-27539000D01*
X23810000Y-27503000D01*
X23870000Y-27484000D01*
X24007000Y-27425000D01*
X24062000Y-27394000D01*
X24194000Y-27321000D01*
X24263000Y-27326000D01*
X24318000Y-27380000D01*
X24392000Y-27442000D01*
X24483000Y-27433000D01*
X24634000Y-27363000D01*
X24758000Y-27315000D01*
X24790000Y-27313000D01*
X24790000Y-27344000D01*
X24762000Y-27362000D01*
X24591000Y-27513000D01*
X24493000Y-27657000D01*
X24474000Y-27704000D01*
X24462000Y-27769000D01*
X24455000Y-27882000D01*
X24451000Y-28074000D01*
X24450000Y-28375000D01*
X24450000Y-28650000D01*
X24450000Y-29550000D01*
X24560000Y-29603000D01*
X24704000Y-29667000D01*
X24754000Y-29658000D01*
X24760000Y-29595000D01*
X24813000Y-29402000D01*
X24824000Y-29386000D01*
G37*
G36*
X30733000Y-27341000D02*
G01*
X30950000Y-27468000D01*
X31027000Y-27576000D01*
X31045000Y-27623000D01*
X31058000Y-27688000D01*
X31066000Y-27801000D01*
X31072000Y-27991000D01*
X31076000Y-28288000D01*
X31080000Y-28638000D01*
X31085000Y-29051000D01*
X31090000Y-29331000D01*
X31097000Y-29501000D01*
X31106000Y-29589000D01*
X31118000Y-29620000D01*
X31120000Y-29622000D01*
X31208000Y-29665000D01*
X31306000Y-29713000D01*
X31462000Y-29788000D01*
X31687000Y-29714000D01*
X31865000Y-29661000D01*
X31964000Y-29640000D01*
X32023000Y-29615000D01*
X32025000Y-29530000D01*
X32025000Y-29317000D01*
X32023000Y-29008000D01*
X32020000Y-28635000D01*
X32020000Y-28626000D01*
X32015000Y-28215000D01*
X32010000Y-27937000D01*
X32004000Y-27766000D01*
X31995000Y-27674000D01*
X31982000Y-27634000D01*
X31978000Y-27629000D01*
X31867000Y-27591000D01*
X31822000Y-27585000D01*
X31722000Y-27567000D01*
X31714000Y-27558000D01*
X31792000Y-27522000D01*
X31891000Y-27483000D01*
X32060000Y-27410000D01*
X32131000Y-27371000D01*
X32254000Y-27331000D01*
X32385000Y-27412000D01*
X32478000Y-27471000D01*
X32515000Y-27468000D01*
X32631000Y-27440000D01*
X32727000Y-27417000D01*
X32865000Y-27389000D01*
X32907000Y-27387000D01*
X32890000Y-27409000D01*
X32652000Y-27534000D01*
X32552000Y-27622000D01*
X32487000Y-27695000D01*
X32444000Y-27765000D01*
X32418000Y-27862000D01*
X32405000Y-28018000D01*
X32400000Y-28266000D01*
X32400000Y-28636000D01*
X32400000Y-28724000D01*
X32400000Y-29593000D01*
X32455000Y-29644000D01*
X32572000Y-29727000D01*
X32610000Y-29749000D01*
X32710000Y-29802000D01*
X32605000Y-29792000D01*
X32453000Y-29777000D01*
X32254000Y-29758000D01*
X32008000Y-29734000D01*
X31582000Y-29878000D01*
X31156000Y-30023000D01*
X31032000Y-29973000D01*
X30680000Y-29861000D01*
X30360000Y-29811000D01*
X30119000Y-29829000D01*
X30056000Y-29857000D01*
X29944000Y-29986000D01*
X29920000Y-30077000D01*
X29984000Y-30236000D01*
X30150000Y-30357000D01*
X30235000Y-30394000D01*
X30344000Y-30408000D01*
X30505000Y-30410000D01*
X30680000Y-30411000D01*
X30760000Y-30413000D01*
X30697000Y-30436000D01*
X30635000Y-30457000D01*
X30385000Y-30506000D01*
X30240000Y-30499000D01*
X29944000Y-30418000D01*
X29750000Y-30267000D01*
X29719000Y-30214000D01*
X29682000Y-30025000D01*
X29697000Y-29819000D01*
X29703000Y-29798000D01*
X29839000Y-29602000D01*
X30090000Y-29487000D01*
X30426000Y-29468000D01*
X30573000Y-29490000D01*
X30708000Y-29515000D01*
X30745000Y-29520000D01*
X30753000Y-29447000D01*
X30758000Y-29257000D01*
X30760000Y-29010000D01*
X30760000Y-28500000D01*
X30705000Y-28500000D01*
X30543000Y-28573000D01*
X30424000Y-28762000D01*
X30417000Y-28785000D01*
X30382000Y-28858000D01*
X30378000Y-28860000D01*
X30372000Y-28798000D01*
X30404000Y-28601000D01*
X30404000Y-28600000D01*
X30460000Y-28460000D01*
X30508000Y-28406000D01*
X30621000Y-28322000D01*
X30651000Y-28310000D01*
X30735000Y-28289000D01*
X30756000Y-28213000D01*
X30761000Y-28049000D01*
X30753000Y-27871000D01*
X30731000Y-27749000D01*
X30613000Y-27643000D01*
X30431000Y-27623000D01*
X30259000Y-27692000D01*
X30230000Y-27719000D01*
X30189000Y-27868000D01*
X30238000Y-28063000D01*
X30245000Y-28078000D01*
X30279000Y-28171000D01*
X30210000Y-28155000D01*
X30201000Y-28150000D01*
X30081000Y-28012000D01*
X30044000Y-27811000D01*
X30042000Y-27676000D01*
X30075000Y-27598000D01*
X30104000Y-27560000D01*
X30305000Y-27402000D01*
X30565000Y-27328000D01*
X30733000Y-27341000D01*
G37*
G36*
X28652000Y-28157000D02*
G01*
X28580000Y-28274000D01*
X28535000Y-28333000D01*
X28365000Y-28453000D01*
X28114000Y-28487000D01*
X27937000Y-28487000D01*
X27818000Y-28725000D01*
X27729000Y-28917000D01*
X27712000Y-29005000D01*
X27712000Y-29006000D01*
X27756000Y-29098000D01*
X27848000Y-29273000D01*
X27959000Y-29476000D01*
X28058000Y-29652000D01*
X28105000Y-29731000D01*
X28239000Y-29828000D01*
X28370000Y-29800000D01*
X28493000Y-29700000D01*
X28501000Y-29689000D01*
X28559000Y-29622000D01*
X28557000Y-29679000D01*
X28470000Y-29797000D01*
X28324000Y-29922000D01*
X28265000Y-29958000D01*
X28019000Y-30012000D01*
X27809000Y-29916000D01*
X27774000Y-29879000D01*
X27687000Y-29747000D01*
X27586000Y-29559000D01*
X27526000Y-29423000D01*
X27506000Y-29415000D01*
X27461000Y-29487000D01*
X27372000Y-29672000D01*
X27362000Y-29693000D01*
X27271000Y-29888000D01*
X27214000Y-30005000D01*
X27206000Y-30020000D01*
X27158000Y-29983000D01*
X27153000Y-29978000D01*
X26990000Y-29881000D01*
X26797000Y-29938000D01*
X26647000Y-30118000D01*
X26623000Y-30300000D01*
X26617000Y-30416000D01*
X26592000Y-30404000D01*
X26566000Y-30291000D01*
X26556000Y-30123000D01*
X26560000Y-30039000D01*
X26672000Y-29765000D01*
X26865000Y-29607000D01*
X27009000Y-29577000D01*
X27200000Y-29580000D01*
X27229000Y-29584000D01*
X27273000Y-29558000D01*
X27336000Y-29435000D01*
X27345000Y-29415000D01*
X27422000Y-29241000D01*
X27198000Y-28820000D01*
X27071000Y-28587000D01*
X26971000Y-28414000D01*
X26928000Y-28350000D01*
X26851000Y-28305000D01*
X26766000Y-28298000D01*
X26650000Y-28297000D01*
X26837000Y-28206000D01*
X27049000Y-28118000D01*
X27171000Y-28110000D01*
X27225000Y-28147000D01*
X27289000Y-28245000D01*
X27390000Y-28429000D01*
X27432000Y-28509000D01*
X27530000Y-28697000D01*
X27592000Y-28807000D01*
X27601000Y-28820000D01*
X27637000Y-28754000D01*
X27716000Y-28587000D01*
X27770000Y-28469000D01*
X27865000Y-28262000D01*
X27930000Y-28130000D01*
X27945000Y-28107000D01*
X27996000Y-28126000D01*
X28139000Y-28208000D01*
X28262000Y-28248000D01*
X28459000Y-28214000D01*
X28586000Y-28140000D01*
X28667000Y-28090000D01*
X28675000Y-28088000D01*
X28652000Y-28157000D01*
G37*
G36*
X33413000Y-27349000D02*
G01*
X33515000Y-27443000D01*
X33531000Y-27488000D01*
X33540000Y-27558000D01*
X33540000Y-27690000D01*
X33533000Y-27918000D01*
X33523000Y-28190000D01*
X33508000Y-28647000D01*
X33502000Y-29048000D01*
X33503000Y-29363000D01*
X33514000Y-29562000D01*
X33521000Y-29603000D01*
X33565000Y-29685000D01*
X33570000Y-29687000D01*
X33660000Y-29645000D01*
X33783000Y-29499000D01*
X33789000Y-29490000D01*
X33858000Y-29394000D01*
X33873000Y-29380000D01*
X33870000Y-29440000D01*
X33825000Y-29567000D01*
X33805000Y-29610000D01*
X33681000Y-29814000D01*
X33555000Y-29961000D01*
X33528000Y-29981000D01*
X33463000Y-30022000D01*
X33387000Y-29981000D01*
X33242000Y-29942000D01*
X33046000Y-29979000D01*
X32928000Y-30020000D01*
X32767000Y-30078000D01*
X32692000Y-30100000D01*
X32723000Y-30059000D01*
X32770000Y-30016000D01*
X32956000Y-29844000D01*
X33094000Y-29686000D01*
X33127000Y-29634000D01*
X33141000Y-29587000D01*
X33151000Y-29500000D01*
X33156000Y-29344000D01*
X33159000Y-29090000D01*
X33160000Y-28709000D01*
X33160000Y-28641000D01*
X33160000Y-28213000D01*
X33156000Y-27919000D01*
X33142000Y-27734000D01*
X33111000Y-27630000D01*
X33059000Y-27584000D01*
X32979000Y-27568000D01*
X32911000Y-27562000D01*
X32791000Y-27550000D01*
X33009000Y-27425000D01*
X33177000Y-27337000D01*
X33278000Y-27300000D01*
X33413000Y-27349000D01*
G37*
M02*
