G04 #@! TF.GenerationSoftware,KiCad,Pcbnew,(7.0.0)*
G04 #@! TF.CreationDate,2024-09-08T08:40:15+01:00*
G04 #@! TF.ProjectId,wax_v1_FP,7761785f-7631-45f4-9650-2e6b69636164,rev?*
G04 #@! TF.SameCoordinates,Original*
G04 #@! TF.FileFunction,Legend,Top*
G04 #@! TF.FilePolarity,Positive*
%FSLAX46Y46*%
G04 Gerber Fmt 4.6, Leading zero omitted, Abs format (unit mm)*
G04 Created by KiCad (PCBNEW (7.0.0)) date 2024-09-08 08:40:15*
%MOMM*%
%LPD*%
G01*
G04 APERTURE LIST*
G04 APERTURE END LIST*
%LPC*%
G36*
X25280000Y-141180000D02*
G01*
X25480000Y-141180000D01*
X26285000Y-141178000D01*
X26688000Y-141175000D01*
X26932000Y-141170000D01*
X27017000Y-141161000D01*
X27010000Y-141158000D01*
X26490000Y-140971000D01*
X26169000Y-140759000D01*
X25875000Y-140474000D01*
X25682000Y-140173000D01*
X25560000Y-139801000D01*
X25509000Y-139520000D01*
X25499000Y-139462000D01*
X25491000Y-139476000D01*
X25487000Y-139582000D01*
X25484000Y-139801000D01*
X25482000Y-140154000D01*
X25482000Y-140265000D01*
X25480000Y-141180000D01*
X25280000Y-141180000D01*
X25280000Y-138960000D01*
X25280000Y-136740000D01*
X25480000Y-136740000D01*
X25482000Y-137905000D01*
X25483000Y-138355000D01*
X25485000Y-138664000D01*
X25488000Y-138852000D01*
X25493000Y-138938000D01*
X25500000Y-138941000D01*
X25507000Y-138900000D01*
X26129000Y-138900000D01*
X26142000Y-139076000D01*
X26161000Y-139214000D01*
X26238000Y-139571000D01*
X26362000Y-139857000D01*
X26501000Y-140070000D01*
X26660000Y-140267000D01*
X26818000Y-140398000D01*
X26860000Y-140425000D01*
X27068000Y-140532000D01*
X27304000Y-140596000D01*
X27616000Y-140625000D01*
X27910000Y-140630000D01*
X28168000Y-140629000D01*
X28333000Y-140621000D01*
X28469000Y-140600000D01*
X28630000Y-140563000D01*
X28897000Y-140487000D01*
X29099000Y-140398000D01*
X29271000Y-140314000D01*
X29320000Y-140316000D01*
X29260000Y-140413000D01*
X29221000Y-140465000D01*
X29011000Y-140675000D01*
X28732000Y-140872000D01*
X28632000Y-140926000D01*
X28432000Y-141003000D01*
X28158000Y-141085000D01*
X27896000Y-141146000D01*
X27827000Y-141158000D01*
X27843000Y-141166000D01*
X28015000Y-141172000D01*
X28338000Y-141176000D01*
X28615000Y-141178000D01*
X29520000Y-141180000D01*
X29520000Y-138985000D01*
X29519000Y-136790000D01*
X29463000Y-136890000D01*
X29370000Y-137051000D01*
X29351000Y-137085000D01*
X29189000Y-137270000D01*
X28992000Y-137399000D01*
X28807000Y-137446000D01*
X28574000Y-137472000D01*
X28441000Y-137469000D01*
X28095000Y-137381000D01*
X28005000Y-137346000D01*
X27881000Y-137294000D01*
X27767000Y-137388000D01*
X27641000Y-137486000D01*
X27597000Y-137515000D01*
X27540000Y-137549000D01*
X27538000Y-138229000D01*
X27536000Y-138721000D01*
X27531000Y-139077000D01*
X27521000Y-139321000D01*
X27505000Y-139480000D01*
X27480000Y-139575000D01*
X27444000Y-139633000D01*
X27425000Y-139653000D01*
X27332000Y-139717000D01*
X27178000Y-139808000D01*
X27030000Y-139888000D01*
X26957000Y-139920000D01*
X26881000Y-139951000D01*
X26760000Y-140010000D01*
X26621000Y-140078000D01*
X26570000Y-140100000D01*
X26579000Y-140058000D01*
X26705000Y-139940000D01*
X26836000Y-139810000D01*
X26883000Y-139743000D01*
X26899000Y-139687000D01*
X26909000Y-139583000D01*
X26917000Y-139398000D01*
X26922000Y-139100000D01*
X26924000Y-138894000D01*
X26927000Y-138499000D01*
X26925000Y-138246000D01*
X26917000Y-138121000D01*
X26910000Y-138100000D01*
X26823000Y-138072000D01*
X26809000Y-138070000D01*
X26730000Y-138072000D01*
X26610000Y-138119000D01*
X26510000Y-138167000D01*
X26352000Y-138240000D01*
X26275000Y-138266000D01*
X26274000Y-138266000D01*
X26270000Y-138213000D01*
X26267000Y-138195000D01*
X26252000Y-138220000D01*
X26175000Y-138447000D01*
X26140000Y-138707000D01*
X26129000Y-138900000D01*
X25507000Y-138900000D01*
X25511000Y-138881000D01*
X25511000Y-138880000D01*
X25554000Y-138642000D01*
X25588000Y-138498000D01*
X25701000Y-138141000D01*
X25717000Y-138107000D01*
X26298000Y-138107000D01*
X26299000Y-138140000D01*
X26372000Y-138103000D01*
X26494000Y-138031000D01*
X27407000Y-137372000D01*
X27830000Y-136992000D01*
X28090000Y-136742000D01*
X27840000Y-136742000D01*
X27679000Y-136747000D01*
X27625000Y-136756000D01*
X27627000Y-136757000D01*
X27618000Y-136785000D01*
X27493000Y-136851000D01*
X27477000Y-136859000D01*
X27119000Y-137073000D01*
X26781000Y-137357000D01*
X26547000Y-137630000D01*
X26441000Y-137803000D01*
X26350000Y-137979000D01*
X26298000Y-138107000D01*
X25717000Y-138107000D01*
X25845000Y-137846000D01*
X25892000Y-137770000D01*
X26198000Y-137380000D01*
X26558000Y-137075000D01*
X26620000Y-137037000D01*
X26884000Y-136891000D01*
X27086000Y-136809000D01*
X27296000Y-136761000D01*
X27297000Y-136760000D01*
X27260000Y-136754000D01*
X27088000Y-136749000D01*
X26806000Y-136745000D01*
X26437000Y-136742000D01*
X26435000Y-136742000D01*
X26063000Y-136741000D01*
X28090000Y-136741000D01*
X28150000Y-136792000D01*
X28368000Y-136920000D01*
X28505000Y-136969000D01*
X28744000Y-136997000D01*
X28988000Y-136978000D01*
X29010000Y-136973000D01*
X29255000Y-136870000D01*
X29374000Y-136800000D01*
X29468000Y-136740000D01*
X28779000Y-136741000D01*
X28090000Y-136741000D01*
X26063000Y-136741000D01*
X25480000Y-136740000D01*
X25280000Y-136740000D01*
X25280000Y-136540000D01*
X27500000Y-136540000D01*
X29720000Y-136540000D01*
X29720000Y-138960000D01*
X29720000Y-141380000D01*
X27500000Y-141380000D01*
X25280000Y-141380000D01*
X25280000Y-141180000D01*
G37*
G36*
X21600000Y-126140000D02*
G01*
X21825000Y-126140000D01*
X21829000Y-126253000D01*
X21847000Y-126488000D01*
X21879000Y-126853000D01*
X21925000Y-127354000D01*
X21987000Y-127996000D01*
X22064000Y-128787000D01*
X22128000Y-129430000D01*
X22197000Y-130123000D01*
X22262000Y-130770000D01*
X22321000Y-131351000D01*
X22372000Y-131849000D01*
X22413000Y-132246000D01*
X22442000Y-132525000D01*
X22458000Y-132666000D01*
X22460000Y-132678000D01*
X22511000Y-132856000D01*
X22533000Y-132905000D01*
X22681000Y-133107000D01*
X22860000Y-133250000D01*
X22948000Y-133281000D01*
X23168000Y-133355000D01*
X23497000Y-133464000D01*
X23916000Y-133602000D01*
X24403000Y-133762000D01*
X24938000Y-133936000D01*
X25498000Y-134119000D01*
X26063000Y-134303000D01*
X26612000Y-134481000D01*
X27124000Y-134647000D01*
X27578000Y-134794000D01*
X27953000Y-134914000D01*
X28228000Y-135001000D01*
X28381000Y-135049000D01*
X28390000Y-135051000D01*
X28694000Y-135067000D01*
X28902000Y-135006000D01*
X29015000Y-134945000D01*
X29236000Y-134818000D01*
X29542000Y-134639000D01*
X29907000Y-134424000D01*
X30305000Y-134188000D01*
X30712000Y-133946000D01*
X31103000Y-133712000D01*
X31452000Y-133502000D01*
X31734000Y-133330000D01*
X31925000Y-133212000D01*
X31997000Y-133165000D01*
X32176000Y-132949000D01*
X32249000Y-132790000D01*
X32261000Y-132688000D01*
X32282000Y-132447000D01*
X32310000Y-132092000D01*
X32342000Y-131643000D01*
X32379000Y-131123000D01*
X32418000Y-130554000D01*
X32457000Y-129959000D01*
X32496000Y-129358000D01*
X32533000Y-128775000D01*
X32566000Y-128231000D01*
X32594000Y-127749000D01*
X32616000Y-127351000D01*
X32631000Y-127059000D01*
X32635000Y-126895000D01*
X32635000Y-126880000D01*
X32618000Y-126704000D01*
X32571000Y-126571000D01*
X32570000Y-126570000D01*
X32539000Y-126507000D01*
X32503000Y-126450000D01*
X32447000Y-126389000D01*
X32358000Y-126317000D01*
X32221000Y-126222000D01*
X32021000Y-126098000D01*
X31746000Y-125934000D01*
X31381000Y-125721000D01*
X30911000Y-125451000D01*
X30323000Y-125114000D01*
X30029000Y-124947000D01*
X29479000Y-124632000D01*
X28972000Y-124343000D01*
X28525000Y-124089000D01*
X28156000Y-123880000D01*
X27880000Y-123725000D01*
X27717000Y-123634000D01*
X27678000Y-123614000D01*
X27423000Y-123568000D01*
X27315000Y-123579000D01*
X27198000Y-123614000D01*
X26940000Y-123704000D01*
X26540000Y-123850000D01*
X25996000Y-124052000D01*
X25306000Y-124311000D01*
X24776000Y-124511000D01*
X24186000Y-124734000D01*
X23640000Y-124942000D01*
X23159000Y-125126000D01*
X22760000Y-125279000D01*
X22463000Y-125394000D01*
X22285000Y-125465000D01*
X22246000Y-125481000D01*
X22005000Y-125673000D01*
X21883000Y-125860000D01*
X21834000Y-126026000D01*
X21825000Y-126140000D01*
X21600000Y-126140000D01*
X21601000Y-126027000D01*
X21612000Y-125937000D01*
X21630000Y-125871000D01*
X21655000Y-125814000D01*
X21686000Y-125751000D01*
X21688000Y-125747000D01*
X21862000Y-125494000D01*
X22091000Y-125300000D01*
X22153000Y-125267000D01*
X22279000Y-125217000D01*
X22527000Y-125120000D01*
X22878000Y-124986000D01*
X23308000Y-124822000D01*
X23796000Y-124637000D01*
X24320000Y-124438000D01*
X24858000Y-124235000D01*
X25389000Y-124036000D01*
X25891000Y-123848000D01*
X26341000Y-123680000D01*
X26718000Y-123540000D01*
X27001000Y-123436000D01*
X27167000Y-123377000D01*
X27199000Y-123367000D01*
X27547000Y-123355000D01*
X27737000Y-123399000D01*
X27842000Y-123451000D01*
X28073000Y-123576000D01*
X28420000Y-123769000D01*
X28870000Y-124023000D01*
X29412000Y-124331000D01*
X30035000Y-124687000D01*
X30154000Y-124756000D01*
X30800000Y-125127000D01*
X31321000Y-125427000D01*
X31732000Y-125665000D01*
X32047000Y-125851000D01*
X32281000Y-125993000D01*
X32446000Y-126101000D01*
X32559000Y-126184000D01*
X32632000Y-126250000D01*
X32681000Y-126308000D01*
X32719000Y-126368000D01*
X32730000Y-126388000D01*
X32859000Y-126737000D01*
X32869000Y-126803000D01*
X32867000Y-126902000D01*
X32856000Y-127139000D01*
X32836000Y-127492000D01*
X32810000Y-127937000D01*
X32780000Y-128454000D01*
X32745000Y-129020000D01*
X32708000Y-129614000D01*
X32671000Y-130212000D01*
X32634000Y-130793000D01*
X32598000Y-131335000D01*
X32566000Y-131816000D01*
X32539000Y-132213000D01*
X32517000Y-132505000D01*
X32503000Y-132669000D01*
X32501000Y-132685000D01*
X32378000Y-133056000D01*
X32206000Y-133275000D01*
X32145000Y-133328000D01*
X32056000Y-133394000D01*
X31919000Y-133485000D01*
X31716000Y-133613000D01*
X31428000Y-133788000D01*
X31036000Y-134023000D01*
X30610000Y-134276000D01*
X30167000Y-134539000D01*
X29764000Y-134777000D01*
X29423000Y-134976000D01*
X29168000Y-135124000D01*
X29020000Y-135207000D01*
X29000000Y-135217000D01*
X28873000Y-135270000D01*
X28748000Y-135289000D01*
X28630000Y-135293000D01*
X28442000Y-135290000D01*
X28340000Y-135278000D01*
X28184000Y-135230000D01*
X27907000Y-135142000D01*
X27529000Y-135020000D01*
X27073000Y-134873000D01*
X26558000Y-134706000D01*
X26007000Y-134527000D01*
X25439000Y-134342000D01*
X24876000Y-134158000D01*
X24340000Y-133983000D01*
X23850000Y-133822000D01*
X23428000Y-133683000D01*
X23095000Y-133573000D01*
X22872000Y-133498000D01*
X22780000Y-133465000D01*
X22516000Y-133263000D01*
X22315000Y-132976000D01*
X22240000Y-132759000D01*
X22228000Y-132658000D01*
X22202000Y-132415000D01*
X22164000Y-132048000D01*
X22116000Y-131574000D01*
X22058000Y-131011000D01*
X21994000Y-130376000D01*
X21925000Y-129687000D01*
X21899000Y-129420000D01*
X21816000Y-128596000D01*
X21749000Y-127916000D01*
X21695000Y-127366000D01*
X21654000Y-126930000D01*
X21625000Y-126593000D01*
X21607000Y-126340000D01*
X21599000Y-126157000D01*
X21600000Y-126140000D01*
G37*
G36*
X21053000Y-116450000D02*
G01*
X21276000Y-116450000D01*
X21278000Y-116554000D01*
X21294000Y-116648000D01*
X21337000Y-116753000D01*
X21421000Y-116891000D01*
X21558000Y-117085000D01*
X21764000Y-117355000D01*
X22050000Y-117725000D01*
X22138000Y-117837000D01*
X22423000Y-118203000D01*
X22778000Y-118659000D01*
X23176000Y-119171000D01*
X23590000Y-119703000D01*
X23991000Y-120219000D01*
X24109000Y-120370000D01*
X24445000Y-120802000D01*
X24752000Y-121195000D01*
X25015000Y-121529000D01*
X25218000Y-121787000D01*
X25348000Y-121949000D01*
X25388000Y-121997000D01*
X25669000Y-122190000D01*
X25940000Y-122239000D01*
X26047000Y-122229000D01*
X26294000Y-122199000D01*
X26661000Y-122153000D01*
X27127000Y-122093000D01*
X27674000Y-122022000D01*
X28282000Y-121941000D01*
X28730000Y-121881000D01*
X29368000Y-121794000D01*
X29958000Y-121713000D01*
X30481000Y-121640000D01*
X30917000Y-121579000D01*
X31247000Y-121531000D01*
X31452000Y-121500000D01*
X31510000Y-121489000D01*
X31773000Y-121367000D01*
X31884000Y-121265000D01*
X32053000Y-121002000D01*
X32079000Y-120913000D01*
X32093000Y-120802000D01*
X32118000Y-120554000D01*
X32153000Y-120188000D01*
X32194000Y-119727000D01*
X32242000Y-119191000D01*
X32294000Y-118602000D01*
X32347000Y-117980000D01*
X32401000Y-117348000D01*
X32454000Y-116726000D01*
X32503000Y-116135000D01*
X32547000Y-115598000D01*
X32584000Y-115134000D01*
X32612000Y-114765000D01*
X32630000Y-114513000D01*
X32635000Y-114398000D01*
X32635000Y-114397000D01*
X32615000Y-114225000D01*
X32565000Y-114097000D01*
X32461000Y-113937000D01*
X32416000Y-113887000D01*
X32342000Y-113825000D01*
X32161000Y-113677000D01*
X31891000Y-113457000D01*
X31551000Y-113180000D01*
X31156000Y-112861000D01*
X30726000Y-112512000D01*
X30279000Y-112150000D01*
X29831000Y-111788000D01*
X29401000Y-111441000D01*
X29007000Y-111123000D01*
X28666000Y-110848000D01*
X28396000Y-110632000D01*
X28215000Y-110487000D01*
X28186000Y-110465000D01*
X28039000Y-110371000D01*
X27987000Y-110345000D01*
X27917000Y-110314000D01*
X27844000Y-110294000D01*
X27750000Y-110288000D01*
X27614000Y-110299000D01*
X27419000Y-110329000D01*
X27144000Y-110382000D01*
X26772000Y-110461000D01*
X26282000Y-110568000D01*
X25657000Y-110707000D01*
X25612000Y-110717000D01*
X24940000Y-110867000D01*
X24416000Y-110986000D01*
X24030000Y-111076000D01*
X23772000Y-111140000D01*
X23633000Y-111180000D01*
X23610000Y-111189000D01*
X23427000Y-111326000D01*
X23276000Y-111510000D01*
X23264000Y-111531000D01*
X23225000Y-111621000D01*
X23134000Y-111836000D01*
X22999000Y-112155000D01*
X22831000Y-112555000D01*
X22638000Y-113014000D01*
X22430000Y-113509000D01*
X22216000Y-114020000D01*
X22005000Y-114523000D01*
X21808000Y-114996000D01*
X21632000Y-115418000D01*
X21487000Y-115766000D01*
X21383000Y-116018000D01*
X21328000Y-116152000D01*
X21325000Y-116160000D01*
X21280000Y-116347000D01*
X21276000Y-116450000D01*
X21053000Y-116450000D01*
X21045000Y-116367000D01*
X21067000Y-116225000D01*
X21105000Y-116124000D01*
X21195000Y-115897000D01*
X21330000Y-115567000D01*
X21499000Y-115155000D01*
X21694000Y-114683000D01*
X21906000Y-114174000D01*
X22125000Y-113648000D01*
X22342000Y-113129000D01*
X22548000Y-112637000D01*
X22734000Y-112196000D01*
X22891000Y-111826000D01*
X23010000Y-111549000D01*
X23081000Y-111389000D01*
X23095000Y-111360000D01*
X23294000Y-111131000D01*
X23505000Y-110992000D01*
X23552000Y-110971000D01*
X23618000Y-110948000D01*
X23717000Y-110920000D01*
X23863000Y-110883000D01*
X24073000Y-110833000D01*
X24360000Y-110767000D01*
X24739000Y-110681000D01*
X25226000Y-110573000D01*
X25835000Y-110439000D01*
X26582000Y-110274000D01*
X26831000Y-110220000D01*
X27224000Y-110135000D01*
X27497000Y-110084000D01*
X27684000Y-110062000D01*
X27820000Y-110066000D01*
X27937000Y-110089000D01*
X28112000Y-110151000D01*
X28148000Y-110168000D01*
X28229000Y-110227000D01*
X28416000Y-110372000D01*
X28693000Y-110590000D01*
X29041000Y-110867000D01*
X29443000Y-111188000D01*
X29882000Y-111539000D01*
X30339000Y-111906000D01*
X30797000Y-112275000D01*
X31239000Y-112631000D01*
X31647000Y-112962000D01*
X32003000Y-113252000D01*
X32290000Y-113487000D01*
X32491000Y-113654000D01*
X32586000Y-113736000D01*
X32735000Y-113940000D01*
X32761000Y-113990000D01*
X32795000Y-114055000D01*
X32822000Y-114113000D01*
X32843000Y-114178000D01*
X32856000Y-114266000D01*
X32861000Y-114392000D01*
X32857000Y-114570000D01*
X32843000Y-114815000D01*
X32819000Y-115144000D01*
X32785000Y-115570000D01*
X32739000Y-116108000D01*
X32681000Y-116775000D01*
X32611000Y-117584000D01*
X32603000Y-117680000D01*
X32521000Y-118606000D01*
X32453000Y-119377000D01*
X32396000Y-119996000D01*
X32352000Y-120466000D01*
X32319000Y-120791000D01*
X32297000Y-120975000D01*
X32289000Y-121019000D01*
X32110000Y-121353000D01*
X31820000Y-121604000D01*
X31570000Y-121709000D01*
X31465000Y-121727000D01*
X31224000Y-121763000D01*
X30871000Y-121814000D01*
X30427000Y-121877000D01*
X29916000Y-121948000D01*
X29358000Y-122026000D01*
X28778000Y-122105000D01*
X28197000Y-122184000D01*
X27638000Y-122260000D01*
X27122000Y-122329000D01*
X26674000Y-122389000D01*
X26315000Y-122435000D01*
X26067000Y-122466000D01*
X25953000Y-122478000D01*
X25950000Y-122478000D01*
X25803000Y-122461000D01*
X25749000Y-122450000D01*
X25453000Y-122335000D01*
X25265000Y-122199000D01*
X25202000Y-122124000D01*
X25054000Y-121938000D01*
X24833000Y-121659000D01*
X24553000Y-121303000D01*
X24226000Y-120886000D01*
X23865000Y-120426000D01*
X23483000Y-119938000D01*
X23093000Y-119439000D01*
X22707000Y-118945000D01*
X22339000Y-118474000D01*
X22001000Y-118040000D01*
X21707000Y-117661000D01*
X21469000Y-117353000D01*
X21300000Y-117133000D01*
X21212000Y-117018000D01*
X21207000Y-117010000D01*
X21078000Y-116709000D01*
X21053000Y-116450000D01*
G37*
G36*
X21505000Y-102131000D02*
G01*
X21736000Y-102131000D01*
X21747000Y-102270000D01*
X21771000Y-102468000D01*
X21810000Y-102741000D01*
X21865000Y-103104000D01*
X21940000Y-103571000D01*
X22035000Y-104159000D01*
X22153000Y-104882000D01*
X22218000Y-105280000D01*
X22330000Y-105963000D01*
X22435000Y-106598000D01*
X22529000Y-107167000D01*
X22609000Y-107653000D01*
X22673000Y-108037000D01*
X22718000Y-108302000D01*
X22741000Y-108432000D01*
X22743000Y-108440000D01*
X22898000Y-108754000D01*
X23159000Y-108968000D01*
X23340000Y-109033000D01*
X23454000Y-109056000D01*
X23472000Y-109058000D01*
X23554000Y-109051000D01*
X23779000Y-109029000D01*
X24132000Y-108995000D01*
X24597000Y-108950000D01*
X25158000Y-108894000D01*
X25800000Y-108831000D01*
X26508000Y-108761000D01*
X27222000Y-108690000D01*
X27978000Y-108615000D01*
X28686000Y-108545000D01*
X29329000Y-108480000D01*
X29892000Y-108424000D01*
X30358000Y-108377000D01*
X30712000Y-108341000D01*
X30937000Y-108318000D01*
X31018000Y-108309000D01*
X31271000Y-108202000D01*
X31491000Y-108006000D01*
X31558000Y-107905000D01*
X31590000Y-107811000D01*
X31661000Y-107582000D01*
X31767000Y-107237000D01*
X31900000Y-106795000D01*
X32056000Y-106274000D01*
X32229000Y-105694000D01*
X32344000Y-105306000D01*
X33089000Y-102790000D01*
X33088000Y-102600000D01*
X33078000Y-102428000D01*
X33040000Y-102310000D01*
X33038000Y-102308000D01*
X32988000Y-102214000D01*
X32869000Y-102000000D01*
X32692000Y-101683000D01*
X32467000Y-101283000D01*
X32205000Y-100817000D01*
X31916000Y-100305000D01*
X31850000Y-100188000D01*
X31507000Y-99581000D01*
X31233000Y-99098000D01*
X31018000Y-98724000D01*
X30853000Y-98444000D01*
X30727000Y-98242000D01*
X30632000Y-98104000D01*
X30557000Y-98014000D01*
X30492000Y-97957000D01*
X30429000Y-97918000D01*
X30370000Y-97889000D01*
X30250000Y-97830000D01*
X27510000Y-97830000D01*
X24770000Y-97830000D01*
X24638000Y-97893000D01*
X24472000Y-97996000D01*
X24416000Y-98043000D01*
X24345000Y-98134000D01*
X24198000Y-98336000D01*
X23991000Y-98628000D01*
X23738000Y-98989000D01*
X23454000Y-99398000D01*
X23153000Y-99834000D01*
X22850000Y-100275000D01*
X22559000Y-100701000D01*
X22294000Y-101090000D01*
X22070000Y-101422000D01*
X21902000Y-101676000D01*
X21804000Y-101830000D01*
X21786000Y-101863000D01*
X21764000Y-101917000D01*
X21747000Y-101970000D01*
X21737000Y-102036000D01*
X21736000Y-102131000D01*
X21505000Y-102131000D01*
X21506000Y-102100000D01*
X21541000Y-101846000D01*
X21558000Y-101796000D01*
X21612000Y-101707000D01*
X21743000Y-101507000D01*
X21936000Y-101217000D01*
X22179000Y-100857000D01*
X22455000Y-100449000D01*
X22753000Y-100014000D01*
X23056000Y-99571000D01*
X23351000Y-99143000D01*
X23624000Y-98748000D01*
X23860000Y-98409000D01*
X24046000Y-98146000D01*
X24167000Y-97979000D01*
X24199000Y-97937000D01*
X24447000Y-97736000D01*
X24668000Y-97635000D01*
X24810000Y-97590000D01*
X27490000Y-97590000D01*
X28218000Y-97590000D01*
X28803000Y-97591000D01*
X29262000Y-97592000D01*
X29610000Y-97594000D01*
X29865000Y-97596000D01*
X30044000Y-97601000D01*
X30162000Y-97606000D01*
X30237000Y-97613000D01*
X30286000Y-97622000D01*
X30298000Y-97625000D01*
X30591000Y-97757000D01*
X30760000Y-97900000D01*
X30802000Y-97945000D01*
X30851000Y-98009000D01*
X30915000Y-98106000D01*
X31005000Y-98252000D01*
X31130000Y-98464000D01*
X31298000Y-98756000D01*
X31520000Y-99146000D01*
X31805000Y-99648000D01*
X32044000Y-100070000D01*
X32340000Y-100593000D01*
X32611000Y-101075000D01*
X32847000Y-101495000D01*
X33038000Y-101837000D01*
X33173000Y-102081000D01*
X33243000Y-102209000D01*
X33249000Y-102221000D01*
X33332000Y-102578000D01*
X33315000Y-102780000D01*
X33281000Y-102908000D01*
X33210000Y-103162000D01*
X33107000Y-103520000D01*
X32978000Y-103961000D01*
X32831000Y-104462000D01*
X32672000Y-105000000D01*
X32508000Y-105554000D01*
X32344000Y-106102000D01*
X32189000Y-106620000D01*
X32048000Y-107087000D01*
X31929000Y-107480000D01*
X31837000Y-107778000D01*
X31779000Y-107957000D01*
X31764000Y-107999000D01*
X31666000Y-108143000D01*
X31578000Y-108243000D01*
X31256000Y-108469000D01*
X31017000Y-108537000D01*
X30898000Y-108552000D01*
X30642000Y-108579000D01*
X30267000Y-108618000D01*
X29794000Y-108666000D01*
X29241000Y-108722000D01*
X28628000Y-108783000D01*
X27975000Y-108848000D01*
X27301000Y-108915000D01*
X26626000Y-108981000D01*
X25969000Y-109045000D01*
X25349000Y-109106000D01*
X24786000Y-109160000D01*
X24300000Y-109206000D01*
X23909000Y-109243000D01*
X23634000Y-109268000D01*
X23494000Y-109279000D01*
X23483000Y-109279000D01*
X23203000Y-109229000D01*
X22847000Y-109031000D01*
X22606000Y-108726000D01*
X22511000Y-108448000D01*
X22491000Y-108335000D01*
X22449000Y-108083000D01*
X22387000Y-107710000D01*
X22308000Y-107234000D01*
X22216000Y-106674000D01*
X22113000Y-106047000D01*
X22002000Y-105373000D01*
X21988000Y-105290000D01*
X21862000Y-104517000D01*
X21760000Y-103887000D01*
X21678000Y-103383000D01*
X21616000Y-102990000D01*
X21570000Y-102692000D01*
X21538000Y-102474000D01*
X21519000Y-102320000D01*
X21508000Y-102214000D01*
X21505000Y-102141000D01*
X21505000Y-102131000D01*
G37*
G36*
X27600000Y-84053000D02*
G01*
X27706000Y-84072000D01*
X27820000Y-84122000D01*
X27920000Y-84175000D01*
X28139000Y-84294000D01*
X28455000Y-84468000D01*
X28846000Y-84683000D01*
X29292000Y-84929000D01*
X29770000Y-85194000D01*
X30260000Y-85465000D01*
X30739000Y-85731000D01*
X31187000Y-85979000D01*
X31582000Y-86199000D01*
X31902000Y-86379000D01*
X32127000Y-86505000D01*
X32235000Y-86567000D01*
X32238000Y-86569000D01*
X32378000Y-86690000D01*
X32521000Y-86852000D01*
X32556000Y-86902000D01*
X32665000Y-87173000D01*
X32681000Y-87245000D01*
X32684000Y-87351000D01*
X32685000Y-87609000D01*
X32682000Y-88012000D01*
X32677000Y-88551000D01*
X32669000Y-89220000D01*
X32658000Y-90010000D01*
X32650000Y-90505000D01*
X32638000Y-91312000D01*
X32628000Y-91975000D01*
X32619000Y-92508000D01*
X32610000Y-92927000D01*
X32602000Y-93248000D01*
X32592000Y-93486000D01*
X32580000Y-93656000D01*
X32566000Y-93773000D01*
X32548000Y-93853000D01*
X32526000Y-93911000D01*
X32499000Y-93963000D01*
X32473000Y-94010000D01*
X32280000Y-94256000D01*
X32070000Y-94413000D01*
X31962000Y-94462000D01*
X31730000Y-94562000D01*
X31394000Y-94704000D01*
X30977000Y-94880000D01*
X30499000Y-95080000D01*
X29982000Y-95295000D01*
X29448000Y-95517000D01*
X28918000Y-95737000D01*
X28413000Y-95946000D01*
X27955000Y-96135000D01*
X27565000Y-96294000D01*
X27265000Y-96416000D01*
X27076000Y-96491000D01*
X27021000Y-96511000D01*
X26792000Y-96537000D01*
X26549000Y-96520000D01*
X26547000Y-96519000D01*
X26404000Y-96471000D01*
X26342000Y-96443000D01*
X26239000Y-96376000D01*
X26028000Y-96229000D01*
X25728000Y-96015000D01*
X25361000Y-95749000D01*
X24946000Y-95448000D01*
X24504000Y-95124000D01*
X24054000Y-94793000D01*
X23617000Y-94470000D01*
X23212000Y-94169000D01*
X22861000Y-93905000D01*
X22582000Y-93694000D01*
X22396000Y-93549000D01*
X22328000Y-93491000D01*
X22111000Y-93164000D01*
X22040000Y-92809000D01*
X22050000Y-92709000D01*
X22078000Y-92473000D01*
X22121000Y-92123000D01*
X22176000Y-91681000D01*
X22241000Y-91168000D01*
X22313000Y-90608000D01*
X22388000Y-90022000D01*
X22464000Y-89432000D01*
X22538000Y-88860000D01*
X22607000Y-88330000D01*
X22669000Y-87862000D01*
X22720000Y-87479000D01*
X22758000Y-87204000D01*
X22780000Y-87057000D01*
X22781000Y-87050000D01*
X22907000Y-86719000D01*
X23128000Y-86455000D01*
X23154000Y-86435000D01*
X23260000Y-86365000D01*
X23480000Y-86230000D01*
X23789000Y-86040000D01*
X24168000Y-85811000D01*
X24593000Y-85555000D01*
X25042000Y-85284000D01*
X25495000Y-85013000D01*
X25929000Y-84754000D01*
X26322000Y-84521000D01*
X26652000Y-84326000D01*
X26898000Y-84182000D01*
X27037000Y-84104000D01*
X27057000Y-84094000D01*
X27171000Y-84062000D01*
X27330000Y-84051000D01*
X27420000Y-84050000D01*
X27600000Y-84053000D01*
G37*
G36*
X21513000Y-75400000D02*
G01*
X21733000Y-75400000D01*
X21735000Y-75460000D01*
X21746000Y-75545000D01*
X21769000Y-75672000D01*
X21808000Y-75857000D01*
X21866000Y-76119000D01*
X21948000Y-76475000D01*
X22057000Y-76941000D01*
X22197000Y-77535000D01*
X22297000Y-77960000D01*
X22468000Y-78683000D01*
X22606000Y-79266000D01*
X22714000Y-79725000D01*
X22798000Y-80074000D01*
X22859000Y-80331000D01*
X22903000Y-80510000D01*
X22934000Y-80626000D01*
X22954000Y-80697000D01*
X22968000Y-80736000D01*
X22980000Y-80761000D01*
X22993000Y-80786000D01*
X22994000Y-80788000D01*
X23025000Y-80847000D01*
X23061000Y-80900000D01*
X23117000Y-80956000D01*
X23208000Y-81024000D01*
X23350000Y-81112000D01*
X23555000Y-81229000D01*
X23841000Y-81384000D01*
X24220000Y-81585000D01*
X24708000Y-81840000D01*
X25320000Y-82159000D01*
X25482000Y-82244000D01*
X26038000Y-82534000D01*
X26552000Y-82801000D01*
X27005000Y-83037000D01*
X27381000Y-83232000D01*
X27660000Y-83377000D01*
X27824000Y-83462000D01*
X27857000Y-83479000D01*
X28126000Y-83570000D01*
X28361000Y-83560000D01*
X28535000Y-83507000D01*
X28569000Y-83493000D01*
X28648000Y-83436000D01*
X28834000Y-83292000D01*
X29112000Y-83075000D01*
X29462000Y-82799000D01*
X29870000Y-82476000D01*
X30316000Y-82121000D01*
X30785000Y-81748000D01*
X31260000Y-81369000D01*
X31722000Y-80998000D01*
X32156000Y-80650000D01*
X32544000Y-80337000D01*
X32870000Y-80073000D01*
X33115000Y-79872000D01*
X33264000Y-79748000D01*
X33291000Y-79724000D01*
X33487000Y-79452000D01*
X33556000Y-79143000D01*
X33552000Y-79081000D01*
X33532000Y-78925000D01*
X33496000Y-78645000D01*
X33446000Y-78264000D01*
X33385000Y-77808000D01*
X33317000Y-77299000D01*
X33244000Y-76762000D01*
X33171000Y-76221000D01*
X33101000Y-75699000D01*
X33036000Y-75222000D01*
X32980000Y-74812000D01*
X32936000Y-74494000D01*
X32907000Y-74292000D01*
X32897000Y-74230000D01*
X32764000Y-73943000D01*
X32497000Y-73715000D01*
X32401000Y-73662000D01*
X32220000Y-73570000D01*
X31932000Y-73427000D01*
X31561000Y-73243000D01*
X31126000Y-73029000D01*
X30650000Y-72795000D01*
X30154000Y-72552000D01*
X29661000Y-72310000D01*
X29191000Y-72080000D01*
X28766000Y-71873000D01*
X28408000Y-71699000D01*
X28138000Y-71568000D01*
X27979000Y-71492000D01*
X27946000Y-71478000D01*
X27679000Y-71439000D01*
X27413000Y-71481000D01*
X27397000Y-71487000D01*
X27305000Y-71539000D01*
X27093000Y-71664000D01*
X26776000Y-71855000D01*
X26370000Y-72102000D01*
X25890000Y-72394000D01*
X25352000Y-72724000D01*
X24772000Y-73080000D01*
X24687000Y-73132000D01*
X24011000Y-73548000D01*
X23459000Y-73889000D01*
X23017000Y-74163000D01*
X22673000Y-74378000D01*
X22413000Y-74542000D01*
X22225000Y-74664000D01*
X22096000Y-74752000D01*
X22012000Y-74814000D01*
X21961000Y-74858000D01*
X21958000Y-74860000D01*
X21791000Y-75081000D01*
X21734000Y-75339000D01*
X21733000Y-75400000D01*
X21513000Y-75400000D01*
X21517000Y-75218000D01*
X21541000Y-75099000D01*
X21558000Y-75054000D01*
X21716000Y-74778000D01*
X21880000Y-74609000D01*
X21976000Y-74546000D01*
X22189000Y-74411000D01*
X22501000Y-74217000D01*
X22892000Y-73973000D01*
X23346000Y-73692000D01*
X23843000Y-73385000D01*
X24366000Y-73063000D01*
X24896000Y-72736000D01*
X25414000Y-72418000D01*
X25904000Y-72117000D01*
X26346000Y-71847000D01*
X26722000Y-71618000D01*
X27014000Y-71441000D01*
X27203000Y-71327000D01*
X27270000Y-71290000D01*
X27642000Y-71202000D01*
X27928000Y-71230000D01*
X28019000Y-71270000D01*
X28231000Y-71370000D01*
X28546000Y-71519000D01*
X28940000Y-71709000D01*
X29393000Y-71928000D01*
X29884000Y-72167000D01*
X30392000Y-72414000D01*
X30896000Y-72660000D01*
X31374000Y-72894000D01*
X31805000Y-73107000D01*
X32169000Y-73287000D01*
X32444000Y-73424000D01*
X32609000Y-73509000D01*
X32640000Y-73526000D01*
X32931000Y-73782000D01*
X33106000Y-74115000D01*
X33120000Y-74171000D01*
X33138000Y-74282000D01*
X33173000Y-74526000D01*
X33222000Y-74880000D01*
X33281000Y-75318000D01*
X33349000Y-75818000D01*
X33420000Y-76355000D01*
X33493000Y-76905000D01*
X33564000Y-77444000D01*
X33630000Y-77950000D01*
X33688000Y-78397000D01*
X33734000Y-78761000D01*
X33766000Y-79019000D01*
X33780000Y-79148000D01*
X33780000Y-79155000D01*
X33701000Y-79531000D01*
X33559000Y-79772000D01*
X33496000Y-79835000D01*
X33348000Y-79963000D01*
X33111000Y-80162000D01*
X32775000Y-80437000D01*
X32334000Y-80795000D01*
X31782000Y-81241000D01*
X31208000Y-81702000D01*
X30683000Y-82124000D01*
X30195000Y-82515000D01*
X29757000Y-82866000D01*
X29386000Y-83162000D01*
X29094000Y-83394000D01*
X28899000Y-83549000D01*
X28814000Y-83615000D01*
X28569000Y-83746000D01*
X28288000Y-83792000D01*
X28270000Y-83793000D01*
X28005000Y-83780000D01*
X27966000Y-83770000D01*
X27802000Y-83709000D01*
X27736000Y-83678000D01*
X27584000Y-83600000D01*
X27322000Y-83464000D01*
X26971000Y-83282000D01*
X26551000Y-83062000D01*
X26083000Y-82818000D01*
X25589000Y-82559000D01*
X25088000Y-82297000D01*
X24602000Y-82041000D01*
X24151000Y-81805000D01*
X23757000Y-81597000D01*
X23439000Y-81429000D01*
X23219000Y-81313000D01*
X23118000Y-81258000D01*
X23115000Y-81256000D01*
X22893000Y-81051000D01*
X22778000Y-80870000D01*
X22747000Y-80776000D01*
X22691000Y-80568000D01*
X22608000Y-80239000D01*
X22495000Y-79781000D01*
X22352000Y-79186000D01*
X22175000Y-78445000D01*
X22117000Y-78200000D01*
X21513000Y-75650000D01*
X21512000Y-75410000D01*
X21513000Y-75400000D01*
G37*
G36*
X21681000Y-63353000D02*
G01*
X21906000Y-63353000D01*
X21914000Y-63506000D01*
X21951000Y-63623000D01*
X22049000Y-63883000D01*
X22207000Y-64288000D01*
X22426000Y-64838000D01*
X22707000Y-65535000D01*
X22920000Y-66061000D01*
X23159000Y-66652000D01*
X23382000Y-67200000D01*
X23581000Y-67686000D01*
X23747000Y-68092000D01*
X23873000Y-68397000D01*
X23951000Y-68585000D01*
X23972000Y-68633000D01*
X24188000Y-68920000D01*
X24339000Y-69019000D01*
X24369000Y-69036000D01*
X24395000Y-69050000D01*
X24434000Y-69063000D01*
X24500000Y-69077000D01*
X24609000Y-69094000D01*
X24777000Y-69116000D01*
X25019000Y-69146000D01*
X25351000Y-69185000D01*
X25788000Y-69236000D01*
X26345000Y-69299000D01*
X27040000Y-69379000D01*
X27400000Y-69420000D01*
X27956000Y-69483000D01*
X28456000Y-69540000D01*
X28879000Y-69589000D01*
X29205000Y-69626000D01*
X29412000Y-69650000D01*
X29480000Y-69658000D01*
X29555000Y-69649000D01*
X29617000Y-69639000D01*
X29944000Y-69509000D01*
X30178000Y-69262000D01*
X30243000Y-69151000D01*
X30374000Y-68924000D01*
X30559000Y-68598000D01*
X30789000Y-68191000D01*
X31054000Y-67722000D01*
X31343000Y-67209000D01*
X31646000Y-66670000D01*
X31953000Y-66125000D01*
X32253000Y-65591000D01*
X32535000Y-65086000D01*
X32791000Y-64629000D01*
X33008000Y-64239000D01*
X33178000Y-63933000D01*
X33289000Y-63731000D01*
X33331000Y-63650000D01*
X33369000Y-63359000D01*
X33294000Y-63059000D01*
X33234000Y-62955000D01*
X33165000Y-62875000D01*
X33003000Y-62698000D01*
X32768000Y-62443000D01*
X32478000Y-62129000D01*
X32149000Y-61776000D01*
X31800000Y-61402000D01*
X31449000Y-61026000D01*
X31114000Y-60669000D01*
X30814000Y-60349000D01*
X30564000Y-60086000D01*
X30385000Y-59898000D01*
X30293000Y-59805000D01*
X30292000Y-59803000D01*
X30156000Y-59702000D01*
X30114000Y-59680000D01*
X30017000Y-59649000D01*
X29788000Y-59580000D01*
X29446000Y-59480000D01*
X29012000Y-59354000D01*
X28507000Y-59208000D01*
X27951000Y-59049000D01*
X27910000Y-59037000D01*
X25790000Y-58432000D01*
X25590000Y-58431000D01*
X25426000Y-58436000D01*
X25319000Y-58466000D01*
X25260000Y-58494000D01*
X25099000Y-58598000D01*
X25047000Y-58644000D01*
X24984000Y-58727000D01*
X24844000Y-58922000D01*
X24640000Y-59211000D01*
X24385000Y-59574000D01*
X24093000Y-59992000D01*
X23777000Y-60446000D01*
X23450000Y-60916000D01*
X23125000Y-61383000D01*
X22817000Y-61828000D01*
X22539000Y-62233000D01*
X22303000Y-62577000D01*
X22123000Y-62841000D01*
X22012000Y-63006000D01*
X21984000Y-63052000D01*
X21906000Y-63353000D01*
X21681000Y-63353000D01*
X21739000Y-63048000D01*
X21752000Y-63014000D01*
X21815000Y-62907000D01*
X21963000Y-62680000D01*
X22199000Y-62330000D01*
X22523000Y-61856000D01*
X22937000Y-61255000D01*
X23304000Y-60724000D01*
X23666000Y-60204000D01*
X23998000Y-59726000D01*
X24292000Y-59306000D01*
X24534000Y-58959000D01*
X24715000Y-58703000D01*
X24822000Y-58552000D01*
X24848000Y-58518000D01*
X25160000Y-58290000D01*
X25525000Y-58192000D01*
X25735000Y-58201000D01*
X25865000Y-58231000D01*
X26121000Y-58299000D01*
X26478000Y-58397000D01*
X26913000Y-58518000D01*
X27399000Y-58655000D01*
X27913000Y-58802000D01*
X28431000Y-58951000D01*
X28927000Y-59094000D01*
X29376000Y-59226000D01*
X29755000Y-59339000D01*
X30039000Y-59425000D01*
X30204000Y-59479000D01*
X30230000Y-59489000D01*
X30493000Y-59680000D01*
X30495000Y-59681000D01*
X30617000Y-59807000D01*
X30821000Y-60021000D01*
X31089000Y-60305000D01*
X31402000Y-60639000D01*
X31744000Y-61005000D01*
X32097000Y-61383000D01*
X32442000Y-61754000D01*
X32762000Y-62100000D01*
X33039000Y-62400000D01*
X33256000Y-62637000D01*
X33394000Y-62791000D01*
X33436000Y-62840000D01*
X33574000Y-63179000D01*
X33586000Y-63554000D01*
X33496000Y-63849000D01*
X33441000Y-63948000D01*
X33320000Y-64166000D01*
X33141000Y-64484000D01*
X32916000Y-64884000D01*
X32655000Y-65347000D01*
X32368000Y-65855000D01*
X32065000Y-66391000D01*
X31758000Y-66934000D01*
X31456000Y-67468000D01*
X31170000Y-67973000D01*
X30910000Y-68432000D01*
X30686000Y-68825000D01*
X30510000Y-69135000D01*
X30391000Y-69343000D01*
X30339000Y-69431000D01*
X30339000Y-69432000D01*
X30064000Y-69703000D01*
X29954000Y-69768000D01*
X29624000Y-69871000D01*
X29472000Y-69878000D01*
X29365000Y-69869000D01*
X29119000Y-69843000D01*
X28755000Y-69804000D01*
X28294000Y-69753000D01*
X27757000Y-69693000D01*
X27164000Y-69626000D01*
X26934000Y-69600000D01*
X26167000Y-69511000D01*
X25550000Y-69439000D01*
X25073000Y-69381000D01*
X24727000Y-69337000D01*
X24503000Y-69305000D01*
X24390000Y-69284000D01*
X24383000Y-69282000D01*
X24101000Y-69136000D01*
X23861000Y-68909000D01*
X23785000Y-68790000D01*
X23744000Y-68695000D01*
X23653000Y-68474000D01*
X23519000Y-68147000D01*
X23352000Y-67736000D01*
X23160000Y-67262000D01*
X22951000Y-66746000D01*
X22734000Y-66209000D01*
X22517000Y-65673000D01*
X22310000Y-65158000D01*
X22120000Y-64686000D01*
X21957000Y-64278000D01*
X21828000Y-63955000D01*
X21743000Y-63739000D01*
X21710000Y-63651000D01*
X21681000Y-63353000D01*
G37*
G36*
X21772000Y-50842000D02*
G01*
X21995000Y-50842000D01*
X22034000Y-51090000D01*
X22077000Y-51177000D01*
X22182000Y-51386000D01*
X22341000Y-51696000D01*
X22541000Y-52087000D01*
X22773000Y-52538000D01*
X23026000Y-53030000D01*
X23289000Y-53541000D01*
X23553000Y-54052000D01*
X23806000Y-54542000D01*
X24039000Y-54991000D01*
X24239000Y-55378000D01*
X24398000Y-55683000D01*
X24505000Y-55885000D01*
X24545000Y-55960000D01*
X24752000Y-56191000D01*
X25022000Y-56335000D01*
X25099000Y-56352000D01*
X25205000Y-56363000D01*
X25448000Y-56384000D01*
X25806000Y-56414000D01*
X26256000Y-56451000D01*
X26776000Y-56494000D01*
X27344000Y-56540000D01*
X27936000Y-56587000D01*
X28531000Y-56635000D01*
X29107000Y-56680000D01*
X29640000Y-56722000D01*
X30108000Y-56759000D01*
X30489000Y-56788000D01*
X30761000Y-56808000D01*
X30901000Y-56817000D01*
X30911000Y-56818000D01*
X31101000Y-56801000D01*
X31161000Y-56788000D01*
X31322000Y-56723000D01*
X31354000Y-56706000D01*
X31535000Y-56550000D01*
X31669000Y-56354000D01*
X31677000Y-56333000D01*
X31702000Y-56236000D01*
X31757000Y-56003000D01*
X31838000Y-55653000D01*
X31941000Y-55207000D01*
X32060000Y-54685000D01*
X32191000Y-54106000D01*
X32331000Y-53491000D01*
X32473000Y-52860000D01*
X32614000Y-52231000D01*
X32750000Y-51627000D01*
X32875000Y-51066000D01*
X32986000Y-50568000D01*
X33077000Y-50153000D01*
X33145000Y-49842000D01*
X33184000Y-49654000D01*
X33193000Y-49609000D01*
X33160000Y-49342000D01*
X33061000Y-49136000D01*
X32991000Y-49043000D01*
X32838000Y-48846000D01*
X32617000Y-48565000D01*
X32345000Y-48218000D01*
X32036000Y-47827000D01*
X31707000Y-47411000D01*
X31374000Y-46990000D01*
X31052000Y-46584000D01*
X30757000Y-46212000D01*
X30504000Y-45896000D01*
X30310000Y-45654000D01*
X30191000Y-45507000D01*
X30162000Y-45473000D01*
X29884000Y-45281000D01*
X29559000Y-45226000D01*
X29550000Y-45227000D01*
X29440000Y-45245000D01*
X29192000Y-45291000D01*
X28828000Y-45361000D01*
X28367000Y-45451000D01*
X27828000Y-45558000D01*
X27232000Y-45678000D01*
X26881000Y-45748000D01*
X26164000Y-45893000D01*
X25588000Y-46010000D01*
X25135000Y-46103000D01*
X24790000Y-46177000D01*
X24536000Y-46236000D01*
X24356000Y-46283000D01*
X24235000Y-46323000D01*
X24155000Y-46361000D01*
X24100000Y-46400000D01*
X24055000Y-46444000D01*
X24030000Y-46470000D01*
X23996000Y-46510000D01*
X23954000Y-46572000D01*
X23897000Y-46673000D01*
X23816000Y-46831000D01*
X23703000Y-47061000D01*
X23548000Y-47381000D01*
X23345000Y-47808000D01*
X23083000Y-48359000D01*
X23011000Y-48511000D01*
X22765000Y-49031000D01*
X22540000Y-49507000D01*
X22346000Y-49919000D01*
X22192000Y-50247000D01*
X22089000Y-50470000D01*
X22044000Y-50567000D01*
X21995000Y-50842000D01*
X21772000Y-50842000D01*
X21804000Y-50563000D01*
X21824000Y-50500000D01*
X21869000Y-50400000D01*
X21972000Y-50179000D01*
X22121000Y-49861000D01*
X22305000Y-49470000D01*
X22513000Y-49030000D01*
X22733000Y-48564000D01*
X22955000Y-48096000D01*
X23167000Y-47650000D01*
X23358000Y-47250000D01*
X23516000Y-46919000D01*
X23630000Y-46681000D01*
X23682000Y-46576000D01*
X23919000Y-46261000D01*
X24144000Y-46111000D01*
X24193000Y-46089000D01*
X24257000Y-46066000D01*
X24353000Y-46039000D01*
X24498000Y-46004000D01*
X24709000Y-45958000D01*
X25002000Y-45897000D01*
X25394000Y-45817000D01*
X25901000Y-45714000D01*
X26541000Y-45586000D01*
X26884000Y-45517000D01*
X27650000Y-45365000D01*
X28271000Y-45242000D01*
X28759000Y-45147000D01*
X29126000Y-45077000D01*
X29383000Y-45031000D01*
X29543000Y-45006000D01*
X29611000Y-45000000D01*
X29986000Y-45076000D01*
X30265000Y-45257000D01*
X30337000Y-45339000D01*
X30491000Y-45527000D01*
X30714000Y-45803000D01*
X30989000Y-46145000D01*
X31301000Y-46535000D01*
X31634000Y-46952000D01*
X31973000Y-47379000D01*
X32302000Y-47794000D01*
X32606000Y-48179000D01*
X32868000Y-48513000D01*
X33075000Y-48778000D01*
X33210000Y-48954000D01*
X33251000Y-49010000D01*
X33375000Y-49266000D01*
X33409000Y-49569000D01*
X33409000Y-49570000D01*
X33407000Y-49627000D01*
X33399000Y-49699000D01*
X33384000Y-49801000D01*
X33356000Y-49948000D01*
X33314000Y-50155000D01*
X33253000Y-50436000D01*
X33172000Y-50807000D01*
X33066000Y-51282000D01*
X32932000Y-51876000D01*
X32768000Y-52604000D01*
X32673000Y-53026000D01*
X32515000Y-53726000D01*
X32367000Y-54380000D01*
X32232000Y-54969000D01*
X32115000Y-55478000D01*
X32020000Y-55890000D01*
X31950000Y-56187000D01*
X31910000Y-56353000D01*
X31902000Y-56381000D01*
X31756000Y-56644000D01*
X31646000Y-56763000D01*
X31333000Y-56972000D01*
X31000000Y-57046000D01*
X30887000Y-57042000D01*
X30631000Y-57026000D01*
X30251000Y-56999000D01*
X29765000Y-56963000D01*
X29189000Y-56919000D01*
X28541000Y-56868000D01*
X28440000Y-56859000D01*
X27616000Y-56793000D01*
X26936000Y-56738000D01*
X26387000Y-56694000D01*
X25953000Y-56658000D01*
X25621000Y-56630000D01*
X25376000Y-56609000D01*
X25202000Y-56592000D01*
X25086000Y-56579000D01*
X25013000Y-56569000D01*
X24968000Y-56560000D01*
X24937000Y-56550000D01*
X24913000Y-56541000D01*
X24585000Y-56359000D01*
X24419000Y-56185000D01*
X24365000Y-56091000D01*
X24249000Y-55875000D01*
X24081000Y-55557000D01*
X23872000Y-55158000D01*
X23632000Y-54697000D01*
X23372000Y-54196000D01*
X23102000Y-53674000D01*
X22832000Y-53151000D01*
X22573000Y-52649000D01*
X22336000Y-52187000D01*
X22132000Y-51786000D01*
X21969000Y-51466000D01*
X21860000Y-51247000D01*
X21815000Y-51150000D01*
X21770000Y-50862000D01*
X21772000Y-50842000D01*
G37*
G36*
X29910000Y-33595000D02*
G01*
X30482000Y-33752000D01*
X31006000Y-33896000D01*
X31462000Y-34023000D01*
X31830000Y-34125000D01*
X32087000Y-34198000D01*
X32215000Y-34236000D01*
X32222000Y-34239000D01*
X32551000Y-34445000D01*
X32773000Y-34754000D01*
X32809000Y-34830000D01*
X32836000Y-34902000D01*
X32854000Y-34989000D01*
X32863000Y-35112000D01*
X32863000Y-35290000D01*
X32852000Y-35541000D01*
X32832000Y-35887000D01*
X32801000Y-36345000D01*
X32760000Y-36936000D01*
X32741000Y-37210000D01*
X32702000Y-37767000D01*
X32665000Y-38272000D01*
X32632000Y-38704000D01*
X32605000Y-39039000D01*
X32586000Y-39256000D01*
X32578000Y-39330000D01*
X32539000Y-39463000D01*
X32462000Y-39718000D01*
X32354000Y-40071000D01*
X32222000Y-40497000D01*
X32075000Y-40972000D01*
X31919000Y-41473000D01*
X31762000Y-41974000D01*
X31612000Y-42451000D01*
X31476000Y-42881000D01*
X31362000Y-43239000D01*
X31277000Y-43501000D01*
X31230000Y-43643000D01*
X31224000Y-43660000D01*
X31103000Y-43832000D01*
X31031000Y-43910000D01*
X30701000Y-44141000D01*
X30327000Y-44218000D01*
X30304000Y-44218000D01*
X30200000Y-44207000D01*
X29957000Y-44177000D01*
X29593000Y-44131000D01*
X29127000Y-44070000D01*
X28578000Y-43998000D01*
X27965000Y-43917000D01*
X27400000Y-43841000D01*
X26648000Y-43740000D01*
X26039000Y-43657000D01*
X25556000Y-43591000D01*
X25183000Y-43538000D01*
X24904000Y-43495000D01*
X24704000Y-43461000D01*
X24565000Y-43433000D01*
X24473000Y-43408000D01*
X24410000Y-43383000D01*
X24360000Y-43356000D01*
X24348000Y-43348000D01*
X24171000Y-43204000D01*
X24065000Y-43088000D01*
X24010000Y-43001000D01*
X23887000Y-42793000D01*
X23707000Y-42483000D01*
X23480000Y-42091000D01*
X23217000Y-41635000D01*
X22930000Y-41134000D01*
X22916000Y-41110000D01*
X22590000Y-40539000D01*
X22334000Y-40090000D01*
X22140000Y-39745000D01*
X21999000Y-39488000D01*
X21901000Y-39302000D01*
X21839000Y-39168000D01*
X21801000Y-39071000D01*
X21781000Y-38993000D01*
X21770000Y-38930000D01*
X21773000Y-38831000D01*
X21786000Y-38600000D01*
X21809000Y-38265000D01*
X21838000Y-37852000D01*
X21871000Y-37390000D01*
X21908000Y-36905000D01*
X21945000Y-36425000D01*
X21980000Y-35978000D01*
X22012000Y-35591000D01*
X22038000Y-35291000D01*
X22056000Y-35106000D01*
X22062000Y-35065000D01*
X22203000Y-34732000D01*
X22455000Y-34461000D01*
X22608000Y-34369000D01*
X22729000Y-34326000D01*
X22994000Y-34243000D01*
X23389000Y-34124000D01*
X23905000Y-33972000D01*
X24530000Y-33789000D01*
X25020000Y-33648000D01*
X27290000Y-32994000D01*
X27500000Y-32993000D01*
X27710000Y-32993000D01*
X29910000Y-33595000D01*
G37*
G36*
X24789000Y-29503000D02*
G01*
X25075000Y-29503000D01*
X25123000Y-29690000D01*
X25235000Y-29843000D01*
X25310000Y-29886000D01*
X25408000Y-29892000D01*
X25535000Y-29849000D01*
X25655000Y-29789000D01*
X25815000Y-29701000D01*
X25895000Y-29645000D01*
X25909000Y-29580000D01*
X25917000Y-29413000D01*
X25920000Y-29118000D01*
X25920000Y-29038000D01*
X25920000Y-28464000D01*
X25861000Y-28414000D01*
X25803000Y-28365000D01*
X25606000Y-28411000D01*
X25441000Y-28443000D01*
X25365000Y-28447000D01*
X25320000Y-28450000D01*
X25360000Y-28517000D01*
X25451000Y-28655000D01*
X25542000Y-28796000D01*
X25576000Y-28861000D01*
X25515000Y-28914000D01*
X25407000Y-28996000D01*
X25179000Y-29207000D01*
X25082000Y-29418000D01*
X25075000Y-29503000D01*
X24789000Y-29503000D01*
X24851000Y-29322000D01*
X25067000Y-29093000D01*
X25230000Y-28978000D01*
X25367000Y-28883000D01*
X25420000Y-28833000D01*
X25399000Y-28782000D01*
X25321000Y-28664000D01*
X25169000Y-28450000D01*
X25015000Y-28223000D01*
X24965000Y-28113000D01*
X24968000Y-28106000D01*
X25026000Y-28142000D01*
X25088000Y-28195000D01*
X25279000Y-28307000D01*
X25517000Y-28311000D01*
X25658000Y-28279000D01*
X25843000Y-28217000D01*
X25959000Y-28139000D01*
X25967000Y-28131000D01*
X26025000Y-28078000D01*
X26069000Y-28119000D01*
X26214000Y-28156000D01*
X26401000Y-28063000D01*
X26479000Y-27992000D01*
X26570000Y-27911000D01*
X26592000Y-27900000D01*
X26599000Y-27951000D01*
X26487000Y-28099000D01*
X26445000Y-28145000D01*
X26339000Y-28264000D01*
X26272000Y-28364000D01*
X26237000Y-28484000D01*
X26223000Y-28664000D01*
X26223000Y-28946000D01*
X26224000Y-29129000D01*
X26228000Y-29454000D01*
X26233000Y-29652000D01*
X26242000Y-29757000D01*
X26257000Y-29804000D01*
X26264000Y-29813000D01*
X26374000Y-29826000D01*
X26513000Y-29733000D01*
X26529000Y-29716000D01*
X26594000Y-29660000D01*
X26578000Y-29722000D01*
X26543000Y-29782000D01*
X26357000Y-29970000D01*
X26139000Y-30036000D01*
X26089000Y-30031000D01*
X25951000Y-29949000D01*
X25920000Y-29861000D01*
X25904000Y-29800000D01*
X25903000Y-29800000D01*
X25830000Y-29834000D01*
X25675000Y-29916000D01*
X25668000Y-29920000D01*
X25450000Y-30039000D01*
X25260000Y-30039000D01*
X25027000Y-30016000D01*
X24887000Y-29930000D01*
X24840000Y-29867000D01*
X24784000Y-29757000D01*
X24826000Y-29732000D01*
X24845000Y-29733000D01*
X24910000Y-29740000D01*
X24850000Y-29712000D01*
X24784000Y-29700000D01*
X24783000Y-29702000D01*
X24708000Y-29714000D01*
X24534000Y-29720000D01*
X24513000Y-29720000D01*
X24228000Y-29734000D01*
X24133000Y-29750000D01*
X23885000Y-29837000D01*
X23647000Y-29952000D01*
X23640000Y-29956000D01*
X23510000Y-30019000D01*
X23415000Y-29990000D01*
X23351000Y-29939000D01*
X23211000Y-29829000D01*
X23110000Y-29797000D01*
X22978000Y-29839000D01*
X22850000Y-29899000D01*
X22638000Y-29991000D01*
X22544000Y-30010000D01*
X22445000Y-29960000D01*
X22383000Y-29920000D01*
X22217000Y-29822000D01*
X22099000Y-29761000D01*
X21939000Y-29695000D01*
X21779000Y-29670000D01*
X21737000Y-29667000D01*
X21582000Y-29662000D01*
X21503000Y-29681000D01*
X21474000Y-29698000D01*
X21360000Y-29857000D01*
X21340000Y-30001000D01*
X21416000Y-30244000D01*
X21620000Y-30462000D01*
X21723000Y-30552000D01*
X21687000Y-30564000D01*
X21597000Y-30532000D01*
X21328000Y-30360000D01*
X21188000Y-30139000D01*
X21132000Y-29839000D01*
X21209000Y-29590000D01*
X21395000Y-29414000D01*
X21666000Y-29331000D01*
X21997000Y-29362000D01*
X22064000Y-29382000D01*
X22173000Y-29416000D01*
X22190000Y-29420000D01*
X22196000Y-29349000D01*
X22198000Y-29172000D01*
X22196000Y-28942000D01*
X22191000Y-28712000D01*
X22185000Y-28538000D01*
X22178000Y-28471000D01*
X22103000Y-28473000D01*
X22078000Y-28478000D01*
X21917000Y-28589000D01*
X21854000Y-28737000D01*
X21824000Y-28850000D01*
X21822000Y-28707000D01*
X21865000Y-28463000D01*
X22010000Y-28306000D01*
X22126000Y-28252000D01*
X22127000Y-28252000D01*
X22184000Y-28238000D01*
X22176000Y-28024000D01*
X22161000Y-27847000D01*
X22142000Y-27760000D01*
X22013000Y-27647000D01*
X21886000Y-27623000D01*
X21753000Y-27630000D01*
X21669000Y-27670000D01*
X21528000Y-27832000D01*
X21513000Y-28042000D01*
X21593000Y-28200000D01*
X21635000Y-28269000D01*
X21634000Y-28273000D01*
X21566000Y-28250000D01*
X21473000Y-28153000D01*
X21448000Y-28113000D01*
X21399000Y-27980000D01*
X21393000Y-27871000D01*
X21458000Y-27602000D01*
X21661000Y-27412000D01*
X21715000Y-27385000D01*
X21827000Y-27346000D01*
X21970000Y-27342000D01*
X21999000Y-27344000D01*
X22155000Y-27360000D01*
X22265000Y-27407000D01*
X22288000Y-27420000D01*
X22421000Y-27528000D01*
X22455000Y-27568000D01*
X22510000Y-27647000D01*
X22520000Y-28637000D01*
X22530000Y-29628000D01*
X22610000Y-29682000D01*
X22772000Y-29764000D01*
X22915000Y-29744000D01*
X22940000Y-29733000D01*
X23016000Y-29702000D01*
X23068000Y-29670000D01*
X23100000Y-29612000D01*
X23116000Y-29498000D01*
X23122000Y-29301000D01*
X23122000Y-28995000D01*
X23121000Y-28639000D01*
X23119000Y-27650000D01*
X23074000Y-27614000D01*
X22991000Y-27585000D01*
X22915000Y-27589000D01*
X22812000Y-27590000D01*
X22800000Y-27585000D01*
X22862000Y-27542000D01*
X23006000Y-27466000D01*
X23166000Y-27389000D01*
X23278000Y-27343000D01*
X23292000Y-27340000D01*
X23387000Y-27375000D01*
X23394000Y-27379000D01*
X23443000Y-27416000D01*
X23477000Y-27476000D01*
X23499000Y-27583000D01*
X23512000Y-27763000D01*
X23518000Y-28042000D01*
X23520000Y-28447000D01*
X23520000Y-28630000D01*
X23520000Y-29633000D01*
X23565000Y-29674000D01*
X23670000Y-29745000D01*
X23728000Y-29762000D01*
X23817000Y-29734000D01*
X23905000Y-29695000D01*
X24080000Y-29614000D01*
X24080000Y-28656000D01*
X24080000Y-27697000D01*
X24023000Y-27640000D01*
X23888000Y-27570000D01*
X23770000Y-27539000D01*
X23810000Y-27503000D01*
X23870000Y-27484000D01*
X24007000Y-27425000D01*
X24062000Y-27394000D01*
X24194000Y-27321000D01*
X24263000Y-27326000D01*
X24318000Y-27380000D01*
X24392000Y-27442000D01*
X24483000Y-27433000D01*
X24634000Y-27363000D01*
X24758000Y-27315000D01*
X24790000Y-27313000D01*
X24790000Y-27344000D01*
X24762000Y-27362000D01*
X24591000Y-27513000D01*
X24493000Y-27657000D01*
X24474000Y-27704000D01*
X24462000Y-27769000D01*
X24455000Y-27882000D01*
X24451000Y-28074000D01*
X24450000Y-28375000D01*
X24450000Y-28650000D01*
X24450000Y-29550000D01*
X24560000Y-29603000D01*
X24701000Y-29665000D01*
X24752000Y-29651000D01*
X24766000Y-29571000D01*
X24789000Y-29503000D01*
G37*
G36*
X30733000Y-27341000D02*
G01*
X30950000Y-27468000D01*
X31027000Y-27576000D01*
X31045000Y-27623000D01*
X31058000Y-27688000D01*
X31066000Y-27801000D01*
X31072000Y-27991000D01*
X31076000Y-28288000D01*
X31080000Y-28638000D01*
X31085000Y-29051000D01*
X31090000Y-29331000D01*
X31097000Y-29501000D01*
X31106000Y-29589000D01*
X31118000Y-29620000D01*
X31120000Y-29622000D01*
X31208000Y-29665000D01*
X31306000Y-29713000D01*
X31462000Y-29788000D01*
X31687000Y-29714000D01*
X31865000Y-29661000D01*
X31964000Y-29640000D01*
X32023000Y-29615000D01*
X32025000Y-29530000D01*
X32025000Y-29317000D01*
X32023000Y-29008000D01*
X32020000Y-28635000D01*
X32020000Y-28626000D01*
X32015000Y-28215000D01*
X32010000Y-27937000D01*
X32004000Y-27766000D01*
X31995000Y-27674000D01*
X31982000Y-27634000D01*
X31978000Y-27629000D01*
X31867000Y-27591000D01*
X31822000Y-27585000D01*
X31722000Y-27567000D01*
X31714000Y-27558000D01*
X31792000Y-27522000D01*
X31891000Y-27483000D01*
X32060000Y-27410000D01*
X32131000Y-27371000D01*
X32254000Y-27331000D01*
X32385000Y-27412000D01*
X32478000Y-27471000D01*
X32515000Y-27468000D01*
X32631000Y-27440000D01*
X32727000Y-27417000D01*
X32865000Y-27389000D01*
X32907000Y-27387000D01*
X32890000Y-27409000D01*
X32652000Y-27534000D01*
X32552000Y-27622000D01*
X32487000Y-27695000D01*
X32444000Y-27765000D01*
X32418000Y-27862000D01*
X32405000Y-28018000D01*
X32400000Y-28266000D01*
X32400000Y-28636000D01*
X32400000Y-28724000D01*
X32400000Y-29593000D01*
X32455000Y-29644000D01*
X32572000Y-29727000D01*
X32610000Y-29748000D01*
X32710000Y-29801000D01*
X32620000Y-29792000D01*
X32482000Y-29779000D01*
X32273000Y-29760000D01*
X32267000Y-29759000D01*
X32005000Y-29735000D01*
X31580000Y-29879000D01*
X31156000Y-30023000D01*
X31032000Y-29973000D01*
X30575000Y-29838000D01*
X30317000Y-29812000D01*
X30151000Y-29820000D01*
X30068000Y-29850000D01*
X29934000Y-30008000D01*
X29929000Y-30025000D01*
X29959000Y-30201000D01*
X30139000Y-30351000D01*
X30150000Y-30357000D01*
X30236000Y-30394000D01*
X30345000Y-30408000D01*
X30505000Y-30410000D01*
X30680000Y-30411000D01*
X30760000Y-30413000D01*
X30697000Y-30437000D01*
X30636000Y-30458000D01*
X30321000Y-30500000D01*
X30038000Y-30454000D01*
X29799000Y-30324000D01*
X29692000Y-30125000D01*
X29680000Y-29998000D01*
X29732000Y-29731000D01*
X29901000Y-29560000D01*
X30090000Y-29487000D01*
X30426000Y-29468000D01*
X30573000Y-29490000D01*
X30708000Y-29515000D01*
X30745000Y-29520000D01*
X30753000Y-29447000D01*
X30758000Y-29257000D01*
X30760000Y-29010000D01*
X30760000Y-28500000D01*
X30705000Y-28500000D01*
X30543000Y-28573000D01*
X30424000Y-28762000D01*
X30417000Y-28785000D01*
X30382000Y-28858000D01*
X30378000Y-28860000D01*
X30372000Y-28798000D01*
X30404000Y-28601000D01*
X30404000Y-28600000D01*
X30460000Y-28460000D01*
X30508000Y-28406000D01*
X30621000Y-28322000D01*
X30651000Y-28310000D01*
X30735000Y-28289000D01*
X30756000Y-28213000D01*
X30761000Y-28049000D01*
X30753000Y-27871000D01*
X30731000Y-27749000D01*
X30613000Y-27643000D01*
X30431000Y-27623000D01*
X30259000Y-27692000D01*
X30230000Y-27719000D01*
X30189000Y-27868000D01*
X30238000Y-28063000D01*
X30245000Y-28078000D01*
X30279000Y-28171000D01*
X30210000Y-28155000D01*
X30201000Y-28150000D01*
X30081000Y-28012000D01*
X30044000Y-27811000D01*
X30042000Y-27676000D01*
X30075000Y-27598000D01*
X30104000Y-27560000D01*
X30305000Y-27402000D01*
X30565000Y-27328000D01*
X30733000Y-27341000D01*
G37*
G36*
X28652000Y-28157000D02*
G01*
X28580000Y-28274000D01*
X28535000Y-28333000D01*
X28365000Y-28453000D01*
X28114000Y-28487000D01*
X27937000Y-28487000D01*
X27818000Y-28725000D01*
X27729000Y-28917000D01*
X27712000Y-29005000D01*
X27712000Y-29006000D01*
X27756000Y-29098000D01*
X27848000Y-29273000D01*
X27959000Y-29476000D01*
X28058000Y-29652000D01*
X28105000Y-29731000D01*
X28239000Y-29828000D01*
X28370000Y-29800000D01*
X28493000Y-29700000D01*
X28501000Y-29689000D01*
X28559000Y-29622000D01*
X28557000Y-29679000D01*
X28470000Y-29797000D01*
X28324000Y-29922000D01*
X28265000Y-29958000D01*
X28019000Y-30012000D01*
X27809000Y-29916000D01*
X27774000Y-29879000D01*
X27687000Y-29747000D01*
X27586000Y-29559000D01*
X27526000Y-29423000D01*
X27506000Y-29415000D01*
X27461000Y-29487000D01*
X27372000Y-29672000D01*
X27362000Y-29693000D01*
X27271000Y-29888000D01*
X27214000Y-30005000D01*
X27206000Y-30020000D01*
X27158000Y-29983000D01*
X27153000Y-29978000D01*
X26990000Y-29881000D01*
X26797000Y-29938000D01*
X26647000Y-30118000D01*
X26623000Y-30300000D01*
X26619000Y-30412000D01*
X26587000Y-30370000D01*
X26579000Y-30346000D01*
X26555000Y-30126000D01*
X26594000Y-29899000D01*
X26601000Y-29881000D01*
X26764000Y-29675000D01*
X26999000Y-29573000D01*
X27148000Y-29576000D01*
X27250000Y-29590000D01*
X27262000Y-29589000D01*
X27299000Y-29519000D01*
X27348000Y-29410000D01*
X27422000Y-29240000D01*
X27198000Y-28820000D01*
X27071000Y-28586000D01*
X26971000Y-28414000D01*
X26928000Y-28350000D01*
X26851000Y-28305000D01*
X26766000Y-28299000D01*
X26650000Y-28297000D01*
X26810000Y-28218000D01*
X27025000Y-28124000D01*
X27151000Y-28104000D01*
X27167000Y-28108000D01*
X27232000Y-28160000D01*
X27327000Y-28308000D01*
X27467000Y-28575000D01*
X27483000Y-28605000D01*
X27561000Y-28756000D01*
X27601000Y-28820000D01*
X27637000Y-28754000D01*
X27716000Y-28587000D01*
X27770000Y-28469000D01*
X27865000Y-28262000D01*
X27930000Y-28130000D01*
X27945000Y-28107000D01*
X27996000Y-28126000D01*
X28135000Y-28205000D01*
X28258000Y-28247000D01*
X28475000Y-28209000D01*
X28570000Y-28151000D01*
X28661000Y-28093000D01*
X28675000Y-28089000D01*
X28652000Y-28157000D01*
G37*
G36*
X33413000Y-27349000D02*
G01*
X33515000Y-27443000D01*
X33531000Y-27487000D01*
X33540000Y-27556000D01*
X33540000Y-27685000D01*
X33534000Y-27909000D01*
X33523000Y-28200000D01*
X33508000Y-28672000D01*
X33502000Y-29077000D01*
X33504000Y-29386000D01*
X33515000Y-29573000D01*
X33521000Y-29603000D01*
X33569000Y-29686000D01*
X33574000Y-29689000D01*
X33665000Y-29644000D01*
X33792000Y-29485000D01*
X33859000Y-29393000D01*
X33873000Y-29380000D01*
X33870000Y-29440000D01*
X33825000Y-29567000D01*
X33805000Y-29610000D01*
X33681000Y-29814000D01*
X33555000Y-29961000D01*
X33528000Y-29981000D01*
X33463000Y-30022000D01*
X33387000Y-29981000D01*
X33242000Y-29942000D01*
X33046000Y-29979000D01*
X32928000Y-30020000D01*
X32767000Y-30078000D01*
X32692000Y-30100000D01*
X32722000Y-30059000D01*
X32770000Y-30016000D01*
X32968000Y-29833000D01*
X33103000Y-29675000D01*
X33126000Y-29637000D01*
X33140000Y-29591000D01*
X33150000Y-29509000D01*
X33156000Y-29361000D01*
X33159000Y-29119000D01*
X33160000Y-28753000D01*
X33160000Y-28641000D01*
X33160000Y-28213000D01*
X33156000Y-27919000D01*
X33142000Y-27734000D01*
X33111000Y-27630000D01*
X33059000Y-27584000D01*
X32979000Y-27568000D01*
X32911000Y-27562000D01*
X32791000Y-27550000D01*
X33009000Y-27425000D01*
X33177000Y-27337000D01*
X33278000Y-27300000D01*
X33413000Y-27349000D01*
G37*
M02*
