%TF.GenerationSoftware,KiCad,Pcbnew,(7.0.0)*%
%TF.CreationDate,2024-09-08T08:42:24+01:00*%
%TF.ProjectId,wax_v1_FP,7761785f-7631-45f4-9650-2e6b69636164,rev?*%
%TF.SameCoordinates,Original*%
%TF.FileFunction,Drillmap*%
%TF.FilePolarity,Positive*%
%FSLAX45Y45*%
G04 Gerber Fmt 4.5, Leading zero omitted, Abs format (unit mm)*
G04 Created by KiCad (PCBNEW (7.0.0)) date 2024-09-08 08:42:24*
%MOMM*%
%LPD*%
G01*
G04 APERTURE LIST*
%ADD10C,0.100000*%
%ADD11C,0.200000*%
G04 APERTURE END LIST*
D10*
X2850000Y-14390000D02*
X2650000Y-14390000D01*
X2650000Y-14710000D02*
X2850000Y-14710000D01*
X2850000Y-14710000D02*
G75*
G03*
X2850000Y-14390000I0J160000D01*
G01*
X2650000Y-14390000D02*
G75*
G03*
X2650000Y-14710000I0J-160000D01*
G01*
X2650000Y-2460000D02*
X2850000Y-2460000D01*
X2650000Y-2140000D02*
X2850000Y-2140000D01*
X2850000Y-2460000D02*
G75*
G03*
X2850000Y-2140000I0J160000D01*
G01*
X2650000Y-2140000D02*
G75*
G03*
X2650000Y-2460000I0J-160000D01*
G01*
X2000000Y-2000000D02*
X3500000Y-2000000D01*
X3500000Y-2000000D02*
X3500000Y-14850000D01*
X3500000Y-14850000D02*
X2000000Y-14850000D01*
X2000000Y-14850000D02*
X2000000Y-2000000D01*
X3060000Y-9073000D02*
G75*
G03*
X3060000Y-9073000I-310000J0D01*
G01*
X3060000Y-11671000D02*
G75*
G03*
X3060000Y-11671000I-310000J0D01*
G01*
X3060000Y-7771000D02*
G75*
G03*
X3060000Y-7771000I-310000J0D01*
G01*
X3060000Y-5173000D02*
G75*
G03*
X3060000Y-5173000I-310000J0D01*
G01*
X3060000Y-12966000D02*
G75*
G03*
X3060000Y-12966000I-310000J0D01*
G01*
X3060000Y-10369000D02*
G75*
G03*
X3060000Y-10369000I-310000J0D01*
G01*
X3060000Y-6475000D02*
G75*
G03*
X3060000Y-6475000I-310000J0D01*
G01*
X3060000Y-3875000D02*
G75*
G03*
X3060000Y-3875000I-310000J0D01*
G01*
D11*
X2242619Y-15148476D02*
X2242619Y-14948476D01*
X2242619Y-14948476D02*
X2290238Y-14948476D01*
X2290238Y-14948476D02*
X2318810Y-14958000D01*
X2318810Y-14958000D02*
X2337857Y-14977048D01*
X2337857Y-14977048D02*
X2347381Y-14996095D01*
X2347381Y-14996095D02*
X2356905Y-15034190D01*
X2356905Y-15034190D02*
X2356905Y-15062762D01*
X2356905Y-15062762D02*
X2347381Y-15100857D01*
X2347381Y-15100857D02*
X2337857Y-15119905D01*
X2337857Y-15119905D02*
X2318810Y-15138952D01*
X2318810Y-15138952D02*
X2290238Y-15148476D01*
X2290238Y-15148476D02*
X2242619Y-15148476D01*
X2442619Y-15148476D02*
X2442619Y-15015143D01*
X2442619Y-15053238D02*
X2452143Y-15034190D01*
X2452143Y-15034190D02*
X2461667Y-15024667D01*
X2461667Y-15024667D02*
X2480714Y-15015143D01*
X2480714Y-15015143D02*
X2499762Y-15015143D01*
X2566429Y-15148476D02*
X2566429Y-15015143D01*
X2566429Y-14948476D02*
X2556905Y-14958000D01*
X2556905Y-14958000D02*
X2566429Y-14967524D01*
X2566429Y-14967524D02*
X2575952Y-14958000D01*
X2575952Y-14958000D02*
X2566429Y-14948476D01*
X2566429Y-14948476D02*
X2566429Y-14967524D01*
X2690238Y-15148476D02*
X2671190Y-15138952D01*
X2671190Y-15138952D02*
X2661667Y-15119905D01*
X2661667Y-15119905D02*
X2661667Y-14948476D01*
X2795000Y-15148476D02*
X2775952Y-15138952D01*
X2775952Y-15138952D02*
X2766429Y-15119905D01*
X2766429Y-15119905D02*
X2766429Y-14948476D01*
X2991190Y-15148476D02*
X2991190Y-14948476D01*
X2991190Y-14948476D02*
X3057857Y-15091333D01*
X3057857Y-15091333D02*
X3124524Y-14948476D01*
X3124524Y-14948476D02*
X3124524Y-15148476D01*
X3305476Y-15148476D02*
X3305476Y-15043714D01*
X3305476Y-15043714D02*
X3295952Y-15024667D01*
X3295952Y-15024667D02*
X3276905Y-15015143D01*
X3276905Y-15015143D02*
X3238809Y-15015143D01*
X3238809Y-15015143D02*
X3219762Y-15024667D01*
X3305476Y-15138952D02*
X3286428Y-15148476D01*
X3286428Y-15148476D02*
X3238809Y-15148476D01*
X3238809Y-15148476D02*
X3219762Y-15138952D01*
X3219762Y-15138952D02*
X3210238Y-15119905D01*
X3210238Y-15119905D02*
X3210238Y-15100857D01*
X3210238Y-15100857D02*
X3219762Y-15081809D01*
X3219762Y-15081809D02*
X3238809Y-15072286D01*
X3238809Y-15072286D02*
X3286428Y-15072286D01*
X3286428Y-15072286D02*
X3305476Y-15062762D01*
X3400714Y-15015143D02*
X3400714Y-15215143D01*
X3400714Y-15024667D02*
X3419762Y-15015143D01*
X3419762Y-15015143D02*
X3457857Y-15015143D01*
X3457857Y-15015143D02*
X3476905Y-15024667D01*
X3476905Y-15024667D02*
X3486428Y-15034190D01*
X3486428Y-15034190D02*
X3495952Y-15053238D01*
X3495952Y-15053238D02*
X3495952Y-15110381D01*
X3495952Y-15110381D02*
X3486428Y-15129428D01*
X3486428Y-15129428D02*
X3476905Y-15138952D01*
X3476905Y-15138952D02*
X3457857Y-15148476D01*
X3457857Y-15148476D02*
X3419762Y-15148476D01*
X3419762Y-15148476D02*
X3400714Y-15138952D01*
X3581667Y-15129428D02*
X3591190Y-15138952D01*
X3591190Y-15138952D02*
X3581667Y-15148476D01*
X3581667Y-15148476D02*
X3572143Y-15138952D01*
X3572143Y-15138952D02*
X3581667Y-15129428D01*
X3581667Y-15129428D02*
X3581667Y-15148476D01*
X3581667Y-15024667D02*
X3591190Y-15034190D01*
X3591190Y-15034190D02*
X3581667Y-15043714D01*
X3581667Y-15043714D02*
X3572143Y-15034190D01*
X3572143Y-15034190D02*
X3581667Y-15024667D01*
X3581667Y-15024667D02*
X3581667Y-15043714D01*
M02*
